<svg xmlns="http://www.w3.org/2000/svg" xml:space="preserve" width="30mm" height="156.9" viewBox="0 0 30 41.5"><path d="M-16 210c-8-1-15-7-17-15l-1-7 2-19-1-1c-2-1-3-2-3-4l7-28c2-6 6-12 12-15 6-4 11-6 24-9l7-2-1-2C7 102 1 94-2 86l-1-2h-1c-3-1-7-4-9-8-2-3-2-6-2-9l2-7 1-3V37C-9 19 5 8 27 5l11-1c9 0 12 0 17 2 7 1 12 4 16 8l2 2 4 2c5 4 9 10 10 18l1 21v2c2 2 3 5 3 9 0 3 0 4-2 7-2 4-6 8-10 9h-1l-1 2a61 61 0 0 1-15 24l5 1c17 4 26 8 31 14l7 11a249 249 0 0 1 8 29l-3 3-2 1 2 21c0 9-7 17-16 20H-16zm40-26 6-4h36l1-1 1-1 1-15-1-15c-2-2 0-2-32-2l-30 1-1 1-1 15 1 15c1 2 1 2 6 2h4l1 1 1 1v7h1l6-5zm-6 1-1-4-6-1c-4 0-5-1-6-2l-1-1v-14l1-15 1-1h60l2 1v30l-2 1v1H30l-1 1a263 263 0 0 0-11 7v-3zm7-18 2-4c-1-2-2-4-5-3-3 0-4 3-2 6v1h5zm-5-1-1-2 2-4c3-1 5 1 5 3l-1 3-2 1-3-1zm19 1c1-1 2-3 1-4 0-3-4-5-6-2-1 1-2 2-1 4l2 2h4zm-5-1-1-2c0-3 1-4 4-4 1 0 3 1 3 3l-1 3-3 1-2-1zm18 1 2-4c0-4-6-5-7-1-2 4 2 7 5 5zm-4-1c-1 0-2-2-1-3 0-2 1-3 3-3 4 0 5 4 2 6h-4z" style="fill:#d7d4d0" transform="translate(7 -1) scale(.20104202)"/><path d="M-18 210c-6-2-11-6-14-11l-2-9a278 278 0 0 1 1-22c-2-1-3-2-3-4l5-20c3-11 5-15 9-20l9-6 22-7 5-1-3-4-4-5c-4-4-7-10-9-15v-2l-2-1-5-2c-5-4-7-11-6-17l3-5V41c1-13 6-22 16-28 5-3 10-6 16-7 7-2 9-2 18-2 10 0 14 0 20 2 5 2 8 4 12 8l4 3c7 2 12 10 13 20a125 125 0 0 1 1 22l2 5v9c-1 4-4 7-6 9l-5 2-2 2c-2 7-7 15-13 21l-2 3 4 1c17 4 26 8 32 14 4 4 7 9 10 20l5 20-4 3-1 1a402 402 0 0 1 2 24c-1 8-8 15-16 17a983 983 0 0 1-112 0zm43-27 5-3h18l19-1 1-1 1-1v-14c0-15 0-14-2-16l-1-1H37c-33 0-31 0-32 2l-1 16c0 14 0 14 2 15l5 1 5 1 1 5v3l2-1 6-5zm-4-17a4 4 0 1 1 5-5c1 2 0 4-1 5h-4zm14 0c-3-1-3-5 0-6 2-1 5 1 5 3s0 3-2 3h-3zm13 0-1-3 1-3c3-2 7 2 5 5-1 2-3 2-5 1z" style="fill:#f1dfa9" transform="translate(7 -1) scale(.20104202)"/><path d="M-18 210c-6-2-11-6-14-11l-2-9a278 278 0 0 1 1-22c-2-1-3-2-3-4l5-20c3-11 5-15 9-20l9-6 22-7 5-1-3-4-4-5c-4-4-7-10-9-15v-2l-2-1-5-2c-5-4-7-11-6-17l3-5V41c1-13 6-22 16-28 5-3 10-6 16-7 7-2 9-2 18-2 10 0 14 0 20 2 5 2 8 4 12 8l4 3c7 2 12 10 13 20a125 125 0 0 1 1 22l2 5v9c-1 4-4 7-6 9l-5 2-2 2c-2 7-7 15-13 21l-2 3 4 1c17 4 26 8 32 14 4 4 7 9 10 20l5 20-4 3-1 1a402 402 0 0 1 2 24c-1 8-8 15-16 17a983 983 0 0 1-112 0zm8-7a654 654 0 0 1-3-29 690 690 0 0 0-12-4 173 173 0 0 1-1 14l-1 8c1 5 5 10 10 11h7zm-7-1c-5-1-8-4-9-9l-1-2 1-7 1-13 12 3a354 354 0 0 1 2 29l-6-1zm110 1c5-1 9-5 10-10v-6l-2-17-6 2-6 2v6a7660 7660 0 0 0 0 23h4zm-6-1a298 298 0 0 1 4-29l6-1 4-2v1l2 19-2 7c-3 4-7 6-12 6l-2-1zm-60-20 3-2h18l19-1 1-1 1-15v-14l-1-1-1-1-30-1H7l-3 3v29l2 1 5 1c6 0 6 0 6 6v3l4-2 6-5zm-6-16c-3-1-2-4 0-6 2-1 4 0 5 1 1 2 0 4-1 5h-4zm14 0c-3-1-2-6 1-6 2 0 4 1 4 3 0 3-3 5-5 3zm13 0-1-3c0-3 3-4 6-2 2 2 0 6-3 6l-2-1zm-4-37 7-5c3-2 4-6 4-9v-1l-1 1-10 3H31a35 35 0 0 1-10-4v4c1 5 5 8 10 10l8 2 5-1zm-10 0c-6-1-11-5-12-10l-1-3v-2l2 1c4 3 9 4 15 4s9-1 14-3l3-2v1c0 3-2 7-4 9-4 4-11 6-17 5zm8-18c12-2 24-13 29-28 2-5 2-6 5-6s6-2 7-5v-8c-1-2-3-2-5-1l-1 1-1 2-3-1c-2 0-2-2-2-5 0-4 0-4-3-6-5-3-7-6-10-12l-2 2a47 47 0 0 1-43 4c-2-1-2 0-4 1l-3 6-1 5v4c0 1-1 2-3 2l-3-2c-2-3-6-2-7 2-1 3 1 8 4 10l4 1 3 1 1 3c4 13 14 24 24 29l7 2 7-1zm-8 0c-3 0-9-3-12-5-8-6-14-14-17-24-2-4-2-5-6-5-4-1-7-5-7-9l1-4c1-1 2-2 4-1l2 1c2 2 4 3 5 1 1-1 2-2 2-5 0-5 2-10 5-12l2 1 7 2 9 1c7 0 9-1 13-2a41 41 0 0 0 16-7l1 1c1 4 4 7 8 10 4 2 4 2 4 6l1 5 2 1 4-2c1-2 4-2 5 1 2 3 0 9-3 11l-4 1c-3 0-3 1-4 4-3 9-7 15-13 21a29 29 0 0 1-25 9z" style="fill:#fab576" transform="translate(7 -1) scale(.20104202)"/><path d="M-18 210c-7-2-13-7-15-15l-1-5a167 167 0 0 1 2-22l-4-2c-1-1-1-1 2-14l6-19c2-5 7-9 11-12 5-4 11-6 24-9l7-2-2-4C5 100 1 93-2 86v-2l-2-1-6-3-4-7-1-5 2-8 1-1V38c2-12 7-19 16-25 6-4 14-7 22-8h26c8 1 13 4 18 8l4 4c5 1 9 6 11 13l3 10v16l-1 2 1 1c2 3 3 9 2 13-1 6-6 11-11 11l-2 3c-2 7-7 15-13 21l-2 3 5 1c17 4 25 8 31 14 3 3 6 7 7 12a361 361 0 0 1 8 28l-3 3h-2v1a340 340 0 0 1 1 28c-2 5-6 10-12 12l-59 1h-56zm7-9a3765 3765 0 0 1-2-27l-12-4-2 20c0 4 2 8 5 11l8 2a2300 2300 0 0 0 3-2zm105 2c4-1 7-5 9-9l-1-14v-10l-7 2-6 2a743 743 0 0 0-3 28v1h8zm-70-19 6-4h36l1-1 1-1 1-15-1-15-1-1-1-1H37l-30 1-2 1-1 1v29l2 1 5 1c6 0 6 0 6 6l1 3 6-5zm-3-18c-2-1-2-4 0-6 3-2 7 2 5 5-1 2-4 2-5 1zm14 0c-3-1-3-5 0-6s6 2 5 5c-1 2-4 2-5 1zm13 0-1-3c0-2 1-3 3-3s4 2 4 3c0 3-3 5-6 3zm-4-37c2-1 5-2 6-4 3-2 5-6 5-9v-2l-2 1c-9 5-21 5-30 0l-2-1v5c2 5 7 9 12 10h11zm-1-18c5-1 10-4 16-9 6-6 10-13 13-21 1-3 2-4 4-4 3 0 6-2 7-5l1-7c-1-2-2-3-4-3l-2 1-3 3-2-1c-2-1-2-1-2-4 0-4 0-5-3-7l-4-3a29 29 0 0 1-6-9l-2 2c-4 3-8 4-13 6l-13 1c-7 0-12 0-16-2l-3-1-4 4-2 8v4l-3 2-2-1-2-2-1-1-4 2c-2 2-1 7 1 10 2 2 3 3 6 3 2 1 3 1 4 5 5 14 15 25 26 28 4 2 8 2 13 1z" style="fill:#f36b11" transform="translate(7 -1) scale(.20104202)"/><path d="M-18 210c-7-2-13-7-15-15l-1-5a167 167 0 0 1 2-22l-4-2c-1-1-1-1 2-14l6-19c2-5 7-9 11-12 5-4 11-6 24-9l7-2-2-4C5 100 1 93-2 86v-2l-2-1-6-3-4-7-1-5 2-8 1-1V38c2-12 7-19 16-25 6-4 14-7 22-8h26c8 1 13 4 18 8l4 4c5 1 9 6 11 13l3 10v16l-1 2 1 1c2 3 3 9 2 13-1 6-6 11-11 11l-2 3c-2 7-7 15-13 21l-2 3 5 1c17 4 25 8 31 14 3 3 6 7 7 12a361 361 0 0 1 8 28l-3 3h-2v1a340 340 0 0 1 1 28c-2 5-6 10-12 12l-59 1h-56zm8-7a979 979 0 0 1-3-29l-12-4-2 20c0 6 4 11 9 13h8zm59 0h31v-3a4473 4473 0 0 0 5-46c2-1 4-1 5 1v11l4-1 8-2 3-1v-2l-7-22c-3-9-10-14-24-18l-11-3h-1v1c-1 7-7 13-14 16-3 2-6 2-10 2-7 0-14-2-18-7-3-3-5-6-6-10v-2l-6 2c-13 3-19 5-24 10l-7 11-6 21v1l4 1a950 950 0 0 1 12 3l-1-5v-6c1-2 3-2 5-1l2 7a2950 2950 0 0 0 3 40v2h53zm-36-5-2-1v-11H9c-5 0-9-2-11-6v-34c2-3 4-5 7-6l31-1c33 0 31 0 34 2s4 4 5 7v30c-1 4-5 8-9 8H32l-6 5c-10 7-10 7-12 7h-1zm11-14 6-4h36l1-1 1-1 1-15-1-15-1-1-1-1H37l-30 1-2 1-1 1v29l2 1 5 1c6 0 6 0 6 6l1 3 6-5zm-3-18c-2-1-2-4 0-6 3-2 7 2 5 5-1 2-4 2-5 1zm14 0c-3-1-3-5 0-6s6 2 5 5c-1 2-4 2-5 1zm13 0-1-3c0-2 1-3 3-3s4 2 4 3c0 3-3 5-6 3zm47 36c4-1 7-5 8-10l-1-17v-5l-7 2-6 2v3l-3 25v1h4l5-1zm-52-73c7-2 12-7 12-13v-2l-2 1c-4 2-9 3-15 3s-10 0-14-3l-3-1c-1 2 0 5 1 7 2 4 6 7 11 8h10zm2-18 10-5c7-6 13-14 16-23l2-4 3-2 5-2c4-4 4-13-1-13l-3 2c0 1-1 2-3 2l-2-1-1-1v-3c0-4 0-5-3-7-4-3-7-6-9-10l-1-2-2 2c-9 6-20 8-31 7-5 0-9-1-12-3l-2-1-1 1c-3 2-5 7-5 13 0 4-1 5-3 5l-2-1-2-2-3-1-3 3c-1 3 0 7 2 10l6 2c3 1 3 1 5 6l2 6c6 12 16 20 26 22h12z" style="fill:#90582a" transform="translate(7 -1) scale(.20104202)"/><path d="m-17 210-7-3c-6-4-9-9-10-16l2-23h-1l-2-1c-2-2-2-2-1-7l7-23c3-8 7-14 15-18 4-2 11-5 22-7l7-2-2-2C6 102 1 94-2 86l-1-3c-9-1-14-12-11-21l2-3V39c2-10 5-16 11-22C7 9 20 4 36 4c15 0 25 2 32 8l3 3 2 1c3 1 8 5 10 9 3 6 5 13 5 24v7l-1 2 1 1c4 5 4 12 0 18-2 3-5 6-8 6l-2 1a59 59 0 0 1-14 23l-2 3 5 1c25 6 34 12 39 27l7 26c0 2-1 3-3 4h-2v4l2 23c-2 7-8 12-15 15H-17zm7-8a1642 1642 0 0 1-3-29l-12-3-1 12c-1 9-1 12 1 15 3 4 7 6 12 6h3zm90 1 3-40 2-9c1-1 4-1 5 1v11l15-4a313 313 0 0 0-7-25c-5-10-13-15-33-19h-3l-1 2c-2 9-10 15-21 16-9 1-17-3-22-9l-4-8v-2a334 334 0 0 0-24 7c-5 3-10 8-12 13l-5 19-2 6 3 1a1059 1059 0 0 1 13 3l-1-5v-6c1-2 3-2 5-1l1 1 1 4 3 43v1h84zm-67-5c-2-1-2-2-2-5v-7H8l-4-1c-3-1-5-3-6-5v-2l-1-14 1-17c1-3 3-5 7-7h64l5 5 1 18v14c0 3-3 7-6 8l-2 1H32l-4 3a1004 1004 0 0 0-15 9zm11-13 6-5h36l1-1 1-1 1-15v-14l-1-1-2-1-30-1H7l-3 3v28l3 3h8l1 1 1 4a243 243 0 0 1 0 4l7-4zm-3-19c-3-1-2-4 0-6 3-1 6 2 5 5-1 2-3 2-5 1zm14 0c-2-1-3-3-1-5s4-1 5 1c2 3-1 6-4 4zm14 1c-2-1-3-4-2-6l4-1c2 1 3 3 2 5 0 2-2 2-4 2zm44 36c6-1 10-7 10-13v-7l-1-13a191 191 0 0 0-13 4 2167 2167 0 0 1-3 29h7zm-53-73c5-1 8-3 11-6l4-6c1-4 0-5-1-4l-7 3c-8 3-17 2-24-2l-2-1c-1 2 0 4 1 7l6 6c3 2 7 3 10 3h2zm5-19c7-2 13-7 19-14l8-15 1-3 3-2c3 0 5-1 6-4 4-4 2-11-2-11-1 0-2 0-3 2s-3 2-5 1l-1-1v-3c0-5 0-5-4-7-3-3-7-7-8-10l-1-2-2 2c-4 3-8 4-13 6l-13 1a36 36 0 0 1-19-3l-4 4-2 9-1 4c-2 1-4 1-5-1l-1-1h-4c-3 1-3 6-1 10 2 2 4 4 7 4l3 2 1 3 7 14c6 8 13 13 21 15l7 1 6-1zM-1 53c2-5 6-10 10-12l7 1 4 2 8 1 14-2c5-2 10-4 14-8 2-2 3-2 5-2l3 4c1 5 3 8 7 11 4 2 5 4 6 6l1 2h3v-8c0-9-1-12-2-16-2-5-5-8-10-9l-2-2-7-6c-5-3-9-3-17-4-12-1-24 1-32 6C4 21-1 27-4 34l-1 14-1 8h5z" style="fill:#522700" transform="translate(7 -1) scale(.20104202)"/><path d="M11 210zm-29 0h1c1 0 1 0 0 0h-1zm111 0 2-1-3 1h1zm-113-1c-1 0-1 0 0 0h1-1zm116 0 1-1-1 1zm-119-1-7-7c-1-1-1-1 0 0l1 2 6 5 2 1-2-1zm121 0h2-2zm2-1 2-1 5-5c0-1 0-1 0 0l-6 6h-1zm-117-4-6-3c-2-2-4-5-4-8a216 216 0 0 1 0-9l1 13c2 4 5 6 9 7h7a1374 1374 0 0 0 0-1v2h-3l-4-1zm13 0v-4a3170 3170 0 0 0-5-44c-1-1-2-2-3-1-2 0-2 1-2 4a679 679 0 0 1 2-5l2 1a2239 2239 0 0 0 6 49h84v-1a494 494 0 0 0 3-38c1-10 1-9 3-10h3l1 2a67 67 0 0 1 0 4l-1-5-1-1h-2c-2 0-2 1-2 4a3986 3986 0 0 0-4 45l-42 1H-4Zm94 0h4c3-1 6-4 8-7l1-8-1-18-13 3-1 8a693 693 0 0 1 1-8l13-3a172 172 0 0 1 1 23 14 14 0 0 1-14 11h-3zm-122-4-1-6v1l1 4 1 2-1-1zm139 0 1-1 1-1v-1l-1 3h-1zm-94-1-2-1v-11H5c-3-1-6-4-7-7v-33l5-5c3-2 2-2 33-2l31 1 7 5 1 18v14c0 3-3 7-6 8l-2 1H32l-4 3a814 814 0 0 0-15 9zm6-3 8-5 5-4h17l18-1c4-1 6-3 7-7l1-14-1-18-5-5-32-1H7c-5 1-8 4-9 8v30a11 11 0 0 0 10 8h3v10l3 2c1 0 2 0 5-3zm-1-6 6-5 6-4h36l1-1c2-1 2-1 2-16s0-15-2-16l-1-1H7l-1 1-2 1v30l2 1 5 1h4l1 1 1 1v7-4l-1-4-5-1c-4 0-5 0-7-2v-15c0-16-1-15 2-16l1-1h59l3 3v28l-3 3H30l-1 1a634 634 0 0 0-11 8zm3-23c-3-1-2-5 0-6h3l2 4-2 2h-3zm3 0c2 0 2-2 2-4l-3-2-2 1-1 2 1 3h3zm11 0c-1 0-2-1-2-3l1-2h5c2 1 1 4-1 5h-3zm3 0c3-1 2-6-2-6l-3 3 2 3h3zm10 0c-1-1-2-3 0-5s5-1 6 2l-2 3h-4zm4 0c1-1 2-2 1-3 0-3-4-4-6-1l1 3c1 2 3 2 4 1zm57 29zm-143-5v-1 2-1zm144 0s0-1 0 0zm0-3s0-1 0 0v1-1zm-143 0v-1 1c0 1 0 0 0 0zm0-3v-1 1c0 1 0 0 0 0zm142 0 1-1v1h-1zm0-3v-1 2-1zm-142 0v-1 2-1zm142-4v-3 6-3zm-142 1 1-2c0-1 0-1 0 0v2l-1 1zm1-5v1-1zm140 0v1-1zm-127-1a65 65 0 0 1-5-2 435 435 0 0 0 11 3l-6-1zm-13-1s0-1 0 0v1-1zm140 0c0-1 0-1 0 0v1-1zm-140-1 1-1v1h-1zm140-1v-1 1c0 1 0 0 0 0zm-142-1c-2-1-3-3-2-5v-2 2c0 2 1 4 3 5h1-2zm144-1c2 0 3-1 2-5v-2 2l1 3-3 3c-2 0-2 0 0-1zm-126-1a341 341 0 0 0-13-4l2-8c3-14 5-18 7-21 4-6 9-9 18-12a169 169 0 0 1 13-3c-16 4-23 6-28 11l-6 10-6 23 5 2a120 120 0 0 1 8 2zm106 0a482 482 0 0 1 15-4l-6-23c-3-7-7-11-14-15a100 100 0 0 0-13-5c15 4 22 9 26 17l4 14 3 12a206 206 0 0 1-15 4zm-126-6zm147-2-1-2 1 2v2-2zm-1-4v-1 2-1zm-143-1v-1c0-1 0-1 0 0v1zm142-3-1-2 1 2 1 3-1-3zm-142 1v-1 1zm0-2a22 22 0 0 1 1-3 22 22 0 0 1-1 3zm141-3-1-2 1 2v1-1zm-139-1a22 22 0 0 1 1-4 22 22 0 0 1-1 4zm138-1-1-4-1-4a50 50 0 0 1 2 8zm-137-4 1-2v-1 2l-1 1zm1-4 1-2v1l-1 1zm63 0c-4-1-10-3-13-6l-5-6-2-6 1 1c1 4 2 7 5 10 8 7 21 9 30 4 4-2 7-5 9-8l2-7 1-1-2 7c-3 6-10 10-17 12h-9zm70-2c-1-1-1-1 0 0l1 1-1-1zm-131-1 1-3 10-10-1 1a32 32 0 0 0-10 12zm129-2v-1l1 3-1-2zm-68-1c-8-2-14-8-14-15v-1 2c1 3 2 6 5 9 4 3 8 5 13 5 4 0 8-1 11-4l5-5 1-6h1c0 3-2 7-5 10l-6 4-11 1zm66-2-5-6-2-1 2 1 6 6c1 2 1 2-1 0zm-7-7zm-105-3zm45 0a32 32 0 0 1-12-4l2 1c5 2 9 3 15 3l7-1a35 35 0 0 0 10-3l-6 3c-4 1-11 2-16 1zm53-1h1v1l-1-1zm-3-1-2-1 4 2-2-1zm-6-2h-1l3 1-2-1zm-2 0h1-1zm-74-1h2-2zm70-1h-3l6 1-3-1zm-67 1 2-1-1 1H4zm32-1c-8-1-15-5-21-12-5-5-9-11-11-19-1-3-2-3-4-3l-3-1c-3-1-4-4-5-7-1-4 0-7 3-8 2-1 3 0 4 2 2 1 2 2 4 1 1 0 2-1 2-5 0-3 0-6 2-8l3-4c2-1 2-1 0 0-3 2-5 7-5 13 0 3 0 4-2 4H1l-2-1c-1-2-3-3-5-1-3 2-3 8 1 12 1 1 2 2 5 2l3 2 1 3c4 12 13 22 22 27 11 5 22 4 32-5 6-6 11-14 14-22 1-3 2-4 4-5 3 0 5-1 7-4 2-5 1-10-3-11-1 0-2 0-3 2s-3 2-5 1l-1-5c0-4 0-4-3-6-4-3-7-6-9-11v1l9 10c3 2 3 2 3 6l2 5h1c2 0 2 0 3-2l3-1c2 0 4 2 4 6 0 3-2 7-4 9h-3c-4 1-4 1-5 5s-4 9-6 11c-6 11-16 18-25 19h-5zm-29 0 6-1h-3a838 838 0 0 0-3 1zm60-1h1l-1 1v-1zm-1 0h1-1zm-53-1h1l-1 1v-1zm50 0v1-1zm-49 0h1-1zm47 0h1-1zm2-3c6-6 9-11 14-20v-1 1a64 64 0 0 1-15 21l1-1zm-51 0A56 56 0 0 1 0 88a56 56 0 0 0 14 21l-2-2zm65-21 1-2 1-1c4-1 8-4 10-8l1-1-4 6-6 3-2 1v1l-1 1zm-81-3h1-1zm-3-1-5-5-2-6v2a15 15 0 0 0 8 9l1 1-2-1zm97-9v-2 2zm-105-3v1-1zm106-2-1-3v-1l1 1v5zm-106 0v-1 2-1zm0-2v-1 1zm1-2v-3 3zm104-1-2-4-1-3 1-1-1 2v1l3 6v-1zm-102-4v-3 3l-1 1 1-1zm0-4c0-1 0-1 0 0v1-1zm8 1h2-2zm82 0h2-2zm-84-1v-1 1zm87 0v-1 1zm-82-1 1-1v1h-1zm77-1-4-4-2-2 5 4 2 3-1-1zm12-4v-3a99 99 0 0 1 0 3zm-101 0c0-3 1-4 1-2a78 78 0 0 1-1 2zm13 3zm-6-1s0-1 0 0zm6 0v-1h1l-1 1zm23 0-10-3h1a47 47 0 0 0 44-6l-8 5-11 4H23zM1 50v-1 1zm1-2 4-5v1l-1 1-3 3c-1 0 0 0 0 0zm-8-1v1-1zm74-1-4-6 1 2 3 4 2 1-2-1zm-43-1h1-1s-1 0 0 0zm6 0h1c1 0 0 0 0 0h-1zm-8-1v1c1 0 0 0 0 0v-1zm11 0h1l-1 1v-1zm-40-1v-1 2-1zm27 1h1-1zm15 0h1-1zm45-1v-1 2-1zm-61 1h1-1zm17 0h1-1zm-19-1h1v1l-1-1zm22 0h1l-2 1 1-1zm-52 0v-1 1zm99-2zm-70 2zM7 43l2-1H8l-1 1zm9-1c-1 0-1 0 0 0 0 1 0 1 0 0zm-7-1h2-2zm5 0zm32 0h1-1zm-34 0h1-1zm-24-1v-1 1c0 1 0 0 0 0zm7 0v-1 1c0 1 0 0 0 0zm54 0c1 0 1 0 0 0 0 0-1 1 0 0zm32 0v-1 1zm-17-1v-1 2-1zm-14 0h2v-1l-2 1zm-55-1v1-1zm-7-1 1-2v2l-1 2zm92-1v-2 4-2zm-27 2 1-1s1 0 0 0l-1 1zm10-2v-1l1 2-1-1zm-68 1 1-3-1 2v1zm60-1 4-3v1l-3 1-1 1zm32 0v-1 1zm-1-2v-1 1l1 1-1-1zm-25 0-1-1 3 2-2-1zm-72 0zm7 0v-2h1l-1 2zm83-1c0-1 0-1 0 0s0 1 0 0zm-90 0 3-6A37 37 0 0 1 7 11l-9 7c-4 4-6 7-8 13l-1 2zm96-2-5-10-2-2 1 1a25 25 0 0 1 7 12l-1-1zm-7 0v-2l1 3-1-1zm-81 0 4-6 8-7-2 1c-4 3-7 6-9 10l-1 2zm80-3-3-3-1-1 4 4c1 1 0 1 0 0zm-6-5-1-1 3 2-2-1zm-2-1zm-2 0h1-1zm-1-3h-1 1v1-1zm11 0-2-2h-1l4 2h-1zm-13-1v-1l1 1v1l-1-1zm-54-1h1v-1 1h-1zm53 0-1-1h1v1zm-51-1zm58-2-4-3-1-1 6 5-1-1zm-56 1h1-1zm46 0-1-1 2 1h-1zm-45 0 1-1h1l-1 1h-1zm43-1v-1 1c1 0 1 0 0 0zm-39-1h1-1zm2 0c1 0 0 0 0 0zm2-1h1-1zm30 0h1-1zm-29 0h1-1zm28 0h1-1zm-27 0h1-1zm26 0zm-24-1h1l-1 1v-1zm22 0h1l-1 1v-1zm-20 0h1-1zm18 0h1-1zm-15 0h1-1c-1 0-1 0 0 0zm12 0h1-1zm-7 0h3-3zM8 10h1-1Zm3-1h1-1c-1 0 0 0 0 0zm52 0-1-1 1 1c1 0 0 0 0 0zM13 8l-1 1 1-1zm2 0 1-1c1 0 1 0 0 0-2 1-3 1-1 1zm45 0V7l1 1h-1zm-1-1h1-1zM17 7h1-1zm40 0V6l1 1s1 0 0 0h-1zM19 6h1l-1 1V6zm36 0h-1 2-1zM21 6h1c1 0 1 0 0 0h-1c-1 0-1 0 0 0zm2-1h2c1 0 1 0 0 0h-2zm30 0c1 0 0 1 0 0zm-1 0c-1 0-1 0 0 0zM26 5h1-1zm24 0h1-1zM28 5h1-1zm19 0h2-2zM31 4h2-2zm7 0h-4 13-9z" style="fill:#1b0801" transform="translate(7 -1) scale(.20104202)"/></svg>