<svg xmlns="http://www.w3.org/2000/svg" xml:space="preserve" width="30mm" height="140.3" viewBox="0 0 30 37.1"><path d="M-109 157c-39 0-38 0-45-2-11-2-17-6-19-12v-5l5-35c2-10 6-17 11-24l9-7a149 149 0 0 1 35-13c1 0 1-1-1-2l-9-9a78 78 0 0 1-11-21l-2-2c-8-1-13-8-13-18-1-5 0-8 2-11l1-2v-21c1-10 5-18 12-26 10-9 23-15 40-17h19c10 0 17 2 25 6 9 4 16 11 21 18 6 9 9 20 10 33v3h2c4 0 8 4 10 9v18l-3 5c-3 3-5 3-9 3h-2v1l-3 10c-4 10-10 18-18 24-3 2-3 2-2 4h1l16 4c4 2 11 5 14 8 7 5 13 12 16 22a155 155 0 0 1 8 42c0 6-3 10-9 12-4 2-9 4-16 4l-95 1zm38-38V88h1v-1h-1v32zm44 12v-18 37h-43 43zm8 7zm4 11h-2 2zm2 0h-1 1s1 0 0 0zm2 0c0-1 0-1 0 0-1 0-1 0 0 0zm2-1h-1 1zm3 0 1-1-2 1h-1 2zm5-2 1-1-3 2 2-1zm3-3 1-1-1 1-1 1-1 1h1l1-2zm1-3v1-1zm0-2c0-1 0-1 0 0v1-1zm0-3v1-1zm0-2v1-1zm-1-2v1s0 1 0 0v-1zm0-1c0-1 0 0 0 0zm0-2v1-1zm0-2-1 1h1v-1zm-1-1c0-1 0 0 0 0v1-1zm0-2v1-1zm0-1c0-1 0-1 0 0 0 0 0 1 0 0zm0-2H0l1 1v-1zm-1-1c0-1 0-1 0 0zm0-2v1-1zm0-1v1-1zm-1-2v1-1zm0-1v1-1zm0-1c0-1 0 0 0 0zm-19 0c0-1 0-1 0 0zm-1-1-2-1h1l1 1h1-1zm20-1v1-1zm-24 0h1-1c-1 0-1 0 0 0zm23-1v1-1zm0-1v1-1zm0-2h-1l1 1v-1zm-1-1v1-1zm0-1s0 1 0 0zm-1-2v-1 1l1 1-1-1zm0-3-1-1v2l1 1v-2zm-1-2v1-1zm-2-3-1-2 1 2 1 2-1-2zm-2-4v1-1zm0-1h-1 1zm-1-1h-1v-1 1h1zm-57-1h-2 2zm1 0h-1 1zm55 0-2-1-1-2 1 2 2 1zm-53 0h-1 1zm1-1h-1v1l1-1zm3 0h-1 1zm1-1 1-1-1 1h-1 1zm2-1h-1 1zm42 0-1-1c0-1 0 0 0 0l1 1zm-40-1h-1l-1 1h1l1-1zm2-2 3-2c1-1 1-1 0 0a50 50 0 0 1-3 2zm34 0-2-1 2 1zm-59-7v-6h-6 5v12h-3 4zm-5 6h-1c-1 0 0 0 0 0h1zm-4-1c-7-1-10-3-14-7l-5-8v-1l1 5c2 4 6 8 11 9 2 2 6 3 8 3l-1-1zm66 0-3-1 1 1h2zm-27-2v-1l-1 1v1l1-1zm22 0zm-20-4 1-2-1 2c-1 3-1 3 0 0zm11 1h-1 1c1 0 1 0 0 0zm-2-1h-2 2zm-2 0h-1 1zm-1-1h-1v1l1-1zm-2 0c-1 0 0 0 0 0s1 0 0 0zm-1 0c-1 0-1 0 0 0zm-1 0s0-1 0 0c-1 0-1 0 0 0zm-40-4a15 15 0 0 0-4 0h4zm-5-1h-1 1zm-3 0-2-1 3 1h-1zm-3-1zm26-5h-2V48h20-20v13h4zm-9-63v-20l-2 1a76 76 0 0 1 1-1 1099 1099 0 0 1 1 20zm14 63h-2 2zm-16-1h-3l1 1 2-1zm18 0h-1v1l1-1zm-23 0h-1c-1 0 0 0 0 0h1zm24 0h-1 1zm-26 0-3-1c-6-1-12-3-18-8a56 56 0 0 1-19-26l-1-3a61 61 0 0 0 6 13c7 12 16 20 27 23a36 36 0 0 0 8 2zm27 0s1 0 0 0zm2 0h-1 1zm2-1c1-1 1-1 0 0h-1 1zm3-1h1-2 1zm3-1v-1l-1 1h1zm4-3h-1l-1 1 2-1zm2-1v-1l-1 1h1zm3-3 2-2-2 2-3 2 3-2zm-8-2 2-2-1 1-2 1h1zm12-4c2-1 1 0-1 2v1l1-3zm-10-1-1-1-1-1 1 1 1 3v1-3zm13-3 1-1-1 1a44 44 0 0 1-1 3l1-3zm-15 1h-22v-5h21-21v5h11a547 547 0 0 1 11 0zm17-5v1-1zm-16-1c1-1 1-1 0 0l-1 1 1-1zm17-1-1 1h1v-1zm0-1v-1 2-1zm-16-2c-1-1-1-1 0 0v3-3zm-1-2h-1c-1 0 0 0 0 0l1 1v-1zm-12-1h-11v-45a393 393 0 0 1 1-45h-1v91h11l10-1zm31 0zm0-1zm1-4v1l-1 2 1-1v-2zm0-2v1-1zm-100-1-4-1c-5-1-9-5-10-12 0-1 0-1 0 0l1 3c1 5 4 9 9 9l4 1v1-1zm100 0c0-1 0 0 0 0s0 1 0 0c1 0 1 0 0 0zm1-2c0-1 0 0 0 0v1-1zm0-3v1s0 1 0 0v-1zm-22 0h-1c-1 0 0 0 0 0h1zm-3-1h-1l1 1v-1zm5 0h-1l1 1v-1zm-7 0c-1 0-1 0 0 0h1-1zm8 0zm3-1 2-1h-1l-2 1-1 1 2-1zm-12 1-3-2 3 2zm28-3v2-2zm-32 0-2-2-1-1 1 1 3 3-1-1zm21-2 1-1V7a41 41 0 0 1-3 4l2-2zm-24-2h-1l1 1V7zm36-8c0-2-1-1-1 3l1 3v-6zm-23 8h-1 1s1 0 0 0zm-3 0-4-3V3l1 2 4 2h-1zm5 0h-1 1zm2-1 1-1c1-1 1-1 0 0l-2 1-1 1 2-1zm-18 0c0 1 0 1 0 0zm27 0c0 1 0 1 0 0zm-28-2v1-1zm-78-1V2v3-2zm99 0 1-1-1 1c0 1 0 1 0 0zm-21 0s0 1 0 0zm29 0s0 1 0 0zm1-2-1 1h1V1zm-98 1-2-1 2 1zm3 0 2-3-1 1-2 2h1zm64-2v2-2zm23 1v1-1zm-97-2 1-1s1 0 0 0l-3 3c0 1 0 0 0 0l2-2zm82 0v-1 3-2zm-78 1v-2l-1-1v1h1l1 2h-1zm93-1v1-1zm8 0v1-1zm-31-1c0-1 0 0 0 0v1-1zm-62-3v3-3zm85 3zm8-1-1 1h1v-1zm-103 1s1 0 0 0zm95-1-3-3 1 1 1 2h1zm-14-1-1 1 1-1zm-8 0v1-1zm29 0v-1 2-1zm-29-1c0-1 0 0 0 0v1-1zm9-1h1l-2 2 1-2zm-7-3-2 3 1-1 1-2zm26 2c0-1-1-1 0 0l1 1-1-1zm9-3v3-3zm-100 2c0-1 0 0 0 0v1-1zm75 1h-1c-1 0-1 0 0 0h1zm6 0zm-1 0-1-1v1h1zm-4-1h-1v1l1-1zm2 0h-1c-1 0-1 0 0 0h1zm12 0v-1c-1 0-1 0 0 0v1zm-88-6c1-3 4-5 6-5 1 0 1 0 0 0-2-1-7 4-8 9l1-1 1-3zm67 2h-1l-2 2 3-2zm19 1-5-3 2 1 3 2 1 1-1-1zm12-2c0-1 0 0 0 0v1-1zm-27-1c-1-1-4 1-4 1l2-1h2zm4-1h4c1 0 1 0 0 0h-7c-1 0-1 0 0 0h3zm23-1v1-1zm-75-1zm-6 0h-2 2zm11 0h-2 2zm-14 0h-2 2zm18 0h-3 3zm-21-1h-1l1 1v-1zm86 0c0-1 0-1 0 0 0 0 0 1 0 0 1 0 1 0 0 0zm-88 0-2-1 3 1h-1zm27 0 1-1-2 1h-1 2zm61-2c0-1 0 0 0 0v1-1zm0-2v1-1zm0-1s0 1 0 0zm-1-2v1-1zm0-1v1-1zm0-1v1-1zm-1-2v-1 2-1zm-1-4s0-1 0 0v1-1zm-1-2c0-1 0 0 0 0v1-1zm-1-2c0-1 0-1 0 0zm-1-3zm-5-6-1-1-1-1 1 1 1 1zm-2-3-2-1-2-2 2 2 2 1zm-4-3-1-1c-1 0-1 0 0 0l1 1zm-2-2-3-2c-2-1-2 0 1 1l2 1zm-6-3h-1 1zm-2-1-1-1 1 1c1 0 0 0 0 0zm-2-1h-1 1s1 0 0 0zm-4-1-1-1v1h2-1zm-2-1h-1c-1 0-1 0 0 0h1zm-3-1h-1c-1 0-1 0 0 0l1 1v-1zm-2 0h-1 1z" style="fill:#f0c292" transform="translate(28 12) scale(.16316686)"/><path d="m-143 157-12-2c-10-2-16-6-18-12 0-3 0-11 3-25 2-17 4-25 8-32 2-3 3-5 7-8 6-7 15-12 29-16l13-3v-2l-8-8c-5-6-11-15-13-22v-1l-2-1c-4 0-7-2-9-6-3-3-4-8-4-13s0-8 3-11v-4l-1-16c1-4 2-10 4-13 3-9 10-17 20-23 11-6 27-10 43-10 12 1 21 3 30 7s16 11 21 19c6 8 9 19 10 33v2h2c4 0 7 3 9 7l1 10v10c-1 4-5 7-9 8h-5v2a59 59 0 0 1-24 35l1 1 1 1 5 2c25 5 37 16 43 38a272 272 0 0 1 6 38c-2 9-11 13-29 15h-125zm72-38V88h1v-1h-1v32zm44 12v-18 37h-43 43zm-109 18c-1 0 0 0 0 0s1 0 0 0zm117-11zm4 11h-2 2zm2 0h-1 1s1 0 0 0zm2 0c0-1 0-1 0 0-1 0-1 0 0 0zm2-1h-1 1zm3 0 1-1-2 1h-1 2zm5-2 1-1-3 2 2-1zm3-3 1-1-1 1-1 1-1 1h1l1-2zm1-3v1-1zm0-2c0-1 0-1 0 0v1-1zm0-3v1-1zm0-2v1-1zm-1-2v1s0 1 0 0v-1zm0-1c0-1 0 0 0 0zm0-2v1-1zm0-2-1 1h1v-1zm-1-1c0-1 0 0 0 0v1-1zm0-2v1-1zm0-1c0-1 0-1 0 0 0 0 0 1 0 0zm0-2H0l1 1v-1zm-1-1c0-1 0-1 0 0zm0-2v1-1zm0-1v1-1zm-1-2v1-1zm0-1v1-1zm0-1c0-1 0 0 0 0zm-19 0c0-1 0-1 0 0zm-1-1-2-1h1l1 1h1-1zm20-1v1-1zm-24 0h1-1c-1 0-1 0 0 0zm23-1v1-1zm0-1v1-1zm0-2h-1l1 1v-1zm-1-1v1-1zm0-1s0 1 0 0zm-1-2v-1 1l1 1-1-1zm0-3-1-1v2l1 1v-2zm-1-2v1-1zm-2-3-1-2 1 2 1 2-1-2zm-2-4v1-1zm0-1h-1 1zm-1-1h-1v-1 1h1zm-57-1h-2 2zm1 0h-1 1zm55 0-2-1-1-2 1 2 2 1zm-53 0h-1 1zm1-1h-1v1l1-1zm3 0h-1 1zm1-1 1-1-1 1h-1 1zm2-1h-1 1zm42 0-1-1c0-1 0 0 0 0l1 1zm-40-1h-1l-1 1h1l1-1zm-95-1 1-1-1 1v1-1zm97-1 3-2c1-1 1-1 0 0a50 50 0 0 1-3 2zm34 0-2-1 2 1zm-59-7v-6h-4c-8 0-15-2-24-6-1-1 0 4 2 6 4 8 12 12 24 12h2zm57 5-3-1 1 1h2zm-27-2v-1l-1 1v1l1-1zm-59 0-1-1v1h1zm81 0zm-20-4 1-2-1 2c-1 3-1 3 0 0zm11 1h-1 1c1 0 1 0 0 0zm-2-1h-2 2zm-2 0h-1 1zm-1-1h-1v1l1-1zm-2 0c-1 0 0 0 0 0s1 0 0 0zm-1 0c-1 0-1 0 0 0zm-1 0s0-1 0 0c-1 0-1 0 0 0zm-25-11h-2V48h20-20v13h4zm-9-42v-41l-3 1c-7 3-14 4-23 4-6 0-10 0-13-2h-5l-4 5-1 9-1 5c-1 2-4 2-5 1l-2-3-1-1c-3 0-6 3-6 7-1 3 1 8 2 11 2 2 5 4 9 4l2 1 2 4c2 7 6 14 10 19l11 10c8 5 15 7 27 8h1zm14 42h-2 2zm2-1h-1v1l1-1zm1 0h-1 1zm1 0s1 0 0 0zm2 0h-1 1zm2-1c1-1 1-1 0 0h-1 1zm3-1h1-2 1zm3-1v-1l-1 1h1zm4-3h-1l-1 1 2-1zm2-1v-1l-1 1h1zm3-3 2-2-2 2-3 2 3-2zm-8-2 2-2-1 1-2 1h1zm12-4c2-1 1 0-1 2v1l1-3zm-10-1-1-1-1-1 1 1 1 3v1-3zm13-3 1-1-1 1a44 44 0 0 1-1 3l1-3zm-15 1h-22v-5h21-21v5h11a547 547 0 0 1 11 0zm17-5v1-1zm-16-1c1-1 1-1 0 0l-1 1 1-1zm17-1-1 1h1v-1zm0-1v-1 2-1zm-16-2c-1-1-1-1 0 0v3-3zm-1-2h-1c-1 0 0 0 0 0l1 1v-1zm-12-1h-11v-45a393 393 0 0 1 1-45h-1v91h11l10-1zm31 0zm0-1zm1-4v1l-1 2 1-1v-2zm0-2v1-1zm0-1c0-1 0 0 0 0s0 1 0 0c1 0 1 0 0 0zm1-2c0-1 0 0 0 0v1-1zm0-3v1s0 1 0 0v-1zm-22 0h-1c-1 0 0 0 0 0h1zm-3-1h-1l1 1v-1zm5 0h-1l1 1v-1zm-7 0c-1 0-1 0 0 0h1-1zm8 0zm3-1 2-1h-1l-2 1-1 1 2-1zm-12 1-3-2 3 2zm28-3v2-2zm-32 0-2-2-1-1 1 1 3 3-1-1zm21-2 1-1V7a41 41 0 0 1-3 4l2-2zm-24-2h-1l1 1V7zm36-8c0-2-1-1-1 3l1 3v-6zm-23 8h-1 1s1 0 0 0zm-3 0-4-3V3l1 2 4 2h-1zm5 0h-1 1zm2-1 1-1c1-1 1-1 0 0l-2 1-1 1 2-1zm-18 0c0 1 0 1 0 0zm27 0c0 1 0 1 0 0zm-28-2v1-1zm21-1 1-1-1 1c0 1 0 1 0 0zm-21 0s0 1 0 0zm29 0s0 1 0 0zm1-2-1 1h1V1zm-31-1v2-2zm23 1v1-1zm-15-2v-1 3-2zm15 0v1-1zm8 0v1-1zm-31-1c0-1 0 0 0 0v1-1zm23 0zm8-1-1 1h1v-1zm-8 0-3-3 1 1 1 2h1zm-14-1-1 1 1-1zm-8 0v1-1zm29 0v-1 2-1zm-29-1c0-1 0 0 0 0v1-1zm9-1h1l-2 2 1-2zm-7-3-2 3 1-1 1-2zm26 2c0-1-1-1 0 0l1 1-1-1zm9-3v3-3zm-25 3h-1c-1 0-1 0 0 0h1zm6 0zm-1 0-1-1v1h1zm-4-1h-1v1l1-1zm2 0h-1c-1 0-1 0 0 0h1zm12 0v-1c-1 0-1 0 0 0v1zm-21-4h-1l-2 2 3-2zm19 1-5-3 2 1 3 2 1 1-1-1zm12-2c0-1 0 0 0 0v1-1zm-27-1c-1-1-4 1-4 1l2-1h2zm4-1h4c1 0 1 0 0 0h-7c-1 0-1 0 0 0h3zm23-1v1-1zm-1-2c0-1 0-1 0 0 0 0 0 1 0 0 1 0 1 0 0 0zm0-2c0-1 0 0 0 0v1-1zm0-2v1-1zm0-1s0 1 0 0zm-1-2v1-1zm0-1v1-1zm0-1v1-1zm-1-2v-1 2-1zm-1-4s0-1 0 0v1-1zm-1-2c0-1 0 0 0 0v1-1zm-1-2c0-1 0-1 0 0zm-1-3zm-5-6-1-1-1-1 1 1 1 1zm-2-3-2-1-2-2 2 2 2 1zm-4-3-1-1c-1 0-1 0 0 0l1 1zm-2-2-3-2c-2-1-2 0 1 1l2 1zm-6-3h-1 1zm-2-1-1-1 1 1c1 0 0 0 0 0zm-2-1h-1 1s1 0 0 0zm-4-1-1-1v1h2-1zm-2-1h-1c-1 0-1 0 0 0h1zm-3-1h-1c-1 0-1 0 0 0l1 1v-1zm-2 0h-1 1z" style="fill:#8ab7da" transform="translate(28 12) scale(.16316686)"/><path d="m-143 157-12-2c-10-2-16-6-18-12 0-3 0-11 3-25 2-17 4-25 8-32 2-3 3-5 7-8 6-7 15-12 29-16l13-3v-2l-8-8c-5-6-11-15-13-22v-1l-2-1c-4 0-7-2-10-6-2-4-3-8-3-13s0-8 3-11v-21c1-11 5-20 13-28 6-5 13-9 22-12 10-3 20-5 31-5 12 1 21 3 30 7s16 11 21 18c6 9 9 20 10 34v2h2c4 0 7 3 9 7l1 10v10c-1 4-5 7-9 8h-5v2a59 59 0 0 1-23 35v1l1 1 13 4c13 4 22 10 28 19 5 8 8 17 11 38l2 17c-2 9-11 13-29 15h-125zm116-26v-19c2-3 5-3 7-1v39l3-1c7 0 12-1 16-3l4-4c1-2 0-7-1-16-5-25-7-33-15-41-5-5-14-9-24-12a296 296 0 0 0-9-1l-1 3c-5 7-12 11-22 12h-2v63h44zm-109 18c-1 0 0 0 0 0s1 0 0 0zm-14-67 1-1-1 1v1-1zm72-8v-6h-4c-8 0-15-2-24-6-1-1 0 4 2 6 4 8 12 12 24 12h2zm10 6h-3V69h2c5 0 11-1 15-3l3-1-1 1c-1 6-6 11-13 13h-1 2c7-2 11-7 13-13v-1l-3 1-15 2h-2v12h3zm-39-3-1-1v1h1zm43-16c11-2 20-7 27-15 5-8 8-17 10-29v-30c-1-15-5-25-12-34-7-8-19-14-30-15h-2v91h10l13 1v4c-1 2-1 2-13 2h-10v5h11l12 1c1 2 1 4-1 5l-11 1h-11v13h7zm12-47c-3 0-6-2-8-4-3-3-4-6-4-10 0-7 4-13 11-15 6-1 13 2 16 7s3 10 1 15c-3 5-10 8-16 7zm6-7 4-4v-6l-4-4h-7l-3 3-1 4v3l5 4h6zm-32 12v-41l-3 1c-7 3-14 4-23 4-6 0-10 0-13-2h-5l-4 5-1 9-1 5c-1 2-4 2-5 1l-2-3-1-1c-3 0-6 3-6 7-1 3 1 8 2 11 2 2 5 4 9 4l2 1 2 4c2 7 6 14 10 19l11 10c8 5 15 7 27 8h1zm62-1 1-1 1-9-1-9-3-1-1-1v21h3zm-3-10V-2h3l1 10v9l-4 1V8z" style="fill:#6391bd" transform="translate(28 12) scale(.16316686)"/><path d="m-144 157-14-2c-8-3-13-7-15-12l3-27c2-16 4-22 8-29 4-8 11-14 21-19a119 119 0 0 1 28-9c1 0 1-1-1-2a65 65 0 0 1-20-29v-2l-2-1c-4 0-6-2-9-5-2-3-4-8-4-13-1-5 0-9 3-12v-22c1-10 5-18 12-25 10-11 25-17 45-18 7-1 19 0 26 1 7 2 15 5 21 9 14 11 21 25 23 48v2h2l7 3 3 6v18l-1 2c-2 4-6 6-11 6h-2v1l-3 11a56 56 0 0 1-21 25l1 1v1l2 1 13 3c18 6 28 16 33 34 3 8 6 28 7 37 0 9-5 14-19 16-7 2-4 2-71 2h-65zm117-26c0-20 0-19 2-21l4 1 1 20v19h1l4-1c12-1 18-4 19-9a281 281 0 0 0-9-41c-5-14-15-21-33-26-8-2-7-2-8 0-3 6-9 11-16 13l-9 1v63h44zm-109 18c-1 0 0 0 0 0s1 0 0 0zm-14-67 1-1-1 1v1-1zm72-8v-6h-4c-8 0-15-2-24-6-1-1 0 4 2 6 4 8 12 12 24 12h2zm11 6c6-2 12-5 14-10l2-5-2 1-15 2h-3v12h4zm-40-3-1-1v1h1zm44-16c19-3 32-18 36-41v-37c-2-12-5-22-12-29a46 46 0 0 0-31-16h-1v91h21c3 0 4 4 1 6l-11 1h-11v5h22c2 1 2 4 1 5-1 2-1 2-12 2h-11v13h8zm9-47-6-4c-4-4-5-9-4-14 1-4 5-9 10-10 8-3 16 2 19 10v7c-1 5-6 10-11 11h-8zm7-7 5-5c1-5-2-9-7-10l-6 2c-2 2-2 4-2 6 0 5 5 9 10 7zm-31 12v-41l-3 1c-7 3-14 4-23 4-6 0-10 0-13-2h-5l-4 5-1 9-1 5c-1 2-4 2-5 1l-2-3-1-1c-3 0-6 3-6 7-1 3 1 8 2 11 2 2 5 4 9 4l2 1 2 4c2 7 6 14 10 19l11 10c8 5 15 7 27 8h1zm62-1c2-1 2-1 2-10l-1-9-3-2h-1v21h3z" style="fill:#e67226" transform="translate(28 12) scale(.16316686)"/><path d="m-144 157-14-2c-8-3-13-7-15-12l3-27c2-16 4-22 8-29 4-8 11-14 21-19a119 119 0 0 1 28-9c1 0 1-1-1-2a65 65 0 0 1-20-29v-2l-2-1c-4 0-6-2-9-5-2-3-4-8-4-13-1-5 0-9 3-12v-22c1-10 5-18 12-25 10-11 25-17 45-18 7-1 19 0 26 1 7 2 15 5 21 9 14 11 21 25 23 48v2h2l7 3 3 6v18l-1 2c-2 4-6 6-11 6h-2v1l-3 11a56 56 0 0 1-21 25l1 1v1l2 1 13 3c18 6 28 16 33 34 3 8 6 28 7 37 0 9-5 14-19 16-7 2-4 2-71 2h-65zm66-38V87l-1 1-11-1c-5-2-9-3-13-6l-6-6a31 31 0 0 1-4-9l-12 3c-12 4-20 9-25 14s-8 10-10 18l-6 40c1 3 5 5 12 7l9 1h1v-18l1-20c2-2 5-1 6 1v38h59zm51 12c0-20 0-19 2-21l4 1 1 20v19h1l4-1c12-1 18-4 19-9a281 281 0 0 0-9-41c-5-14-15-21-33-26-8-2-7-2-8 0-3 6-9 11-16 13l-9 1v63h44zm-51-57v-6h-4a60 60 0 0 1-25-6l2 5c4 9 13 13 24 13h3zm11 6c6-2 12-5 14-10l2-5-2 1-15 2h-3v12h4zm4-19c19-3 32-18 36-41v-37c-2-12-5-22-12-29a46 46 0 0 0-31-16h-1v91h21c3 0 4 4 1 6l-11 1h-11v5h22c2 1 2 4 1 5-1 2-1 2-12 2h-11v13h8zm9-47-6-4c-4-4-5-9-4-14 1-4 5-9 10-10 8-3 16 2 19 10v7c-1 5-6 10-11 11h-8zm7-7 5-5c1-5-2-9-7-10l-6 2c-2 2-2 4-2 6 0 5 5 9 10 7zm-31 12a4057 4057 0 0 0-2-41c-8 4-15 5-24 5a41 41 0 0 1-16-2l-4 2c-2 3-3 6-3 12l-2 6-2 1c-2 0-4-2-4-4l-1-1c-3 1-5 2-5 4-2 5 0 13 4 16l6 2 2 1 2 4c4 13 13 25 24 31 7 4 14 6 23 6h2zm62-1c2-1 2-1 2-10l-1-9-3-2h-1v21h3zm-123-41h-1l1 1v-1zm35-1h-1 1zm-7-1zm14 0s1 0 0 0zm-42 0c0-1 0-1 0 0zm27 0h-1 1zm-1 0a44 44 0 0 1-1-1v1h1zm-19-17-1-1v1h1zm1-2-1 1 1-1zm1-1v-1l-1 1v1l1-1zm2-2 1-1-2 1h1zm2-3h1-1v1-1zm2-1h-1 1zm1-1-1 1 1-1zm5-3h-1 1zm20-7h-1 1zm20 0v-1l-1 1h1zm-19 0s1 0 0 0zm2 0zm3-1h-1v1l1-1zm2 0h-1 1s1 0 0 0zm9 0z" style="fill:#80502d" transform="translate(28 12) scale(.16316686)"/><path d="m-143 157-7-1c-13-2-20-5-22-12l-1-5 6-39c4-18 13-27 32-35a154 154 0 0 1 23-7l-2-1a63 63 0 0 1-19-29l-1-2-2-1c-2 0-5-1-7-3l-3-3c-2-3-3-6-3-11-1-6 0-9 3-12v-5l-1-15c2-11 6-20 13-28 9-10 23-16 42-18h21c11 1 19 4 27 10 10 6 17 15 21 26l4 22v2h3c5 2 8 5 9 9v18c-1 3-3 6-6 7l-7 1h-1v2c-1 6-5 14-9 20-3 6-7 10-12 14l-3 1v1l1 1 1 1 7 1c23 6 35 17 41 38l6 32c0 7 0 9-3 12-5 5-13 8-27 9h-124zm65-38V87h-3c-8 0-16-2-21-5l-7-8a33 33 0 0 1-4-8l-13 3-19 9c-8 5-12 12-15 23l-5 36-1 4 1 1c1 2 2 3 5 4s9 3 14 3h2v-37c2-3 6-3 7 0v38h59zm51 12v-19c1-2 4-3 5-2 2 2 2 1 2 21v19l3-1c9 0 16-2 19-5l2-4-4-25c-3-16-6-23-13-30-6-6-14-10-28-13l-4-1-1 1c-1 3-5 7-8 10-4 3-9 4-16 5h-1v63h44zm-51-57v-6h-3a60 60 0 0 1-25-6l1 6c4 8 13 12 24 12h3zm14 5c5-2 9-5 11-9l2-5h-2c-4 2-10 3-15 3h-3v12h2l5-1zm3-19c13-2 23-10 29-22 3-7 5-15 5-25v-27c-1-12-3-19-8-26a46 46 0 0 0-35-22h-1v91h22l1 1v4c-1 2 0 2-12 2h-11v5h10c12 0 12 0 13 2 1 1 1 3-1 4l-11 1h-11v13h4l6-1zm7-46c-3-1-7-4-9-8-3-6-2-12 3-17 6-5 15-5 21 1 3 3 4 6 4 10 0 6-4 11-9 13-3 1-7 2-10 1zm8-7c3-2 5-6 4-10-1-2-3-4-5-4-3-1-6-1-8 1l-2 5v4l5 4h6zm-32 12v-42l-3 1c-4 2-8 4-13 4-8 2-18 1-24-1h-3l-4 5c-2 2-2 4-3 10v5h-5c-1 0-2-1-2-3l-1-1c-3 1-5 3-6 5-1 3 0 8 2 11 2 4 4 6 8 6l3 1 1 1 4 10c3 7 9 15 14 19 8 7 18 11 30 11h2zm62-2 2-1V7l-1-8-3-2h-1v21h1l2-1zM-136-9h1l2-7c3-6 7-10 13-11 2-1 4-1 5 1 1 1 4 2 9 2 9 0 17-2 26-6h2v-33h-5c-16 0-30 4-40 11a38 38 0 0 0-17 26l1 15v2h3z" style="fill:#46230f" transform="translate(28 12) scale(.16316686)"/><path d="M-142 157c-17-1-27-6-30-13v-16l4-23c4-21 12-31 31-39a147 147 0 0 1 25-8l-2-2c-8-6-16-17-19-28l-1-2-2-1c-6 0-11-5-12-13-2-5-1-11 0-14l1-2 1-2v-2c-1-9-1-19 1-25l3-8c7-14 21-24 40-28 15-3 32-2 45 2 11 4 21 11 27 20 5 8 8 17 10 29l1 6v2h3c4 1 7 4 8 8l1 9v9l-4 7c-2 1-3 2-7 2l-3 1v2l-5 12c-4 9-9 15-17 21-2 1-2 1-1 3l2 1c13 2 23 6 30 12 8 6 13 14 16 25 3 9 6 26 7 36 0 5-1 8-4 11-5 4-13 7-26 8h-123zm128-1c11-2 15-3 20-6l1-2h1l2-8a119 119 0 0 0-2-17 235 235 0 0 0-5-23c-1-5-5-12-7-15a43 43 0 0 0-13-11v1h1l1 1v-1 1h1l1 1 1 1 2 2h1l1 1s0 1 0 0l-1 1h2l1 2 2 2v1h1c-1 0 0 0 0 0v1l1 1 1 2 1 1v2c1 0 1 0 0 0v1c1 0 1 0 0 0h1l1 3v1c1 0 1 0 0 0l1 1v1l1 5 1 1v1c-1-1-1 0 0 0l-1 1 1 1v-1 1l1 4 1 2v2l1 3a45 45 0 0 1 1 9v5l1 1v2c-1 0-1 0 0 0v1l-1 5c0-1 0 0 0 0s-1 0 0 0l-1 3-1 1H6l-2 2-1 1c0-1 0-1 0 0H2l-3 2-6 1-2 1h-5l-3 1a232 232 0 0 1-24 0 945 945 0 0 1-93 0 41 41 0 0 1-11 0c1 0 1 0 0 0h-1v-1h-1c-1 0-1 0 0 0v1-1h-3l-1-1h-1v1l-1-1h-5l-1-1v-1 1h-1c-1 0 0 0 0 0v-1a1783 1783 0 0 0-6-2l-1-1-1-1-1-1-1-1v1-1c-1 0-1 0 0 0h-1v-2l-1-3h1l-1-1v-1c1 0 1 0 0 0v-5l1-3a51 51 0 0 1 1-9l1-2v-5l1-5v-1l1-4 1-4v-3l1-1v-2l1-1v-2l1-2 1-1v-2h1v-1l1-1v-1h1c0-1 0-1 0 0v-1l1-1 1-1v-1l1-1 2-1v-1h1l1-1v-1h2-1c0-1 1-1 0 0h1v-1h1v-1 1l1-1 1-1h1l2-2 3-1h1v-1l2-1h3s0-1 0 0l-1-1 4-1h1l5-2h1l6-2h2c0-1 0-1 0 0h1c-1-1 0-1 3-2h1l-5 1a137 137 0 0 0-32 13c-6 4-10 8-13 15-3 5-4 10-6 20l-4 32v3l1 2c2 5 7 8 17 10l41 1h99zm3-1c1 0 0 0 0 0zm-142 0zm-15-6c1 0 1 0 0 0zm-2-26v-1 1zM-6 84c0-1 0-1 0 0h1-1zm-130-17c0-1 0 0 0 0zm28 89v-1 1zm4-1h-1l1 1v-1zm3 1v-1l-1 1h1zm8 0v-1 1zm4-1v1-1zm-59 0v-1c1 0 0 0 0 0h-1l-1 1h2zm136 0h-1v-1 1h1zm-2-1v1-1zm-95 0c1 0 0 0 0 0 0 1 0 1 0 0zm3 0-1-1v1h1zm19 0-1-1v-1 1l1 1zm5-1-1 1 1-1zm-47 1v-1 1zm9 0v-1 1zm2 0v-1h-1l1 1zm6-1c1 0 1 0 0 0v1-1zm-19 0v1-1zm30 0h-1 1zm-2 0h-1 1zm13 0zm-25 0-1-1v1h1zm10 0v-1 1c1 0 1 0 0 0zm2-1-1-1h1-1l1 2v-1zm6-1c-1 0-1 0 0 0v1-1zm-9 0h-1 1zm-10 0h-1 1zm6 0c1 0 1 0 0 0zm21 0a15 15 0 0 1 6 0l2-1h3a1377 1377 0 0 0-11 1zm40-1h-22V87l-1 27a48325 48325 0 0 1 1 36v1h22l22-1zm23-18zm13 18h-5 5zm-139-1h1a38 38 0 0 0 4 1c-9-2-15-3-17-6l-2-2v1c0 1 0 1 0 0l2 1 1 2h1l1 1h1v1h1c0-1 0-1 0 0a161 161 0 0 0 4 1l1 1v-1h1v1h1c-1 0 0 0 0 0v-1zm8 1h-2 2zm-19-1-1 1h1v-1zm26-18v-19l-1-1-2-1c-2 0-3 1-3 2l-1 19 1 19v-19a457 457 0 0 1 2-20h2v1c1 0 1 0 0 0v-1l1 1v37l1 1v-19zm59-12V87h-5c-6 0-11-1-16-4a28 28 0 0 1-14-17 130 130 0 0 0-31 12c-8 5-13 12-16 23-2 6-6 35-6 39 0 3 4 6 11 8l10 1h1v-37l1-1c1-2 5-2 6 1v38h59zm0-16zm51 28 1-19 3-2 3 2v38l3-1c9 0 16-2 19-5 2-2 2-3 1-10-2-15-5-30-8-36-4-12-12-19-28-24l-12-3-1 2-4 6-7 5c-4 2-6 2-13 3h-1v63h44zm19 18h-3l-1 1 4-1zm-12-27v18-18zm-121 26v1-1zm136 0h-1l-1 1 2-1zm2 0h-1 1zm1-1h-1 1zm2-1h-1v1l1-1zm-73 0-1-1v1h1zm-90 0-1-1v1h1zm164-1c1 0 1 0 0 0 0 1 0 1 0 0zm2-1v-1 1H2h1zm1-2c0-1 0-1 0 0v1-1zm-170-1zm170-2v-2 4-2zm-171 1v1-1zm170-8-1-7a85 85 0 0 0 2 11c0 1 0 1 0 0l-1-4zm-29-4v1-1zm-143-4h-1 1zm170-4zm6 0H6h1zm-28-8c0-1-1-2-3-2l-1 1h4v1zm-118-1h-1v1h1v-1zm114 0h-1 1zm24-2v1-1zm-1-3a96 96 0 0 1-1-6l-1-2-1-2 1 2a95 95 0 0 1 2 8zm-157-9zm-4 9v1-1zm-2-7v-1l-1 1h1zm159-4v-1c0-1 0-1 0 0v1c1 1 1 0 0 0zm0-2-1-1v-1 1l1 1zm-157 0v-1 1zm6-2v-1 2l-1 1 1-2zm-1 1h-1 1zm150-2-1-1v1h1zm-146-3c1-3 5-7 8-9l14-7a156 156 0 0 1-14 7l-2 1-1 2-2 1c0-1 0-1 0 0v1l-1-1v1s0 1 0 0l-1 2-3 4 2-2zm145 1-1-1v1h1zm-69-1h-4a54 54 0 0 1-10-2h-3l10 2h7zm8 0c0-1 0-1 0 0h-1 1zm5-1 3-1s-1 0 0 0l-6 1v1l3-1zm-27-1-1-1v1h1zm33-1 6-4v1l-2 1a37 37 0 0 1-6 3l2-1zm-37 0h1c0-1 0-1 0 0l-3-1-1-1-3-2h-1l-1-1v-1 1l-1-1-1-2-2-1v-1l-2-3-2-4-1-2 2 6a28 28 0 0 0 15 13zm5 0s0-1 0 0zm77-1-4-3 1 2 3 2h1l-1-1zm-143-1c-1 0-1 0 0 0zm73 0zm2 0c-1 0-1 0 0 0zm-1 0zm-1-1-1 1 1-1zm6 0V68l-4-1-15-2-2-1v-1c-1 1-5-1-5-1l-1-1h-2v4l1 2v2h1l2 3 4 4 2 1 3 1 1 1 2 1a38 38 0 0 0 8 1l-15-5-6-6-1-1-1-2-1-6 2 1c8 4 17 6 25 6h2v13h-4 4zm11-1 3-1h2l1-1c1 0 1 0 0 0l-8 2-1 1 3-1zm-11-6v-6h-3c-9-1-17-2-23-6l-3-1v1l3 7 6 7c4 3 10 4 17 4h3zm10 6c5-1 12-4 15-9l2-6-2 1-14 2h-4v6a4359 4359 0 0 1 1 6h2zm21-6c1-2 1-2 0 0l-1 1c-1 0-1 0 0 0l-2 3-3 2 6-6zm28 6-1-1-1-1h-1a63 63 0 0 0 3 2zm-52-9-1 3 1 3v-6zm61 8h-1l1 1v-1zm-12-1-1-1a1385 1385 0 0 1 1 1zm-36-1 2-2-1 1-2 2 1-1zm27-3 1 1-1-1zm14 0a59 59 0 0 0-15-6l-11-3h-2v-2l1-2 7-5 1-2 1-1 6-8a67 67 0 0 0 7-19l-1 6-1 2h-1v3a15 15 0 0 1-2 4l-1 2-1 1-2 3v1l-1 1-1 1v1l-1-1v1l-1 2h-1v1l-1 1h-1v1l-2 1v1l-1 1-3 2-1 1-1 1 1 1v1a364 364 0 0 0 12 3 77 77 0 0 0 2 1h3l1 1 2 1h1l1 1h3l1 1 1 1h1zm-37-1h-1v1l1-1zm21 1-1-1v1h1c1 0 0 0 0 0zm-2-1h-1 1c1 0 1 0 0 0zm-2 0v-1 1h1-1zm-2-1s-1 0 0 0h1-1zm-13-2-1 1v1-1l1-1zm6 1v1-1zm6 1h-1 1zm-3-1h-2 3-1zm-97-2h-1 1zm11 0h-1 1zm60-1h-2 2zm9-1c2 0 2 0 1-1l-1 1h-6l-1 1 7-1zm9 0c0-1 0-1 0 0v1-1zm-86 0v1-1zm80-1c1 0 1 0 0 0h-1 1zm-32 0h-1 1zm2 0zm-4 0v-1 1zm36 0h-1 1zm4-1v1-1zm-79 0v-1 1s-1 0 0 0zm78 0 1-1-2 1h-1 2zm-71-2zm31-1v1-1zm23 0h-2v-7l-1-7v7l1 7h4zm-9-1h-7 7zm15 0h-1l-2 1 3-1zm-3 0c5 0 10-2 15-4 11-5 20-17 23-32l2-26-2-21c-2-15-10-27-22-34a51 51 0 0 0-21-6v91h11l11 1c2 1 2 2 1 4l-12 2h-11v5h22c1 1 2 3 1 5s0 2-12 2h-11v6a518 518 0 0 0 2 7h3zm12-47-6-4c-7-7-5-18 3-23A15 15 0 0 1-35 1c0 6-5 11-11 13h-8zm6 0h-2l-4-1h-1l3 1h4zm1 0h-1 1zm1-1v1-1zm3-1 2-1c1 0 1 0 0 0h-1l-2 2h-1l2-1zm-14 0-2-1c0-1 0-1 0 0l3 2-1-1zm20-5V6l-2 3c-1 0-1 0 0 0l-1 1 1-1 2-2zm-22 3-2-3h-1c0-1 0 0 0 0l3 3zm12-2c1 0 0 0 0 0h-4 4zm-5-1h-1l1 1V7zm6 0 4-4c1-2 0-5-1-7-1-1-2-3-4-3h-6c-5 2-6 7-3 12 2 2 7 3 10 2zm1 0 4-5v-4l-1-1-1-2c3 4 2 9-3 12h1zm-8 0-3-2 3 2zm18-5-1-6c0-1 0-1 0 0v9l1-3zm-28 2v-9l2-4 2-1c0 1 0 1 0 0v-1l9-3h4c1 0 1 0 0 0h-7c-7 2-11 7-11 14l1 5V4zm6-1v-7c0-1 0-1 0 0-2 2-1 6 0 8V3zm20-10-3-4v1l2 2 1 1v1l1 1-1-2zm-19 1c1 0 1 0 0 0v1-1zm12-1h-1 1zm-8-1-2 1 1-1h1zm5 0h-1 1c1 0 1 0 0 0zm-4 0h-1 1zm2-1h-1l1 1v-1zm7-4-2-1-1 1h3zm-7-1c1 0 0 0 0 0v1-1zm-37 75a78 78 0 0 1-8-1h1l3 1a29 29 0 0 0 4 0zm27 0 7-3-3 1a47 47 0 0 1-6 2h2zm-19-42v-42l-2 1a52 52 0 0 1-25 5c-6 0-9 0-13-2h-3l-6 8-1 9v2c-1 2-3 2-5 1l-2-3-1-1c-3 1-5 3-6 5-1 4 1 11 3 14 2 2 4 3 7 3l3 1 2 3c4 13 12 24 21 30 7 5 16 8 26 8h2zm1 0zm-34 40h-1 1zm16 0-2-1a48 48 0 0 1-19-13l1 1c-1 0-1 0 0 0l3 4 2 1v1h1l1 1 2 1v1h2v1h1l2 1 2 1h1l1 1h2zm45-1 2-2h1l1-1h-1a57 57 0 0 1-3 3zm-62-1h-1l-1-1-1-1-1-2h-1c0 1 0 1 0 0v-1l-2-1v-1l-2-2s-1 0 0 0h-1v-2h-1v-1l-1-1-1-2-2-3s0-1 0 0l-2-3v-1c-1 0-1 0 0 0h-1l-1-4v-1h-1v1-3l-1-1-1-2 4 10c4 9 10 16 16 21l2 1zm69-4h-1l-1 1 2-1zm1-1 1-1-1 1h-1 1zm2-3c1 0 1 0 0 0v1-1zm-11-1zm14-1h-1c0 1 0 1 0 0h1zm-12 0c0-1 0-1 0 0h-1c-1 0-1 0 0 0h1zm-10-1v1-1zm11-2v1-1zm12 1h-1 1zm-80-1-1-1h-1l1 1h1zm82-1v-1l-1 2 1-1zm-15-1-1-1h-10c-6 0-10 0-8 1h19l1 1-1-1zm-69 0c-4-5-8-13-10-19l-1-3h-3 1l2 1v3h1l1 2v2l1 1s0 1 0 0v2h1v1l2 2h-1v1a18 18 0 0 1 4 4l1 2 1 2v-1zm-8-13c0-1 0-1 0 0zm59 13zm10 0h-1c-1 0 0 0 0 0h1zm-14-3c0-3-1-4-1-1l1 3v-2zm38 1c0-1 0 0 0 0l-1 1h1v-1zm-92 1h-1 1zm93-3c0-1 0-1 0 0s0 1 0 0zm1-2v-1l-1 2 1-1zm-18-2 1-2-1-2v-1h-22v-92l-1 46v46h11l12 1 1 2-1 2v1h-22 21zm-80 0h-1 1zm99-2v2-2zm1-2 1-2-1 2v2-2zm1-4c0-1 0-1 0 0v1-1zm-107-1h-1l-1-1h-1v-1h-1l-3-1v-1c-1 0-3-1-2-2h-1c1 0 1 0 0 0v-1l-1-1v-1h-1v-1h1-1v-1s0-1 0 0v-1l-1-5V0l1-1v-1s0-1 0 0l1-1v-1s1 0 0 0h2v-1c-1 0-1 0 0 0h-1v-1c1 0 1 0 0 0l-1-7a117 117 0 0 1 1-17h1l-1-1 1-1v-1c0 1 0 1 0 0l1-3 1-1v-2l2-2c0 1 0 1 0 0h-1l1-1h-1l-1 2c-3 6-4 13-4 21a60 60 0 0 0 1 12l-1 3c-2 3-3 7-3 13 1 8 5 13 11 15l3 1zm107-1v1-1zm14 0 4-3 2-2V9L-9-4c-1-3-5-5-8-5-3-1-3 0-3-3a65 65 0 0 0-2-11l1 4a143 143 0 0 0 2 10c-1 0-1 0 0 0h3l3 2h1l1 1v1l1 1h1l1 4v4a67 67 0 0 1 0 12l-1 2v2h-1v1l-1 1v-1l-1 1c1 0 0 1 0 0h-1l1 1h-1l-1 1h-1v-1 1l-1-1v1h-4l-1 1 7-1zm-13-1v1-1zm0-4 1-2-1 2v3-3zm15 3v-1 1zm-122-1h-1 1zm0-2c-4-1-6-4-8-8V1c0-1 0-1 0 0l-1 3v3l2 6 3 5h1l4 2-1-1zm118 0h-1 1zm-122-1s-1 0 0 0v1-1zM-20 3v10V3zm4 15c2-2 2-2 2-10l-1-8c0-2-2-3-3-3h-1v21h3zm2-1h-1v1l1-1zm-126-1c-1 0-1 0 0 0 0 1 0 1 0 0zm114-1v1s0 1 0 0v-1zm12-11v8-8zm-127 10h-1 1c0 1 0 1 0 0zm115-3v2-2zm0-13v8-8zm-103 3 1-5 1-8 1-3 1-1-1 1-1 1v1l-1 5v1h-1l1 3-1 2v2-1c0-1 0-1 0 0l-1 2c-2 1-4 0-4-3v-1h-1l1-1-1 1 1 1 1 3h4zm-3-1h-1 1zm-6-3h3-2c-2 0-4 2-4 3l1-1 2-2zm123 2v-1c-1-1-1 0 0 0v1zm-118 0h-1 1zm0-1-1-1 1 1zm-7-1zm124 0h-3 3zm-10-7v3-3zm-105 3h-1 1zm-7-1h-1 1zm4 0h-3 3zm0-3c2-9 7-15 15-16 2-1 3 0 4 1l3 1h16c5 0 11-2 16-4l2-1v-33h-2c-3-1-11 0-16 1-14 2-25 7-33 15-6 7-10 14-11 23l1 13v2h4zm1 2h-1v-2l1-2-1 2v2h1zm-7-3a42 42 0 0 1 0-6v9-3zm10 2zm109-1zm-5-3a134 134 0 0 0-2-14c1 1 1 0 0 0 0 1 0 1 0 0h-1l1 3a98 98 0 0 1 2 11zm-49 2v-1 1zm54-1c0-1 0-1 0 0zm-111-2v-2 1l-1 2c0 1 0 1 0 0l1-1zm56 1v1-1zm-45-5h4l13 2a49 49 0 0 0 24-6l-2 1h-1c1 1-1 1-3 2v-1l-1 1-9 2h-3a15715 15715 0 0 1-18-1l-1-1-1-1c0-1 0-1 0 0h-1c-1 1 0 1 0 0v1h-1l-1 1h-1l-1 1-1 1 2-1 2-1zm1-1h1c1 0 0 0 0 0h-1zm-8 2-1 1h1v-1zm-2-1v-1h1-1l-1 1v1l1-1zm22 1v-1h-1v1h1zm1-1zm-33-7v-1 8-7zm49 7v-1l-1 1h1zm-18 0-1-1 1 1zm10-1v1-1zm-9 0h-1c0-1 0-1 0 0 0 0 1 0 0 0h1zm3 0v-1h-1v1h1zm16-1h-1 1zm4 0h-1v-1h-1l1 1h1zm-42 0v-1l1-2h1l-4 3h2zm-1-1h1-1zm27 0v1-1zm17 1v-1 1c-1 0 0 0 0 0zm-32-1c-1 0 0 0 0 0h-1 1zm4 0v1-1zm7 0h-1v1l1-1zm14 0h-1c0 1 0 1 0 0h1zm-29 0h-1 1zm6 0h-1 1zm10 0v-1 1zm-16-1zm16 0h-3 6zm16 0zm-20-1h-1c-1 0 0 0 0 0h1zm9 0h-1 1s1 0 0 0zm-11 0h-1 1zm13 0c-1 0-1 0 0 0 0 0 1 0 0 0zm75-3a59 59 0 0 0-10-22v2h1v1h1l1 2c-1 0 0 0 0 0v1c-1 0-1 0 0 0h1v1l1 1v2h1l1 2v2c0-1 0 0 0 0v1-1l1 1v2l1 3v1s0 1 0 0l1 3 1 1-1-3zm-1-2zm-90 5-2-2-1-1 1 2 2 1h2zm19 0h-2 2zm2-1h-1 1zm-31-1-1 1 1-1zm33 1h-2 2zm-31-1h1v-1h2l-4 1c-1 0-1 0 0 0h1zm36 0h-1 1zm0-1 2-1-3 1-2 1 3-1zm57 0v1-1zm-89 0zm-22-4-1 3 1-1v-2zm57 3h-1 1zm53-2v-1 3-2zm-50 1 1-1-3 1h2zm1-18v-17 17zm-60 12v1c0-1 0 0 0 0v1l-1 2 1-2v-2zm108 3zm-1-2v-2l-1-2-2-3 1 2a65 65 0 0 1 2 5zm-105-4v-1l-1 2v2-1l1-2zm-2-1s-1 0 0 0zm5-4a53 53 0 0 1 7-8l-5 6-2 1c0 1 0 1 0 0l-1 2v1l1-2zm98 1-1-2 1 1v1zm-105-1 2-2v-1l1-1v-1h1v-1l2-2h1v-1h1c-1-1 1-2 1-2l1-1h1v-1h1l1-1 4-2v-1c1 0 1 0 0 0h2c-1-1 1-2 2-2h2v-1h1l2-1h2v-1h1l2-1h2l1-1h1l5-1h3l2-1v1h2c-1 0-1 0 0 0v-1c-1 0-1 0 0 0h1l11-1a123 123 0 0 1 12 1l1 1h6l2 1h1l1 1c0-1 0-1 0 0h1l2 1h2v1c0-1 0 0 0 0h1l-2-1c-9-4-16-5-29-5l-12 1a77 77 0 0 0-34 12l-10 12-1 2zm27-21v-1 1zm77 19h-1 1zm-1-1h-1 1zm-99-1c0-1 0-1 0 0h-1 1zm97-1h-1 1zm-2-2c-1-1-2-1 0 0l1 1-1-1zm9 1a72 72 0 0 0-7-7l1 1 1 1c-1 1-1 1 0 0v1h1v1c1-1 2 0 2 1v1l1 1h1zm-11-2v-1h-1 1v1zm8-1h-1v1l1-1zm-9-1h-1 1zm-79 0v1-1zm2-1h-1l-1 1 1-1h1zm75 0-1-1 1 1c1 1 1 1 0 0zm-72-2-1 1h-1 1l1-1zm70 1-1-1-1-1h-1a52 52 0 0 1 3 2zm-68-2-2 1h1l1-1zm65 0-4-2 2 1 2 1zm10-1h-1v-1h-1a78 78 0 0 0-7-4l1 1h1l3 2h1v1l2 1 1 1v-1zm-84 0c0 1 0 1 0 0zm11 0s1 0 0 0l-1 1 1-1zm2 0v-1l-1 1h1zm1-1h-1 1zm56 0-2-1h1l1 1zm-53-1zm50 0-1-1v1h1zm-2-1-3-1 1 1h2zm-57-1zm7 0h-1 1zm46 0-3-1a201 201 0 0 1 3 1zm-31-1h1-2c-1 0-2 0 0 0h1zm3 0h-1c-1 0 0 0 0 0h1zm3-1h-2l1 1 1-1zm-12 0zm6 0h-1 1zm3 0h-1 1zm13 0h-9 9zm-12 0v-1l-1 1h1zm-1-1c1-1 1-1 0 0zm-14-1h-1 1zm1 0h-1c0-1 0 0 0 0h1zm17 0c-1 0 0 0 0 0zm-6 0v-1 1zm-10-1c0 1 0 1 0 0zm33-2h-1s0 1 0 0h1zm1 0v1-1z" style="fill:#371a09" transform="translate(28 12) scale(.16316686)"/></svg>