<?xml version="1.0" encoding="UTF-8" standalone="no"?>
<!-- Created with Inkscape (http://www.inkscape.org/) -->

<svg
   width="66.361702mm"
   height="87.852165mm"
   viewBox="0 0 66.361702 87.852165"
   version="1.1"
   id="svg1"
   xml:space="preserve"
   inkscape:version="1.4 (86a8ad7, 2024-10-11)"
   sodipodi:docname="explorador-icono2.svg"
   xmlns:inkscape="http://www.inkscape.org/namespaces/inkscape"
   xmlns:sodipodi="http://sodipodi.sourceforge.net/DTD/sodipodi-0.dtd"
   xmlns="http://www.w3.org/2000/svg"
   xmlns:svg="http://www.w3.org/2000/svg"><sodipodi:namedview
     id="namedview1"
     pagecolor="#ffffff"
     bordercolor="#000000"
     borderopacity="0.25"
     inkscape:showpageshadow="2"
     inkscape:pageopacity="0.0"
     inkscape:pagecheckerboard="0"
     inkscape:deskcolor="#d1d1d1"
     inkscape:document-units="mm"
     inkscape:zoom="1.0396254"
     inkscape:cx="120.23561"
     inkscape:cy="254.8995"
     inkscape:window-width="1278"
     inkscape:window-height="1360"
     inkscape:window-x="-7"
     inkscape:window-y="0"
     inkscape:window-maximized="0"
     inkscape:current-layer="layer1" /><defs
     id="defs1" /><g
     inkscape:label="Capa 1"
     inkscape:groupmode="layer"
     id="layer1"
     transform="translate(-32.260828,-60.903734)"><g
       id="g1"
       transform="translate(-30.030848,-37.920309)"><path
         style="fill:#c6c5c3"
         d="m 70.361468,186.29911 c -1.961005,-0.49777 -3.095533,-1.04497 -4.227809,-2.03912 -1.221715,-1.07268 -2.429356,-3.51246 -2.654908,-5.36369 -0.143219,-1.17547 0.461329,-8.00298 0.813029,-9.18198 0.0888,-0.29768 -0.185926,-0.54349 -0.937243,-0.83861 -0.960259,-0.3772 -1.062861,-0.50737 -1.062861,-1.34841 0,-1.95317 3.032557,-12.71174 4.174939,-14.81139 2.419403,-4.44676 6.709405,-7.08354 14.941208,-9.18337 3.024559,-0.77153 3.373437,-0.92007 3.373437,-1.43634 0,-0.31671 -0.310918,-0.86447 -0.690931,-1.21726 -1.459632,-1.35506 -3.648775,-5.01743 -4.580391,-7.66285 -0.409966,-1.16414 -0.653407,-1.47756 -1.322669,-1.7029 -1.380135,-0.46469 -2.692066,-1.71878 -3.38779,-3.23845 -0.908226,-1.98382 -0.795358,-4.51644 0.273242,-6.13121 0.680067,-1.02765 0.708231,-1.17771 0.416611,-2.21971 -0.172019,-0.61466 -0.311961,-2.42725 -0.31098,-4.02798 0.0031,-5.01451 1.234902,-8.16845 4.443533,-11.37708 1.018646,-1.01865 2.52662,-2.24747 3.351053,-2.73071 4.569009,-2.678137 11.949137,-3.708362 17.169932,-2.396828 2.38539,0.599244 3.20582,0.949308 4.87902,2.081838 0.58208,0.39399 1.51456,0.78806 2.07217,0.87571 2.47723,0.38941 5.49982,2.8623 7.0473,5.76567 1.42672,2.67681 2.00457,7.72385 1.31278,11.46607 -0.25798,1.39557 -0.23541,1.58394 0.25196,2.10272 2.6118,2.78014 1.12071,8.52181 -2.51765,9.69459 -1.36043,0.43852 -1.59006,0.64957 -1.78899,1.64424 -0.31197,1.55982 -2.33521,5.20573 -3.7666,6.78748 -1.90233,2.10214 -1.90842,2.72159 -0.0313,3.18266 4.17553,1.02561 7.24272,2.05103 9.71998,3.24956 2.2324,1.08006 3.11283,1.68455 4.50498,3.09304 0.95168,0.96284 2.11579,2.48485 2.58693,3.38225 1.32804,2.52959 4.48927,14.06942 4.18561,15.27929 -0.11005,0.43849 -0.46332,0.74243 -1.11158,0.95638 -0.87485,0.28872 -0.93897,0.3796 -0.80794,1.14503 0.46117,2.69392 0.74298,6.21351 0.6518,8.14056 -0.18516,3.91345 -1.93085,6.40038 -5.41696,7.7171 l -1.54667,0.58418 -24.341667,0.0477 c -18.927578,0.0371 -24.635912,-0.027 -25.664585,-0.28814 z m 22.27345,-10.26017 c -0.08446,-0.21106 -0.147157,-0.14837 -0.159852,0.15985 -0.01149,0.27892 0.05105,0.43519 0.138964,0.34727 0.08792,-0.0879 0.09732,-0.31612 0.02089,-0.50712 z m 14.834362,-17.06611 c -0.25466,-0.0665 -0.67138,-0.0665 -0.92604,0 -0.25466,0.0666 -0.0463,0.121 0.46302,0.121 0.50932,0 0.71768,-0.0545 0.46302,-0.121 z m 6.21771,-0.0113 c -0.61846,-0.0557 -1.63049,-0.0557 -2.24896,0 -0.61846,0.0557 -0.11245,0.10128 1.12448,0.10128 1.23693,0 1.74294,-0.0456 1.12448,-0.10128 z"
         id="path7" /><path
         style="fill:#f3c18e"
         d="m 70.534886,186.24843 c -3.396404,-0.73749 -5.676413,-2.65677 -6.538276,-5.50382 -0.601486,-1.98693 -0.504022,-5.40581 0.296312,-10.39417 0.173728,-1.08282 0.155993,-1.117 -0.783174,-1.50941 -1.233728,-0.51549 -1.378766,-0.94666 -0.980388,-2.91452 0.589954,-2.91418 3.204716,-11.63774 3.910131,-13.04526 2.147192,-4.2843 6.48942,-7.04249 14.265436,-9.06141 3.543451,-0.92 4.340917,-1.20956 4.340917,-1.57619 0,-0.13979 -0.479982,-0.80874 -1.066626,-1.48656 -2.021987,-2.33622 -4.160746,-6.16538 -4.610139,-8.25382 -0.152688,-0.70958 -0.355641,-0.90129 -1.192754,-1.12671 -3.522155,-0.94841 -5.269383,-6.77337 -2.837838,-9.46087 0.490878,-0.54255 0.510877,-0.71263 0.227932,-1.93841 -0.449658,-1.94803 -0.390079,-6.60569 0.109255,-8.54116 1.366988,-5.2986 5.827023,-9.72376 11.486837,-11.39702 2.119142,-0.626506 5.951954,-1.206596 7.980371,-1.207821 3.361625,-0.002 7.419458,1.052288 9.464328,2.459041 0.64505,0.44376 1.80754,0.95439 2.5833,1.13472 1.91191,0.44444 3.46238,1.40227 5.00605,3.0926 2.87606,3.14928 4.02657,7.76385 3.29893,13.23168 -0.30535,2.29461 -0.30225,2.3214 0.37128,3.20444 0.37356,0.48977 0.8184,1.55412 0.98853,2.36522 0.26459,1.26143 0.24144,1.6901 -0.16004,2.96376 -0.60858,1.93062 -1.96051,3.42659 -3.63372,4.02086 -1.19491,0.4244 -1.32348,0.55774 -1.72181,1.78586 -0.73908,2.27873 -2.41768,5.22805 -3.95378,6.94688 -1.75077,1.959 -1.75722,2.54406 -0.033,2.98891 13.38108,3.45233 16.46709,5.93492 18.99274,15.27902 1.60307,5.93085 2.34769,9.19285 2.20272,9.64962 -0.089,0.28053 -0.56713,0.67937 -1.06244,0.88632 -0.4953,0.20695 -0.90054,0.54235 -0.90054,0.74533 0,0.20297 0.1915,1.83849 0.42555,3.63447 0.53806,4.12872 0.4031,6.53489 -0.47335,8.43926 -1.24707,2.70966 -3.40575,4.1575 -7.03918,4.72125 -3.01055,0.4671 -46.747456,0.34911 -48.963564,-0.13209 z m 44.000504,-7.18263 c 0.0976,-0.25429 0.28927,-1.59374 0.42598,-2.97656 0.23079,-2.33443 0.43812,-4.1813 1.03964,-9.26111 0.75616,-6.38564 0.78349,-6.98233 0.34213,-7.47002 -0.39753,-0.43927 -1.6627,-0.46748 -20.966636,-0.46748 -15.62556,0 -20.619585,0.076 -20.861077,0.3175 -0.392259,0.39226 -0.4056,1.81677 -0.04287,4.5773 0.290219,2.20868 0.575652,4.62266 1.048038,8.86354 0.15399,1.38245 0.407967,3.49581 0.564394,4.69635 l 0.284413,2.18282 h 18.994289 c 17.834999,0 19.005119,-0.0282 19.171699,-0.46234 z m -21.499129,-1.97183 c -0.399072,-0.39907 -0.408204,-1.54866 -0.01997,-2.51432 0.16364,-0.40703 0.39395,-0.97818 0.511801,-1.26922 0.117851,-0.29105 0.48136,-1.30308 0.807798,-2.24896 2.388282,-6.92027 2.179612,-6.47522 3.077599,-6.56389 1.490078,-0.14714 1.60106,1.18913 0.336398,4.05035 -0.128641,0.29104 -0.487646,1.30307 -0.79779,2.24895 -0.310143,0.94589 -0.670303,1.95792 -0.800355,2.24896 -0.130052,0.29104 -0.480691,1.29683 -0.779199,2.23509 -0.298507,0.93825 -0.690303,1.79963 -0.870656,1.91417 -0.479536,0.30456 -1.102949,0.26154 -1.465623,-0.10113 z m 7.414289,-1.94646 c -0.865065,-0.60592 -0.736151,-1.0507 0.76439,-2.6373 l 1.35244,-1.43 -1.35244,-1.51739 c -1.313701,-1.47395 -1.552794,-2.02137 -1.14994,-2.63288 0.32247,-0.4895 1.25359,-0.65484 1.69775,-0.30148 1.08129,0.86023 3.65601,4.01453 3.65601,4.47898 0,0.5285 -3.62854,4.45194 -4.11731,4.45194 -0.14457,0 -0.52748,-0.18534 -0.8509,-0.41187 z m -12.626581,-1.72735 c -0.873125,-1.01285 -1.624604,-2.06978 -1.669954,-2.34872 -0.0893,-0.54929 3.791599,-4.77247 4.385663,-4.77247 0.401879,0 1.385333,0.95309 1.385333,1.34256 0,0.15632 -0.657155,0.97318 -1.460345,1.81524 l -1.460345,1.53102 1.19294,1.29361 c 1.201946,1.30338 1.465918,2.11107 0.881083,2.6959 -0.746175,0.74618 -1.635723,0.32055 -3.254375,-1.55714 z"
         id="path6" /><path
         style="fill:#a08570"
         d="m 70.534886,186.24843 c -3.396404,-0.73749 -5.676413,-2.65677 -6.538276,-5.50382 -0.601486,-1.98693 -0.504022,-5.40581 0.296312,-10.39417 0.173728,-1.08282 0.155993,-1.117 -0.783174,-1.50941 -1.233728,-0.51549 -1.378766,-0.94666 -0.980388,-2.91452 0.589954,-2.91418 3.204716,-11.63774 3.910131,-13.04526 2.147192,-4.2843 6.48942,-7.04249 14.265436,-9.06141 3.543451,-0.92 4.340917,-1.20956 4.340917,-1.57619 0,-0.13979 -0.479982,-0.80874 -1.066626,-1.48656 -2.021987,-2.33622 -4.160746,-6.16538 -4.610139,-8.25382 -0.152688,-0.70958 -0.355641,-0.90129 -1.192754,-1.12671 -3.522155,-0.94841 -5.269383,-6.77337 -2.837838,-9.46087 0.490878,-0.54255 0.510877,-0.71263 0.227932,-1.93841 -0.449658,-1.94803 -0.390079,-6.60569 0.109255,-8.54116 1.366988,-5.2986 5.827023,-9.72376 11.486837,-11.39702 2.119142,-0.626506 5.951954,-1.206596 7.980371,-1.207821 3.361625,-0.002 7.419458,1.052288 9.464328,2.459041 0.64505,0.44376 1.80754,0.95439 2.5833,1.13472 1.91191,0.44444 3.46238,1.40227 5.00605,3.0926 2.87606,3.14928 4.02657,7.76385 3.29893,13.23168 -0.30535,2.29461 -0.30225,2.3214 0.37128,3.20444 0.37356,0.48977 0.8184,1.55412 0.98853,2.36522 0.26459,1.26143 0.24144,1.6901 -0.16004,2.96376 -0.60858,1.93062 -1.96051,3.42659 -3.63372,4.02086 -1.19491,0.4244 -1.32348,0.55774 -1.72181,1.78586 -0.73908,2.27873 -2.41768,5.22805 -3.95378,6.94688 -1.75077,1.959 -1.75722,2.54406 -0.033,2.98891 13.38108,3.45233 16.46709,5.93492 18.99274,15.27902 1.60307,5.93085 2.34769,9.19285 2.20272,9.64962 -0.089,0.28053 -0.56713,0.67937 -1.06244,0.88632 -0.4953,0.20695 -0.90054,0.54235 -0.90054,0.74533 0,0.20297 0.1915,1.83849 0.42555,3.63447 0.53806,4.12872 0.4031,6.53489 -0.47335,8.43926 -1.24707,2.70966 -3.40575,4.1575 -7.03918,4.72125 -3.01055,0.4671 -46.747456,0.34911 -48.963564,-0.13209 z m 52.560504,-3.61321 c 0.75271,-0.6247 1.56155,-2.19611 1.73547,-3.37167 0.16741,-1.13154 -0.17852,-6.8019 -0.53015,-8.69007 -0.18829,-1.01106 -0.0422,-1.00508 -4.09641,-0.16779 l -2.28008,0.47089 -0.30734,3.2013 c -0.16904,1.76071 -0.37069,3.70731 -0.44811,4.32578 l -0.14077,1.12448 h 1.42086 c 2.09276,0 2.42277,0.3466 2.36391,2.48277 l -0.0484,1.75777 0.97202,-0.40614 c 0.53462,-0.22338 1.14618,-0.55067 1.35903,-0.72732 z m -53.130797,-0.71083 c 0,-1.94012 0.4865,-2.39625 2.555779,-2.39625 h 1.379702 l -0.101657,-0.8599 c -0.193361,-1.63558 -0.668914,-6.15456 -0.729898,-6.9359 -0.06705,-0.85902 0.192561,-0.75275 -3.974966,-1.62714 -1.133916,-0.2379 -2.13104,-0.36318 -2.215831,-0.27839 -0.231475,0.23148 -0.591587,3.36616 -0.781291,6.80093 -0.151659,2.74594 -0.114592,3.15809 0.368822,4.10105 0.548067,1.06906 1.361275,1.93532 2.308715,2.45933 1.023833,0.56626 1.190625,0.38923 1.190625,-1.26373 z m 44.570797,-2.85859 c 0.0976,-0.25429 0.28927,-1.59374 0.42598,-2.97656 0.23079,-2.33443 0.43812,-4.1813 1.03964,-9.26111 0.75616,-6.38564 0.78349,-6.98233 0.34213,-7.47002 -0.39753,-0.43927 -1.6627,-0.46748 -20.966636,-0.46748 -15.62556,0 -20.619585,0.076 -20.861077,0.3175 -0.392259,0.39226 -0.4056,1.81677 -0.04287,4.5773 0.290219,2.20868 0.575652,4.62266 1.048038,8.86354 0.15399,1.38245 0.407967,3.49581 0.564394,4.69635 l 0.284413,2.18282 h 18.994289 c 17.834999,0 19.005119,-0.0282 19.171699,-0.46234 z m -21.499129,-1.97183 c -0.399072,-0.39907 -0.408204,-1.54866 -0.01997,-2.51432 0.16364,-0.40703 0.39395,-0.97818 0.511801,-1.26922 0.117851,-0.29105 0.48136,-1.30308 0.807798,-2.24896 2.388282,-6.92027 2.179612,-6.47522 3.077599,-6.56389 1.490078,-0.14714 1.60106,1.18913 0.336398,4.05035 -0.128641,0.29104 -0.487646,1.30307 -0.79779,2.24895 -0.310143,0.94589 -0.670303,1.95792 -0.800355,2.24896 -0.130052,0.29104 -0.480691,1.29683 -0.779199,2.23509 -0.298507,0.93825 -0.690303,1.79963 -0.870656,1.91417 -0.479536,0.30456 -1.102949,0.26154 -1.465623,-0.10113 z m 7.414289,-1.94646 c -0.865065,-0.60592 -0.736151,-1.0507 0.76439,-2.6373 l 1.35244,-1.43 -1.35244,-1.51739 c -1.313701,-1.47395 -1.552794,-2.02137 -1.14994,-2.63288 0.32247,-0.4895 1.25359,-0.65484 1.69775,-0.30148 1.08129,0.86023 3.65601,4.01453 3.65601,4.47898 0,0.5285 -3.62854,4.45194 -4.11731,4.45194 -0.14457,0 -0.52748,-0.18534 -0.8509,-0.41187 z m -12.626581,-1.72735 c -0.873125,-1.01285 -1.624604,-2.06978 -1.669954,-2.34872 -0.0893,-0.54929 3.791599,-4.77247 4.385663,-4.77247 0.401879,0 1.385333,0.95309 1.385333,1.34256 0,0.15632 -0.657155,0.97318 -1.460345,1.81524 l -1.460345,1.53102 1.19294,1.29361 c 1.201946,1.30338 1.465918,2.11107 0.881083,2.6959 -0.746175,0.74618 -1.635723,0.32055 -3.254375,-1.55714 z m 9.260417,-22.31078 c 2.239328,-0.49983 2.866069,-0.79179 4.107764,-1.91359 1.36723,-1.2352 2.37453,-3.17973 2.37453,-4.58386 0,-0.58692 -0.0527,-1.06713 -0.11717,-1.06713 -0.0644,0 -0.51554,0.23504 -1.00244,0.52232 -1.40299,0.82779 -4.148109,1.63348 -6.09241,1.78812 -2.248232,0.17882 -4.529321,-0.27795 -7.005467,-1.40279 -1.052898,-0.47831 -1.978884,-0.76524 -2.057748,-0.63763 -0.179052,0.28971 0.35734,2.53293 0.832191,3.48027 0.477853,0.95333 2.136048,2.49482 3.272208,3.04191 0.720723,0.34705 2.962183,0.97333 3.96875,1.10889 0.07276,0.01 0.846667,-0.14163 1.719792,-0.33651 z m 2.099051,-8.39614 c 4.541413,-1.60418 8.556113,-5.90296 9.972173,-10.67782 0.68711,-2.31688 1.08238,-2.77812 2.38076,-2.77812 0.80161,0 1.20029,-0.19179 1.94336,-0.93486 0.88658,-0.88658 0.93486,-1.02768 0.93486,-2.73201 0,-1.53274 -0.0894,-1.88118 -0.60803,-2.36836 -0.33442,-0.31417 -0.98926,-0.64746 -1.45521,-0.74065 -0.76511,-0.15302 -0.84717,-0.10786 -0.84717,0.46623 0,0.91986 -0.71917,1.81173 -1.4609,1.81173 -0.82103,0 -1.18333,-0.69881 -1.19125,-2.29771 -0.0106,-2.13221 -0.40565,-3.32395 -1.34343,-4.05229 -1.43709,-1.11614 -2.23163,-1.93663 -2.99443,-3.09228 l -0.7313,-1.10791 -2.15862,1.1571 c -2.477147,1.32786 -5.103385,2.10623 -8.508614,2.52181 -2.63867,0.32203 -6.301268,0.12597 -7.92894,-0.42443 -0.93197,-0.31515 -1.105853,-0.30428 -1.549509,0.0969 -0.925192,0.83666 -1.481677,2.34395 -1.661515,4.50036 -0.155184,1.8608 -0.252386,2.15882 -0.799631,2.4517 -0.530614,0.28397 -0.701805,0.26206 -1.15471,-0.14782 -0.295231,-0.26718 -0.531737,-0.81602 -0.531737,-1.23395 0,-0.97193 -0.716462,-1.00625 -1.809305,-0.0867 -2.13148,1.79352 -0.714712,6.2131 1.991709,6.2131 1.067106,0 1.532549,0.60021 2.050227,2.64388 1.183175,4.67088 4.874814,8.78802 9.525747,10.62368 2.447832,0.96613 5.526747,1.03922 7.935465,0.18838 z"
         id="path5" /><path
         style="fill:#e86d22"
         d="m 69.760904,185.99978 c -1.889385,-0.51231 -2.702547,-0.96541 -3.846747,-2.14342 -2.19631,-2.26121 -2.723879,-5.2501 -1.929638,-10.93218 0.557004,-3.98487 0.563704,-3.90661 -0.351644,-4.10765 -1.299017,-0.28532 -1.487905,-0.73105 -1.103298,-2.60353 0.319099,-1.55355 1.502702,-5.94159 2.624379,-9.72951 1.144485,-3.86494 2.6878,-6.27861 5.26625,-8.23615 2.595551,-1.97052 5.18569,-3.0461 11.017126,-4.57495 1.87162,-0.49069 3.468539,-0.95776 3.548708,-1.03792 0.253145,-0.25315 -0.420216,-1.42908 -1.485894,-2.59492 -1.284773,-1.40552 -3.045133,-4.50265 -3.818116,-6.71748 -0.512766,-1.46924 -0.701813,-1.72327 -1.471424,-1.97727 -3.472301,-1.14596 -5.11397,-6.08635 -3.038669,-9.14447 0.651905,-0.96064 0.668824,-1.07663 0.383172,-2.62692 -0.729034,-3.95661 -0.114364,-8.57857 1.558179,-11.71659 0.994839,-1.8665 3.815231,-4.70165 5.946027,-5.97712 3.613195,-2.162818 10.044249,-3.40868 14.587678,-2.826009 2.933327,0.376184 5.287417,1.152379 7.009267,2.311089 0.7238,0.48708 1.757,0.96584 2.29602,1.0639 1.71755,0.31247 3.31971,1.2267 4.81648,2.74842 2.78703,2.83348 3.78842,5.66969 3.78449,10.71874 -0.001,1.74625 -0.12796,3.6161 -0.28135,4.15523 -0.22484,0.79028 -0.203,1.04321 0.1127,1.30522 0.86823,0.72056 1.50036,2.45341 1.48935,4.08267 -0.0194,2.87349 -1.42877,4.99433 -3.90835,5.88146 -1.21465,0.43457 -1.28524,0.51756 -1.84674,2.17092 -0.85172,2.50793 -1.53644,3.71311 -3.471,6.1093 -0.95103,1.17799 -1.69152,2.33897 -1.64551,2.57996 0.0901,0.47175 0.43536,0.60009 5.50183,2.04488 6.38368,1.82042 10.21261,4.25596 12.39844,7.88649 1.24801,2.07287 1.74438,3.60041 4.02757,12.39457 0.89732,3.45621 0.84573,3.83234 -0.5933,4.32554 -0.49414,0.16935 -0.85965,0.46509 -0.82907,0.67082 0.2541,1.70981 0.87078,7.71067 0.87104,8.47601 1.7e-4,0.53038 -0.2372,1.73331 -0.5275,2.6732 -0.6989,2.26276 -2.09103,3.83904 -4.28542,4.85225 l -1.66905,0.77065 -24.870837,0.0514 c -20.848549,0.0431 -25.096333,-0.01 -26.265149,-0.32665 z m 48.171436,-2.03987 c 0.24413,-0.18191 0.51989,-0.71769 0.61281,-1.19063 l 0.16892,-0.85989 H 95.529959 c -21.905098,0 -23.183916,0.0255 -23.180503,0.46302 0.007,0.89995 0.320563,1.6267 0.751144,1.74107 0.239728,0.0637 10.325066,0.12958 22.411862,0.14646 17.206708,0.024 22.072328,-0.0411 22.419878,-0.30003 z m -47.913812,-1.74853 c -0.148736,-2.05625 0.436712,-2.68324 2.505441,-2.68324 h 1.401261 l -0.150207,-1.65365 c -0.08261,-0.90951 -0.259382,-2.30059 -0.392818,-3.0913 -0.133436,-0.79071 -0.242612,-2.0111 -0.242612,-2.71198 0,-0.70088 -0.09406,-1.27433 -0.209018,-1.27433 -0.11496,0 -1.541333,-0.28156 -3.169718,-0.6257 l -2.9607,-0.62571 -0.131891,0.82415 c -1.18184,7.38493 -0.992305,10.1375 0.823045,11.95285 0.600473,0.60047 1.982577,1.3934 2.490165,1.42864 0.08205,0.006 0.09872,-0.68718 0.03705,-1.53973 z m 51.816832,1.28551 c 0.50807,0 2.21411,-1.77426 2.66913,-2.77586 0.66587,-1.46574 0.59793,-5.23879 -0.18395,-10.21612 l -0.14978,-0.95343 -3.0714,0.62401 c -1.68927,0.3432 -3.11181,0.66442 -3.1612,0.71381 -0.0936,0.0936 -0.55498,4.12985 -0.7984,6.98519 l -0.14098,1.65365 h 1.29487 c 2.02336,0 2.47095,0.46314 2.47095,2.55685 0,1.47165 0.0631,1.70887 0.41851,1.57249 0.23018,-0.0883 0.5237,-0.16059 0.65225,-0.16059 z m -7.1549,-4.29948 c 7.1e-4,-0.18191 0.40631,-3.84308 0.90133,-8.13594 0.49503,-4.29287 0.98106,-8.53783 1.08006,-9.43326 0.11482,-1.03841 0.0725,-1.82897 -0.11689,-2.18281 l -0.2969,-0.55477 H 95.519974 c -18.239876,0 -20.768225,0.0484 -21.062461,0.4029 -0.344002,0.4145 -0.294614,1.73605 0.251911,6.74085 1.040896,9.532 1.368436,12.38022 1.4833,12.89844 l 0.131951,0.59532 h 19.177252 c 15.164733,0 19.177523,-0.0692 19.178533,-0.33073 z M 93.129848,177.0577 c -0.64078,-0.46855 -0.528058,-1.0253 1.160434,-5.73165 0.757023,-2.11005 1.559515,-4.37224 1.783318,-5.02708 0.538188,-1.57474 0.831289,-1.89444 1.649597,-1.79932 0.859564,0.0999 1.016694,1.01691 0.452884,2.64297 -3.462933,9.98731 -3.579413,10.26885 -4.248522,10.26885 -0.17265,0 -0.53162,-0.1592 -0.797711,-0.35377 z m -5.275602,-3.76155 c -0.962538,-1.09926 -1.750069,-2.10715 -1.750069,-2.23976 0,-0.25844 1.046353,-1.5123 2.818169,-3.37704 0.878497,-0.92457 1.24926,-1.13872 1.852084,-1.06975 1.273773,0.14575 1.132395,1.05289 -0.448496,2.87773 l -1.373341,1.58527 1.221626,1.30602 c 1.296946,1.38654 1.379879,1.59694 0.947733,2.40441 -0.545332,1.01896 -1.423363,0.61944 -3.267706,-1.48688 z m 12.449234,1.82226 c -0.515107,-0.51511 -0.10186,-1.60089 1.05716,-2.7776 l 1.23354,-1.25238 -1.0351,-1.2269 c -0.56931,-0.6748 -1.17623,-1.477 -1.34872,-1.78267 -0.417855,-0.74051 0.006,-1.51531 0.8283,-1.51531 0.83946,0 4.11948,3.61648 4.10658,4.52783 -0.0135,0.95145 -3.0988,4.21104 -3.98186,4.20674 -0.37593,-0.002 -0.76288,-0.0827 -0.8599,-0.17971 z m -27.776896,-8.86905 c -0.08446,-0.21107 -0.147157,-0.14837 -0.159852,0.15985 -0.01149,0.27892 0.05105,0.43519 0.138964,0.34727 0.08792,-0.0879 0.09732,-0.31613 0.02089,-0.50712 z m 4.774685,-9.89983 c -0.08792,-0.0879 -0.316122,-0.0973 -0.507118,-0.0209 -0.211067,0.0845 -0.148372,0.14716 0.159852,0.15986 0.278915,0.0115 0.435185,-0.051 0.347266,-0.13897 z m 7.688797,-0.0354 c -0.831042,-0.0523 -2.259792,-0.0528 -3.175,-9.5e-4 -0.915208,0.0518 -0.235264,0.0946 1.510986,0.0952 1.74625,5.2e-4 2.495057,-0.0419 1.664014,-0.0942 z m 3.963121,0.006 c -0.397577,-0.0604 -1.111952,-0.0616 -1.5875,-0.003 -0.475549,0.0589 -0.15026,0.10828 0.722865,0.10977 0.873125,0.001 1.262211,-0.0467 0.864635,-0.10707 z m 1.577249,0.0292 c -0.08792,-0.0879 -0.316122,-0.0973 -0.507118,-0.0209 -0.211067,0.0845 -0.148372,0.14716 0.159852,0.15986 0.278915,0.0115 0.435185,-0.051 0.347266,-0.13897 z m 18.790934,-0.0383 c -3.3106,-0.042 -8.72795,-0.042 -12.038547,0 -3.310599,0.042 -0.601927,0.0763 6.019267,0.0763 6.6212,0 9.32987,-0.0343 6.01928,-0.0763 z M 97.2698,151.19145 c 3.54485,-0.73534 6.27663,-3.60393 6.29107,-6.60612 l 0.006,-1.20842 -1.78594,0.88633 c -1.986241,0.98573 -4.385795,1.63908 -6.072393,1.65339 -2.122606,0.018 -5.43194,-0.90895 -7.685941,-2.15283 l -0.859895,-0.47454 v 0.67206 c 0,3.25861 2.616095,6.28087 6.186886,7.14745 1.747753,0.42415 2.225711,0.43423 3.920403,0.0827 z m 1.87843,-8.40098 c 4.72922,-1.56018 8.84112,-6.11786 10.35153,-11.47374 0.40955,-1.45227 0.47108,-1.52341 1.5462,-1.78772 2.60673,-0.64084 3.47825,-1.64025 3.49177,-4.00416 0.008,-1.47954 -0.0566,-1.66035 -0.85491,-2.37411 -0.54591,-0.48812 -1.15481,-0.77261 -1.65365,-0.77261 -0.69664,0 -0.78958,0.0912 -0.78958,0.77485 0,0.77779 -0.57903,1.6064 -1.12254,1.6064 -0.16005,0 -0.50873,-0.19704 -0.77485,-0.43788 -0.37963,-0.34355 -0.48386,-0.83085 -0.48386,-2.2621 0,-2.21317 -0.3305,-2.91198 -2.07154,-4.38005 -0.73131,-0.61665 -1.70643,-1.70265 -2.16693,-2.41332 l -0.83728,-1.29214 -1.69165,1.02771 c -3.473918,2.11048 -7.788303,3.03146 -13.220733,2.82218 -2.395116,-0.0923 -3.436095,-0.23961 -3.916457,-0.55435 -0.612496,-0.40133 -0.696932,-0.39513 -1.322661,0.0971 -0.917096,0.72139 -1.760245,3.10134 -1.760245,4.96864 0,1.64434 -0.294502,2.15966 -1.234233,2.15966 -0.653185,0 -1.147017,-0.69023 -1.147017,-1.60318 0,-0.51271 -0.09918,-0.5598 -0.858978,-0.40784 -1.312682,0.26254 -1.855669,0.97679 -1.991958,2.62025 -0.193417,2.33236 1.08124,4.15327 2.907335,4.15327 1.016542,0 1.50202,0.55454 1.929418,2.2039 1.305606,5.03842 5.262059,9.51754 9.920433,11.23099 1.981897,0.72898 5.697816,0.77609 7.752386,0.0983 z"
         id="path4" /><path
         style="fill:#844c28"
         d="m 69.760904,185.99978 c -1.889385,-0.51231 -2.702547,-0.96541 -3.846747,-2.14342 -2.19631,-2.26121 -2.723879,-5.2501 -1.929638,-10.93218 0.557004,-3.98487 0.563704,-3.90661 -0.351644,-4.10765 -1.299017,-0.28532 -1.487905,-0.73105 -1.103298,-2.60353 0.319099,-1.55355 1.502702,-5.94159 2.624379,-9.72951 1.144485,-3.86494 2.6878,-6.27861 5.26625,-8.23615 2.595551,-1.97052 5.18569,-3.0461 11.017126,-4.57495 1.87162,-0.49069 3.468539,-0.95776 3.548708,-1.03792 0.253145,-0.25315 -0.420216,-1.42908 -1.485894,-2.59492 -1.284773,-1.40552 -3.045133,-4.50265 -3.818116,-6.71748 -0.512766,-1.46924 -0.701813,-1.72327 -1.471424,-1.97727 -3.472301,-1.14596 -5.11397,-6.08635 -3.038669,-9.14447 0.651905,-0.96064 0.668824,-1.07663 0.383172,-2.62692 -0.729034,-3.95661 -0.114364,-8.57857 1.558179,-11.71659 0.994839,-1.8665 3.815231,-4.70165 5.946027,-5.97712 3.613195,-2.162818 10.044249,-3.40868 14.587678,-2.826009 2.933327,0.376184 5.287417,1.152379 7.009267,2.311089 0.7238,0.48708 1.757,0.96584 2.29602,1.0639 1.71755,0.31247 3.31971,1.2267 4.81648,2.74842 2.78703,2.83348 3.78842,5.66969 3.78449,10.71874 -0.001,1.74625 -0.12796,3.6161 -0.28135,4.15523 -0.22484,0.79028 -0.203,1.04321 0.1127,1.30522 0.86823,0.72056 1.50036,2.45341 1.48935,4.08267 -0.0194,2.87349 -1.42877,4.99433 -3.90835,5.88146 -1.21465,0.43457 -1.28524,0.51756 -1.84674,2.17092 -0.85172,2.50793 -1.53644,3.71311 -3.471,6.1093 -0.95103,1.17799 -1.69152,2.33897 -1.64551,2.57996 0.0901,0.47175 0.43536,0.60009 5.50183,2.04488 6.38368,1.82042 10.21261,4.25596 12.39844,7.88649 1.24801,2.07287 1.74438,3.60041 4.02757,12.39457 0.89732,3.45621 0.84573,3.83234 -0.5933,4.32554 -0.49414,0.16935 -0.85965,0.46509 -0.82907,0.67082 0.2541,1.70981 0.87078,7.71067 0.87104,8.47601 1.7e-4,0.53038 -0.2372,1.73331 -0.5275,2.6732 -0.6989,2.26276 -2.09103,3.83904 -4.28542,4.85225 l -1.66905,0.77065 -24.870837,0.0514 c -20.848549,0.0431 -25.096333,-0.01 -26.265149,-0.32665 z m 48.171436,-2.03987 c 0.24413,-0.18191 0.51989,-0.71769 0.61281,-1.19063 l 0.16892,-0.85989 H 95.529959 c -21.905098,0 -23.183916,0.0255 -23.180503,0.46302 0.007,0.89995 0.320563,1.6267 0.751144,1.74107 0.239728,0.0637 10.325066,0.12958 22.411862,0.14646 17.206708,0.024 22.072328,-0.0411 22.419878,-0.30003 z m -47.913812,-1.74853 c -0.148736,-2.05625 0.436712,-2.68324 2.505441,-2.68324 h 1.401261 l -0.150207,-1.65365 c -0.08261,-0.90951 -0.259382,-2.30059 -0.392818,-3.0913 -0.133436,-0.79071 -0.242612,-2.0111 -0.242612,-2.71198 0,-0.70088 -0.09406,-1.27433 -0.209018,-1.27433 -0.11496,0 -1.541333,-0.28156 -3.169718,-0.6257 l -2.9607,-0.62571 -0.131891,0.82415 c -1.18184,7.38493 -0.992305,10.1375 0.823045,11.95285 0.600473,0.60047 1.982577,1.3934 2.490165,1.42864 0.08205,0.006 0.09872,-0.68718 0.03705,-1.53973 z m 51.816832,1.28551 c 0.50807,0 2.21411,-1.77426 2.66913,-2.77586 0.66587,-1.46574 0.59793,-5.23879 -0.18395,-10.21612 l -0.14978,-0.95343 -3.0714,0.62401 c -1.68927,0.3432 -3.11181,0.66442 -3.1612,0.71381 -0.0936,0.0936 -0.55498,4.12985 -0.7984,6.98519 l -0.14098,1.65365 h 1.29487 c 2.02336,0 2.47095,0.46314 2.47095,2.55685 0,1.47165 0.0631,1.70887 0.41851,1.57249 0.23018,-0.0883 0.5237,-0.16059 0.65225,-0.16059 z m -7.1549,-4.29948 c 7.1e-4,-0.18191 0.40631,-3.84308 0.90133,-8.13594 0.49503,-4.29287 0.98106,-8.53783 1.08006,-9.43326 0.11482,-1.03841 0.0725,-1.82897 -0.11689,-2.18281 l -0.2969,-0.55477 H 95.519974 c -18.239876,0 -20.768225,0.0484 -21.062461,0.4029 -0.344002,0.4145 -0.294614,1.73605 0.251911,6.74085 1.040896,9.532 1.368436,12.38022 1.4833,12.89844 l 0.131951,0.59532 h 19.177252 c 15.164733,0 19.177523,-0.0692 19.178533,-0.33073 z M 93.129848,177.0577 c -0.64078,-0.46855 -0.528058,-1.0253 1.160434,-5.73165 0.757023,-2.11005 1.559515,-4.37224 1.783318,-5.02708 0.538188,-1.57474 0.831289,-1.89444 1.649597,-1.79932 0.859564,0.0999 1.016694,1.01691 0.452884,2.64297 -3.462933,9.98731 -3.579413,10.26885 -4.248522,10.26885 -0.17265,0 -0.53162,-0.1592 -0.797711,-0.35377 z m -5.275602,-3.76155 c -0.962538,-1.09926 -1.750069,-2.10715 -1.750069,-2.23976 0,-0.25844 1.046353,-1.5123 2.818169,-3.37704 0.878497,-0.92457 1.24926,-1.13872 1.852084,-1.06975 1.273773,0.14575 1.132395,1.05289 -0.448496,2.87773 l -1.373341,1.58527 1.221626,1.30602 c 1.296946,1.38654 1.379879,1.59694 0.947733,2.40441 -0.545332,1.01896 -1.423363,0.61944 -3.267706,-1.48688 z m 12.449234,1.82226 c -0.515107,-0.51511 -0.10186,-1.60089 1.05716,-2.7776 l 1.23354,-1.25238 -1.0351,-1.2269 c -0.56931,-0.6748 -1.17623,-1.477 -1.34872,-1.78267 -0.417855,-0.74051 0.006,-1.51531 0.8283,-1.51531 0.83946,0 4.11948,3.61648 4.10658,4.52783 -0.0135,0.95145 -3.0988,4.21104 -3.98186,4.20674 -0.37593,-0.002 -0.76288,-0.0827 -0.8599,-0.17971 z m -27.766671,-8.09184 c -0.902541,-7.99749 -0.841449,-8.73318 0.818888,-9.86141 l 0.965068,-0.65578 H 95.30222 c 23.11605,0 22.30577,-0.0568 23.33893,1.63773 0.71105,1.16627 0.68161,2.21599 -0.24164,8.61488 -0.11023,0.76398 -0.12919,1.38968 -0.0421,1.39043 0.24953,0.002 7.5579,-1.39408 7.64192,-1.45997 0.0752,-0.059 -0.20939,-1.28849 -0.70348,-3.03932 -0.14373,-0.50932 -0.49766,-1.81901 -0.78651,-2.91041 -0.66846,-2.52578 -1.30719,-4.67587 -1.6899,-5.68854 -0.48979,-1.29605 -2.22268,-3.71245 -3.36117,-4.68696 -1.39807,-1.19669 -4.58003,-2.79553 -6.76343,-3.39841 -0.43656,-0.12055 -1.21047,-0.3373 -1.71979,-0.48168 -0.50932,-0.14438 -1.81901,-0.48985 -2.91042,-0.76771 l -1.98437,-0.5052 -0.28667,1.08352 c -0.46054,1.74072 -1.11271,2.90654 -2.30333,4.11744 -2.31962,2.35912 -4.667503,3.29954 -8.125626,3.25461 -5.288823,-0.0687 -9.484333,-3.18219 -10.300035,-7.64362 l -0.151007,-0.82592 -1.455208,0.35772 c -1.567853,0.38541 -4.827731,1.35858 -5.688542,1.6982 -0.291042,0.11483 -1.350977,0.52413 -2.355413,0.90956 -4.382924,1.68185 -6.890902,4.63312 -8.21463,9.66657 -0.248755,0.94589 -0.551837,2.07698 -0.673515,2.51354 -0.559935,2.00896 -1.588734,6.04178 -1.588734,6.22773 0,0.11372 0.863203,0.34926 1.918229,0.52343 1.055026,0.17417 2.573073,0.47266 3.373438,0.66332 2.409022,0.57385 2.4536,0.55968 2.307632,-0.73375 z M 97.2698,151.19145 c 3.54485,-0.73534 6.27663,-3.60393 6.29107,-6.60612 l 0.006,-1.20842 -1.78594,0.88633 c -1.986241,0.98573 -4.385795,1.63908 -6.072393,1.65339 -2.122606,0.018 -5.43194,-0.90895 -7.685941,-2.15283 l -0.859895,-0.47454 v 0.67206 c 0,3.25861 2.616095,6.28087 6.186886,7.14745 1.747753,0.42415 2.225711,0.43423 3.920403,0.0827 z m 1.87843,-8.40098 c 4.72922,-1.56018 8.84112,-6.11786 10.35153,-11.47374 0.40955,-1.45227 0.47108,-1.52341 1.5462,-1.78772 2.60673,-0.64084 3.47825,-1.64025 3.49177,-4.00416 0.008,-1.47954 -0.0566,-1.66035 -0.85491,-2.37411 -0.54591,-0.48812 -1.15481,-0.77261 -1.65365,-0.77261 -0.69664,0 -0.78958,0.0912 -0.78958,0.77485 0,0.77779 -0.57903,1.6064 -1.12254,1.6064 -0.16005,0 -0.50873,-0.19704 -0.77485,-0.43788 -0.37963,-0.34355 -0.48386,-0.83085 -0.48386,-2.2621 0,-2.21317 -0.3305,-2.91198 -2.07154,-4.38005 -0.73131,-0.61665 -1.70643,-1.70265 -2.16693,-2.41332 l -0.83728,-1.29214 -1.69165,1.02771 c -3.473918,2.11048 -7.788303,3.03146 -13.220733,2.82218 -2.395116,-0.0923 -3.436095,-0.23961 -3.916457,-0.55435 -0.612496,-0.40133 -0.696932,-0.39513 -1.322661,0.0971 -0.917096,0.72139 -1.760245,3.10134 -1.760245,4.96864 0,1.64434 -0.294502,2.15966 -1.234233,2.15966 -0.653185,0 -1.147017,-0.69023 -1.147017,-1.60318 0,-0.51271 -0.09918,-0.5598 -0.858978,-0.40784 -1.312682,0.26254 -1.855669,0.97679 -1.991958,2.62025 -0.193417,2.33236 1.08124,4.15327 2.907335,4.15327 1.016542,0 1.50202,0.55454 1.929418,2.2039 1.305606,5.03842 5.262059,9.51754 9.920433,11.23099 1.981897,0.72898 5.697816,0.77609 7.752386,0.0983 z"
         id="path3" /><path
         style="fill:#7b4928"
         d="m 69.760904,185.99978 c -1.889385,-0.51231 -2.702547,-0.96541 -3.846747,-2.14342 -2.19631,-2.26121 -2.723879,-5.2501 -1.929638,-10.93218 0.557004,-3.98487 0.563704,-3.90661 -0.351644,-4.10765 -1.299017,-0.28532 -1.487905,-0.73105 -1.103298,-2.60353 0.319099,-1.55355 1.502702,-5.94159 2.624379,-9.72951 1.144485,-3.86494 2.6878,-6.27861 5.26625,-8.23615 2.595551,-1.97052 5.18569,-3.0461 11.017126,-4.57495 1.87162,-0.49069 3.468539,-0.95776 3.548708,-1.03792 0.253145,-0.25315 -0.420216,-1.42908 -1.485894,-2.59492 -1.284773,-1.40552 -3.045133,-4.50265 -3.818116,-6.71748 -0.512766,-1.46924 -0.701813,-1.72327 -1.471424,-1.97727 -3.472301,-1.14596 -5.11397,-6.08635 -3.038669,-9.14447 0.651905,-0.96064 0.668824,-1.07663 0.383172,-2.62692 -0.729034,-3.95661 -0.114364,-8.57857 1.558179,-11.71659 0.994839,-1.8665 3.815231,-4.70165 5.946027,-5.97712 3.613195,-2.162818 10.044249,-3.40868 14.587678,-2.826009 2.933327,0.376184 5.287417,1.152379 7.009267,2.311089 0.7238,0.48708 1.757,0.96584 2.29602,1.0639 1.71755,0.31247 3.31971,1.2267 4.81648,2.74842 2.78703,2.83348 3.78842,5.66969 3.78449,10.71874 -0.001,1.74625 -0.12796,3.6161 -0.28135,4.15523 -0.22484,0.79028 -0.203,1.04321 0.1127,1.30522 0.86823,0.72056 1.50036,2.45341 1.48935,4.08267 -0.0194,2.87349 -1.42877,4.99433 -3.90835,5.88146 -1.21465,0.43457 -1.28524,0.51756 -1.84674,2.17092 -0.85172,2.50793 -1.53644,3.71311 -3.471,6.1093 -0.95103,1.17799 -1.69152,2.33897 -1.64551,2.57996 0.0901,0.47175 0.43536,0.60009 5.50183,2.04488 6.38368,1.82042 10.21261,4.25596 12.39844,7.88649 1.24801,2.07287 1.74438,3.60041 4.02757,12.39457 0.89732,3.45621 0.84573,3.83234 -0.5933,4.32554 -0.49414,0.16935 -0.85965,0.46509 -0.82907,0.67082 0.2541,1.70981 0.87078,7.71067 0.87104,8.47601 1.7e-4,0.53038 -0.2372,1.73331 -0.5275,2.6732 -0.6989,2.26276 -2.09103,3.83904 -4.28542,4.85225 l -1.66905,0.77065 -24.870837,0.0514 c -20.848549,0.0431 -25.096333,-0.01 -26.265149,-0.32665 z m 48.171436,-2.03987 c 0.24413,-0.18191 0.51989,-0.71769 0.61281,-1.19063 l 0.16892,-0.85989 H 95.529959 c -21.905098,0 -23.183916,0.0255 -23.180503,0.46302 0.007,0.89995 0.320563,1.6267 0.751144,1.74107 0.239728,0.0637 10.325066,0.12958 22.411862,0.14646 17.206708,0.024 22.072328,-0.0411 22.419878,-0.30003 z m -47.893568,-1.74487 c -0.124595,-1.37405 -0.072,-1.60999 0.471855,-2.11667 0.466351,-0.43447 0.944299,-0.57023 2.007443,-0.57023 h 1.395363 l -0.144248,-1.78594 c -0.07934,-0.98227 -0.253451,-2.43289 -0.38692,-3.2236 -0.133469,-0.79071 -0.242672,-1.94312 -0.242672,-2.56093 v -1.12327 l -1.389062,-0.28742 c -0.763985,-0.15807 -2.162969,-0.44701 -3.108854,-0.64207 -1.24151,-0.25603 -1.765346,-0.27329 -1.883594,-0.0621 -0.241569,0.4315 -0.854597,6.10752 -0.874588,8.09779 -0.02332,2.32237 0.792275,4.00501 2.451236,5.0571 1.732855,1.09894 1.868991,1.03641 1.704041,-0.78269 z m 52.308648,0.98278 c 1.91873,-1.16967 2.64125,-2.75806 2.63206,-5.78635 -0.007,-2.15051 -0.56071,-7.56178 -0.79548,-7.76735 -0.14841,-0.12995 -6.01954,1.01887 -6.2172,1.21654 -0.14515,0.14514 -0.42019,2.43826 -0.80951,6.74925 l -0.17324,1.91823 h 1.30223 c 2.02359,0 2.47832,0.46394 2.47832,2.52854 0,1.91837 0.14104,2.02006 1.58282,1.14114 z m -7.66696,-4.00041 c 7.1e-4,-0.18191 0.40631,-3.84308 0.90133,-8.13594 0.49503,-4.29287 0.98106,-8.53783 1.08006,-9.43326 0.11482,-1.03841 0.0725,-1.82897 -0.11689,-2.18281 l -0.2969,-0.55477 H 95.519974 c -18.239876,0 -20.768225,0.0484 -21.062461,0.4029 -0.344002,0.4145 -0.294614,1.73605 0.251911,6.74085 1.040896,9.532 1.368436,12.38022 1.4833,12.89844 l 0.131951,0.59532 h 19.177252 c 15.164733,0 19.177523,-0.0692 19.178533,-0.33073 z M 93.129848,177.0577 c -0.64078,-0.46855 -0.528058,-1.0253 1.160434,-5.73165 0.757023,-2.11005 1.559515,-4.37224 1.783318,-5.02708 0.538188,-1.57474 0.831289,-1.89444 1.649597,-1.79932 0.859564,0.0999 1.016694,1.01691 0.452884,2.64297 -3.462933,9.98731 -3.579413,10.26885 -4.248522,10.26885 -0.17265,0 -0.53162,-0.1592 -0.797711,-0.35377 z m -5.275602,-3.76155 c -0.962538,-1.09926 -1.750069,-2.10715 -1.750069,-2.23976 0,-0.25844 1.046353,-1.5123 2.818169,-3.37704 0.878497,-0.92457 1.24926,-1.13872 1.852084,-1.06975 1.273773,0.14575 1.132395,1.05289 -0.448496,2.87773 l -1.373341,1.58527 1.221626,1.30602 c 1.296946,1.38654 1.379879,1.59694 0.947733,2.40441 -0.545332,1.01896 -1.423363,0.61944 -3.267706,-1.48688 z m 12.449234,1.82226 c -0.515107,-0.51511 -0.10186,-1.60089 1.05716,-2.7776 l 1.23354,-1.25238 -1.0351,-1.2269 c -0.56931,-0.6748 -1.17623,-1.477 -1.34872,-1.78267 -0.417855,-0.74051 0.006,-1.51531 0.8283,-1.51531 0.83946,0 4.11948,3.61648 4.10658,4.52783 -0.0135,0.95145 -3.0988,4.21104 -3.98186,4.20674 -0.37593,-0.002 -0.76288,-0.0827 -0.8599,-0.17971 z m -27.698292,-7.69496 c -0.0029,-0.40019 -0.181404,-2.21526 -0.396717,-4.03351 -0.215312,-1.81824 -0.321177,-3.68062 -0.235255,-4.13863 0.08592,-0.458 0.568703,-1.23254 1.072846,-1.72118 l 0.916624,-0.88845 h 21.376468 c 17.445366,0 21.499276,0.0657 22.044296,0.35738 0.36731,0.19656 0.93639,0.83522 1.26464,1.41925 0.50332,0.89554 0.56992,1.29546 0.42521,2.55304 -0.0944,0.82014 -0.27815,2.44366 -0.40839,3.60783 -0.13023,1.16416 -0.32263,2.45737 -0.42756,2.87378 l -0.19077,0.75712 1.16057,-0.12046 c 0.98085,-0.1018 2.55286,-0.39146 6.28102,-1.15734 0.76917,-0.15802 0.73972,-0.36202 -0.91291,-6.32185 -1.56788,-5.65424 -2.22891,-7.16443 -3.9858,-9.10586 -2.3647,-2.61307 -5.37104,-4.05958 -11.84909,-5.70122 -2.74973,-0.69682 -3.0435,-0.65159 -3.05297,0.47008 -0.008,0.96272 -1.46849,3.43499 -2.66389,4.50976 -2.22093,1.9968 -4.407909,2.81705 -7.49996,2.81291 -3.365637,-0.004 -5.779197,-0.9245 -7.845114,-2.99042 -1.309949,-1.30995 -2.317036,-3.10217 -2.550057,-4.53812 -0.177556,-1.09415 0.165756,-1.12276 -5.109619,0.42588 -8.091504,2.37533 -11.010139,4.82853 -12.709452,10.68268 -0.864458,2.97806 -2.371798,8.85562 -2.371798,9.24832 0,0.19891 0.386953,0.43703 0.859896,0.52917 1.437199,0.27998 3.183718,0.64595 4.299479,0.90091 0.582083,0.13301 1.385755,0.25415 1.785938,0.26919 0.625166,0.0235 0.726866,-0.0751 0.722365,-0.70026 z M 98.982145,150.6956 c 2.794835,-1.23629 4.584535,-3.62765 4.584535,-6.12579 v -1.25234 l -1.13782,0.63593 c -4.491706,2.51047 -9.477749,2.45267 -14.274162,-0.16545 l -0.992187,-0.54159 v 0.76266 c 0,1.30346 0.741788,3.32779 1.599379,4.36469 2.270962,2.74578 6.8898,3.79511 10.220255,2.32189 z m 0.166085,-7.90513 c 3.68541,-1.21583 7.26663,-4.47333 9.16079,-8.33272 0.59317,-1.2086 1.07849,-2.39127 1.07849,-2.62817 0,-0.53639 0.56622,-1.85114 0.89829,-2.08578 0.13617,-0.0962 0.74582,-0.24968 1.35477,-0.34099 3.83692,-0.57538 4.08002,-7.02468 0.2648,-7.02468 -0.5146,0 -0.64768,0.15442 -0.71516,0.82987 -0.11462,1.14728 -0.95415,1.69262 -1.74882,1.13601 -0.50649,-0.35476 -0.58305,-0.65133 -0.58305,-2.2586 0,-2.24152 -0.32544,-2.93373 -2.07154,-4.40606 -0.73131,-0.61665 -1.71279,-1.71247 -2.18108,-2.43515 l -0.85142,-1.31397 -0.75207,0.53552 c -1.20497,0.85802 -4.440392,2.25326 -6.447011,2.78021 -2.644298,0.69442 -10.161335,0.71892 -11.486885,0.0374 -0.861636,-0.44297 -0.927814,-0.44297 -1.426563,0 -1.003009,0.89084 -1.765563,2.97942 -1.768343,4.84338 -0.0015,0.99172 -0.138394,1.86883 -0.320084,2.05052 -0.764395,0.76439 -2.06375,0.0154 -2.06375,-1.18968 0,-0.61973 -0.07115,-0.66197 -0.859896,-0.51055 -1.312982,0.25206 -2.050521,1.26242 -2.050521,2.80901 0,0.71002 0.11785,1.60091 0.261888,1.97976 0.410804,1.08049 1.556363,1.99146 2.504302,1.99146 1.222333,0 1.682261,0.47587 2.130044,2.2039 1.304505,5.03417 5.212187,9.46223 9.920433,11.24151 1.95343,0.73822 5.653745,0.7801 7.752386,0.0878 z m 13.67886,-23.02148 c 0,-0.12534 -0.31715,-0.16727 -0.70477,-0.0932 -0.54552,0.10429 -0.6708,0.0462 -0.5544,-0.25717 0.0888,-0.23153 -0.002,-0.39191 -0.22126,-0.39191 -0.385,0 -0.50425,0.48477 -0.19526,0.79375 0.25885,0.25886 1.67569,0.21531 1.67569,-0.0515 z m -33.072913,-0.2765 c 0,-0.1319 -0.238125,-0.17755 -0.529167,-0.10144 -0.291041,0.0761 -0.529166,0.18403 -0.529166,0.23982 0,0.0558 0.238125,0.10143 0.529166,0.10143 0.291042,0 0.529167,-0.10792 0.529167,-0.23981 z m -0.396875,-0.49185 c 0.461394,-0.33898 0.413625,-0.83909 -0.132292,-1.38501 -0.318538,-0.31854 -0.529815,-0.39752 -0.530796,-0.19843 -8.97e-4,0.1819 -0.185888,-0.0226 -0.411091,-0.45452 -0.225203,-0.43189 -0.347347,-1.03273 -0.27143,-1.33521 0.07592,-0.30247 0.03302,-0.90161 -0.09533,-1.33141 -0.18268,-0.61174 -0.237424,-0.32175 -0.252055,1.3352 -0.01287,1.45728 0.06121,1.99303 0.237791,1.71979 0.199478,-0.30867 0.25738,-0.23332 0.260531,0.33903 0.0023,0.4245 0.181383,0.80396 0.423111,0.89672 0.337403,0.12947 0.350292,0.2044 0.06615,0.38452 -0.282878,0.17931 -0.274154,0.22371 0.04396,0.22371 0.218281,0 0.515937,-0.0875 0.661458,-0.19439 z m 33.734378,0.0985 c 0,-0.25099 -0.792,-0.37749 -0.93319,-0.14905 -0.086,0.13917 0.0888,0.25303 0.38841,0.25303 0.29963,0 0.54478,-0.0468 0.54478,-0.10398 z m -1.58345,-0.75591 c 0.003,-0.22049 0.0895,-0.19844 0.26053,0.0661 0.21813,0.33754 0.25709,0.33951 0.26053,0.0132 0.003,-0.29839 0.0746,-0.31309 0.32155,-0.0661 0.80648,0.80647 1.00631,0.36098 0.95542,-2.1299 l -0.05,-2.4474 -0.16458,2.38125 c -0.0905,1.30969 -0.18709,2.05383 -0.21459,1.65365 -0.0308,-0.44815 -0.20243,-0.7276 -0.44687,-0.7276 -0.21828,0 -0.39688,-0.1786 -0.39688,-0.39688 0,-0.21828 -0.22764,-0.39687 -0.50586,-0.39687 -0.39504,0 -0.48819,0.15941 -0.42516,0.7276 0.0444,0.40018 -0.0409,0.80359 -0.18949,0.89646 -0.30186,0.18864 -0.0448,0.75719 0.34238,0.75719 0.13693,0 0.25079,-0.14883 0.25302,-0.33073 z m 0.65741,-0.72761 c 0.0899,-0.14552 0.21602,-0.26458 0.28019,-0.26458 0.0642,0 0.11668,0.11906 0.11668,0.26458 0,0.14552 -0.12609,0.26459 -0.2802,0.26459 -0.15411,0 -0.20661,-0.11907 -0.11667,-0.26459 z M 80.70656,116.9274 c -0.07811,-0.20356 -0.0267,-0.37011 0.114254,-0.37011 0.140954,0 0.25628,-0.18562 0.25628,-0.41249 0,-0.25957 0.122606,-0.33883 0.330729,-0.2138 0.192407,0.1156 0.164742,-0.009 -0.06615,-0.2985 -0.360033,-0.45105 -0.353892,-0.4811 0.06615,-0.32368 0.537856,0.20157 0.66236,-0.46796 0.132292,-0.71141 -0.181902,-0.0836 -0.04793,-0.0807 0.297717,0.006 0.463874,0.11677 0.57442,0.0708 0.42214,-0.17561 -0.129386,-0.20935 -0.09923,-0.26764 0.08088,-0.15632 0.15795,0.0976 0.352044,0.0725 0.43132,-0.0557 0.07928,-0.12827 0.445278,-0.20016 0.813337,-0.15976 0.384789,0.0422 0.601159,-0.0366 0.509107,-0.18557 -0.08805,-0.14247 -0.21366,-0.20546 -0.279134,-0.13999 -0.06547,0.0655 -0.540032,0.0241 -1.054575,-0.092 -1.144128,-0.25805 -1.9486,0.37549 -1.831491,1.44233 0.05748,0.52367 -0.04388,0.68245 -0.435698,0.68245 -0.390208,0 -0.471009,0.12478 -0.342662,0.52917 0.0989,0.31159 0.04755,0.52916 -0.124894,0.52916 -0.190981,0 -0.174174,0.12839 0.04832,0.36911 0.406298,0.43957 0.833544,0.26142 0.632085,-0.26358 z m -1.13642,-0.92995 c -0.24028,-2.92903 -0.339483,-3.53932 -0.588832,-3.62244 -0.163062,-0.0543 -0.296773,0.28301 -0.311838,0.78679 -0.02435,0.81429 -0.04144,0.83121 -0.222812,0.22049 -0.166611,-0.56102 -0.176895,0.40871 -0.03295,3.10719 0.01013,0.18999 0.269169,0.28885 0.612866,0.23391 0.443345,-0.0709 0.582103,-0.25618 0.543566,-0.72594 z m -0.991338,0.0553 c -0.08155,-0.13195 0.09002,-0.1776 0.38126,-0.10144 0.617799,0.16156 0.695893,0.34135 0.148272,0.34135 -0.209694,0 -0.447983,-0.10796 -0.529532,-0.23991 z m 30.903238,0.3692 c -0.10963,-0.28571 -0.0322,-0.35333 0.27137,-0.23686 0.23365,0.0897 0.35894,0.2696 0.27843,0.39987 -0.0805,0.13028 -0.0104,0.23686 0.15586,0.23686 0.54461,0 0.0987,-0.65577 -0.61821,-0.90915 -0.88652,-0.31333 -1.23103,-0.001 -0.55954,0.5066 0.64284,0.48633 0.65772,0.48642 0.47209,0.003 z m 3.24601,-1.43624 c -0.0959,-0.59995 -0.0541,-1.11192 0.0985,-1.20624 0.14584,-0.0901 0.25679,-0.36521 0.24656,-0.61128 -0.0149,-0.35975 -0.0591,-0.34373 -0.22543,0.0818 l -0.20684,0.52916 -0.15169,-0.52916 c -0.0834,-0.29104 -0.22892,-0.91318 -0.32332,-1.38254 -0.0944,-0.46935 -0.31165,-0.82653 -0.48277,-0.79375 -0.1826,0.035 -0.28252,-0.2009 -0.24187,-0.57096 0.0381,-0.34682 -0.0658,-0.7933 -0.23083,-0.99218 -0.27742,-0.33427 -0.14291,-0.47524 0.37132,-0.38917 0.11538,0.0193 0.0773,-0.2124 -0.0846,-0.51492 -0.23552,-0.44006 -0.37003,-0.48723 -0.67279,-0.23596 -0.20813,0.17273 -0.37843,0.37359 -0.37843,0.44635 0,0.0728 0.1786,-0.0159 0.39688,-0.19708 0.28594,-0.23731 0.39687,-0.24404 0.39687,-0.0241 0,0.1679 -0.17859,0.37381 -0.39687,0.45758 -0.21828,0.0838 -0.39688,0.43721 -0.39688,0.78544 0,0.56229 -0.11845,0.63315 -1.05833,0.63315 -0.58208,0 -1.05833,0.11171 -1.05833,0.24824 0,0.13654 -0.5358,0.22583 -1.19065,0.19844 -1.14217,-0.0478 -1.4887,0.13161 -0.92602,0.47936 0.33871,0.20934 0.34495,1.11886 0.008,1.23473 -0.1631,0.0562 -0.16457,0.23232 -0.004,0.48507 0.2132,0.33569 0.25268,0.32308 0.2561,-0.0818 0.002,-0.26325 0.12355,-0.40479 0.26961,-0.31452 0.14605,0.0903 0.22294,0.42472 0.17087,0.74322 -0.0521,0.3185 -0.0438,0.43027 0.0184,0.24837 0.24383,-0.71293 0.77018,-0.23918 0.62399,0.56162 -0.0232,0.127 0.13525,0.16283 0.35207,0.0796 0.255,-0.0978 0.34665,-0.0273 0.25951,0.19977 -0.089,0.23202 0.1403,0.3914 0.67644,0.47009 1.02748,0.1508 1.26141,-0.067 0.5061,-0.47125 l -0.58322,-0.31213 0.57492,-0.18247 c 0.33664,-0.10685 0.57492,-0.40087 0.57492,-0.70943 0,-0.28982 0.11906,-0.45336 0.26458,-0.36343 0.14552,0.0899 0.26458,0.75884 0.26458,1.48644 0,0.81457 0.10167,1.26008 0.26459,1.1594 0.14552,-0.0899 0.26458,-0.69228 0.26458,-1.33853 0,-0.64626 -0.11906,-1.17501 -0.26458,-1.17501 -0.14552,0 -0.26459,-0.29766 -0.26459,-0.66146 0,-0.41421 -0.14969,-0.66146 -0.40046,-0.66146 -0.46109,0 -1.49258,0.53714 -1.7783,0.92604 -0.11871,0.16159 -0.19596,0.12976 -0.19843,-0.0818 -0.002,-0.19349 -0.13851,-0.26324 -0.30872,-0.15805 -0.21471,0.1327 -0.17565,0.28263 0.13229,0.5078 0.24033,0.17573 0.43696,0.4698 0.43696,0.65347 0,0.50027 -0.6951,-0.13993 -1.1568,-1.06544 -0.37056,-0.7428 -0.36693,-0.74885 0.39139,-0.65288 0.53187,0.0673 0.76541,-0.0183 0.76541,-0.28074 0,-0.2488 0.29332,-0.37899 0.85989,-0.38166 1.12999,-0.005 1.56417,-0.30852 1.61334,-1.12662 0.0622,-1.03404 0.38839,-0.58318 0.35784,0.49453 -0.0182,0.64209 0.11966,1.03454 0.42305,1.20433 0.48642,0.27221 0.62522,1.2839 0.17615,1.2839 -0.1888,0 -0.1888,0.15899 0,0.51177 0.15064,0.28147 0.27389,0.79344 0.27389,1.13771 0,0.54879 0.42256,1.26093 0.7482,1.26093 0.0622,0 0.0382,-0.46906 -0.0535,-1.04236 z m -29.434844,-0.3575 c 0.09083,0.0908 0.165138,0.0928 0.165138,0.004 0,-0.50885 -0.534031,-0.34897 -0.912804,0.27329 l -0.441519,0.72533 0.512024,-0.58406 c 0.281613,-0.32124 0.586336,-0.50975 0.677161,-0.41893 z m 8.631805,0.59662 -0.661459,-0.17912 0.702961,-0.19277 c 0.395468,-0.10846 0.937603,-0.0672 1.239377,0.0943 0.295029,0.1579 0.871665,0.27087 1.281414,0.25105 0.721122,-0.0349 0.723799,-0.0402 0.08354,-0.16526 -0.604508,-0.1181 -0.616535,-0.14555 -0.139687,-0.31877 0.46514,-0.16897 0.444471,-0.20431 -0.190431,-0.32568 -0.391711,-0.0749 -0.667468,-0.0638 -0.612795,0.0247 0.05467,0.0885 -0.886125,0.19121 -2.090663,0.22831 -1.703676,0.0525 -2.264695,-0.0224 -2.526087,-0.33741 -0.279359,-0.33661 -0.2673,-0.37851 0.07152,-0.24849 0.224145,0.086 0.497507,0.0108 0.607471,-0.16712 0.127852,-0.20687 0.08981,-0.25543 -0.105529,-0.13471 -0.187898,0.11613 -0.305464,0.005 -0.305464,-0.28985 0,-0.38816 -0.216736,-0.47864 -1.146527,-0.47864 -0.740834,0 -1.146528,0.11703 -1.146528,0.33073 0,0.1819 0.106245,0.33073 0.236101,0.33073 0.129855,0 0.18204,0.0893 0.115965,0.19844 -0.06607,0.10914 0.06862,0.37313 0.299333,0.58665 0.371905,0.34418 0.399698,0.33668 0.245116,-0.0662 -0.229364,-0.59771 -0.04267,-0.5732 0.934702,0.12275 0.738146,0.52561 0.765403,0.59458 0.305427,0.7728 -0.281703,0.10915 0.372494,0.18396 1.479328,0.16917 1.211383,-0.0162 1.726711,-0.0963 1.322917,-0.20565 z m -11.641667,-0.68708 c 0,-0.23759 0.256342,-0.65431 0.56965,-0.92604 0.313308,-0.27173 0.43237,-0.49405 0.264584,-0.49405 -0.167787,0 -0.305068,-0.1786 -0.305068,-0.39688 0,-0.22049 -0.235185,-0.39687 -0.529166,-0.39687 -0.458611,0 -0.529167,0.17638 -0.529167,1.32291 0,0.72761 0.119062,1.32292 0.264583,1.32292 0.145521,0 0.264584,-0.19439 0.264584,-0.43199 z m 17.234088,-0.30561 c -0.190881,-0.0636 -0.472852,0.0101 -0.626602,0.16386 -0.196339,0.19634 -0.09304,0.23078 0.347056,0.11569 0.357771,-0.0936 0.477705,-0.21349 0.279546,-0.27955 z m 1.489856,-0.44647 c 0.10657,-0.11252 -0.103892,-0.11924 -0.467694,-0.0149 l -0.661458,0.18966 0.63685,-0.46547 c 0.350268,-0.25601 1.064643,-0.46547 1.587504,-0.46547 0.52285,0 0.80182,-0.0496 0.61992,-0.11024 -0.40135,-0.13378 -0.44402,-0.8599 -0.0505,-0.8599 0.15411,0 0.19617,0.14883 0.0935,0.33073 -0.14824,0.26257 -0.11419,0.26347 0.16519,0.004 0.47445,-0.43996 0.0821,-0.78433 -0.488,-0.42831 -0.27771,0.17344 -0.689529,0.19664 -1.059709,0.0597 -0.385745,-0.1427 -0.546933,-0.12926 -0.444159,0.037 0.08873,0.14356 0.325859,0.26102 0.526964,0.26102 0.201105,0 0.4345,0.11141 0.518657,0.24757 0.095,0.15372 -0.174269,0.15372 -0.710243,0 -1.059133,-0.30375 -0.999039,-0.30571 -0.999039,0.0326 0,0.15411 0.119063,0.20662 0.264583,0.11668 0.145521,-0.0899 0.264584,-0.0236 0.264584,0.14754 0,0.18086 -0.221632,0.2531 -0.529532,0.17258 -0.291243,-0.0762 -0.46281,-0.0305 -0.38126,0.10143 0.08155,0.13195 -0.325083,0.23991 -0.903628,0.23991 -0.593957,0 -1.109998,0.14398 -1.185352,0.33073 -0.08427,0.20885 -0.14115,0.17053 -0.15434,-0.10399 -0.01149,-0.23909 -0.18634,-0.4982 -0.388559,-0.5758 -0.251854,-0.0966 -0.356034,0.0461 -0.33073,0.45308 0.03497,0.56241 0.139713,0.59175 1.959844,0.54908 1.057596,-0.0248 2.010096,-0.13715 2.116667,-0.24967 z m -13.819493,-0.68669 0.420123,-0.81243 -1.207079,0.18101 c -1.00911,0.15133 -1.207079,0.111 -1.207079,-0.2459 0,-0.25053 -0.218635,-0.42692 -0.529166,-0.42692 -0.291042,0 -0.529167,0.11906 -0.529167,0.26458 0,0.14552 0.160141,0.26459 0.355868,0.26459 0.195727,0 0.571368,0.23812 0.834757,0.52916 0.263389,0.29104 0.63903,0.52917 0.834757,0.52917 0.195728,0 0.355868,0.11906 0.355868,0.26458 0,0.47736 0.24394,0.27823 0.671118,-0.54784 z m 8.060132,0.42486 c 0,-0.4981 -0.961926,-1.04081 -1.190182,-0.67148 -0.09018,0.14591 -0.662953,0.28531 -1.272828,0.30977 l -1.108865,0.0445 0.992188,0.10379 c 0.545703,0.0571 0.992187,0.21566 0.992187,0.35239 0,0.13674 0.357188,0.24862 0.79375,0.24862 0.520694,0 0.79375,-0.13333 0.79375,-0.38757 z m -6.807985,-0.0506 c -0.179132,-0.0725 -0.536319,-0.0769 -0.79375,-0.01 -0.257431,0.0671 -0.110869,0.12638 0.325694,0.13177 0.436562,0.005 0.647187,-0.0495 0.468056,-0.12197 z m -7.80534,-1.95909 c 1.852085,-2.10186 2.233163,-2.74559 2.135508,-3.60743 -0.05718,-0.50458 0.02716,-0.71894 0.263399,-0.66952 0.192908,0.0404 0.268214,-0.0556 0.169276,-0.21567 -0.119716,-0.19371 -0.343854,-0.13848 -0.682747,0.16821 -0.277487,0.25112 -0.446111,0.515 -0.374721,0.58639 0.07139,0.0714 -0.07671,0.29697 -0.329107,0.50128 -0.411791,0.33335 -0.397787,0.34187 0.136404,0.083 0.484121,-0.2346 0.595313,-0.21262 0.595313,0.1177 0,0.2234 -0.148828,0.41992 -0.330729,0.4367 -0.181901,0.0168 -0.449792,0.0582 -0.595313,0.092 -0.145521,0.0338 -0.368458,0.0796 -0.495417,0.10178 -0.126959,0.0222 -0.109134,0.18912 0.03961,0.37102 0.286305,0.35013 -0.261359,1.11287 -0.574334,0.7999 -0.08827,-0.0883 -0.160485,-0.0216 -0.160485,0.1482 0,0.16977 0.139817,0.30868 0.310704,0.30868 0.170887,0 0.05183,0.27556 -0.264583,0.61236 -0.316408,0.3368 -0.566919,0.78329 -0.556691,0.99219 0.0148,0.30234 0.05528,0.2956 0.198437,-0.033 0.09891,-0.22707 0.330877,-0.58426 0.515475,-0.79375 z m 10.271732,0.50626 c 0.08898,-0.14397 -0.613724,-0.21387 -1.703976,-0.1695 -1.125588,0.0458 -1.704373,0.16002 -1.471449,0.29037 0.21117,0.11818 0.634579,0.13532 0.940908,0.0381 0.307732,-0.0977 0.491241,-0.0704 0.410095,0.0609 -0.08078,0.1307 0.262605,0.18984 0.763069,0.13141 0.500464,-0.0584 0.978073,-0.21648 1.061353,-0.35123 z m 12.909216,0.15743 c 0.0904,-0.23546 0.046,-0.34166 -0.10399,-0.24897 -0.14385,0.0889 -0.26155,0.27369 -0.26155,0.41062 0,0.38059 0.18965,0.29672 0.36554,-0.16165 z m -4.334289,-0.11855 c 0,-0.14552 -0.208359,-0.26276 -0.463021,-0.26053 -0.395697,0.003 -0.405314,0.0413 -0.06615,0.26053 0.499325,0.32269 0.529167,0.32269 0.529167,0 z M 80.81251,111.39792 c 0,-0.3638 -0.119062,-0.66145 -0.264583,-0.66145 -0.145521,0 -0.264583,0.29765 -0.264583,0.66145 0,0.36381 0.119062,0.66146 0.264583,0.66146 0.145521,0 0.264583,-0.29765 0.264583,-0.66146 z m 25.01019,-0.11002 c -0.0885,-0.2788 -0.0422,-0.58027 0.10291,-0.66993 0.42585,-0.2632 0.0313,-0.89266 -0.47627,-0.75991 -0.25543,0.0668 -0.61951,-0.0654 -0.80906,-0.29382 -0.37745,-0.4548 -1.0736,-0.56264 -1.0736,-0.16631 0,0.13694 0.121,0.32376 0.2689,0.41516 0.14789,0.0914 0.18457,0.30679 0.0815,0.47864 -0.13808,0.23021 -0.0834,0.22831 0.20789,-0.007 0.51359,-0.41533 1.56992,-0.15059 1.37947,0.34573 -0.15241,0.39716 0.0589,1.16455 0.32072,1.16455 0.0871,0 0.086,-0.22811 -0.002,-0.5069 z m 6.77211,-0.20086 c -0.3119,-0.53637 -0.38722,-0.36469 -0.1319,0.30066 0.0907,0.23645 0.22071,0.37418 0.28883,0.30606 0.0681,-0.0681 -0.002,-0.34114 -0.15693,-0.60672 z m -9.46487,-0.22676 c -0.083,-0.21619 3.7e-4,-0.3884 0.18794,-0.3884 0.18535,0 0.26049,-0.0765 0.167,-0.16999 -0.0935,-0.0935 -0.35147,-0.0194 -0.57327,0.16469 -0.25547,0.21202 -0.40327,0.23066 -0.40327,0.0509 0,-0.15611 0.20836,-0.40519 0.46303,-0.55352 0.25466,-0.14833 0.32121,-0.27331 0.1479,-0.27773 -0.17331,-0.004 -0.39655,0.12373 -0.49609,0.28478 -0.12992,0.21022 -0.23591,0.20396 -0.37567,-0.0222 -0.1404,-0.22716 -0.23934,-0.19868 -0.35477,0.10215 -0.0943,0.2456 0.0703,0.63181 0.40012,0.93908 0.60794,0.56637 1.07634,0.49379 0.83708,-0.12973 z m 1.56625,-0.0328 c -0.17913,-0.0725 -0.53632,-0.0769 -0.79375,-0.01 -0.25743,0.0671 -0.11087,0.12638 0.3257,0.13177 0.43656,0.005 0.64718,-0.0495 0.46805,-0.12197 z m 2.31007,-2.3076 c 0,-0.70675 -0.1547,-1.28661 -0.39687,-1.4876 -0.34478,-0.28614 -0.39688,-0.13409 -0.39688,1.15823 0,1.14592 0.0912,1.4876 0.39688,1.4876 0.29233,0 0.39687,-0.30508 0.39687,-1.15823 z m -4.23333,-0.69385 c 0,-0.14552 -0.12609,-0.26458 -0.2802,-0.26458 -0.15411,0 -0.20661,0.11906 -0.11668,0.26458 0.0899,0.14552 0.21603,0.26458 0.2802,0.26458 0.0642,0 0.11668,-0.11906 0.11668,-0.26458 z m 3.175,0 c 0,-0.14552 -0.12609,-0.26458 -0.2802,-0.26458 -0.15411,0 -0.20661,0.11906 -0.11668,0.26458 0.0899,0.14552 0.21603,0.26458 0.2802,0.26458 0.0642,0 0.11668,-0.11906 0.11668,-0.26458 z m -23.812503,-0.52917 c 0,-0.14552 -0.126089,-0.26458 -0.280198,-0.26458 -0.154109,0 -0.206614,0.11906 -0.116677,0.26458 0.08994,0.14552 0.216026,0.26459 0.280198,0.26459 0.06417,0 0.116677,-0.11907 0.116677,-0.26459 z m 1.322917,-0.89783 c 0,-0.40813 1.000766,-1.12131 1.408729,-1.00391 0.119957,0.0345 0.142696,-0.0592 0.05053,-0.20837 -0.09811,-0.15874 0.140528,-0.28207 0.575646,-0.29751 l 0.743219,-0.0264 -0.661458,-0.18917 c -0.363803,-0.10404 -0.698917,-0.0989 -0.744699,0.0115 -0.04578,0.11037 -0.25901,0.13323 -0.47384,0.0508 -0.242232,-0.093 -0.361366,-0.0119 -0.313635,0.2133 0.04396,0.20743 -0.120386,0.34763 -0.383208,0.32691 -0.253096,-0.0199 -0.402608,0.0569 -0.332249,0.17072 0.07036,0.11384 -0.04183,0.27212 -0.2493,0.35174 -0.264192,0.10138 -0.347162,-0.0113 -0.276895,-0.37622 0.05518,-0.28653 -0.0052,-0.45576 -0.134159,-0.37605 -0.244449,0.15108 -0.191448,0.68882 0.156619,1.589 0.188112,0.48651 0.16519,0.49717 -0.284311,0.1323 -0.459494,-0.37299 -0.467642,-0.36271 -0.135387,0.17089 0.293427,0.47124 0.413111,0.50819 0.703965,0.21734 0.192737,-0.19274 0.350432,-0.53335 0.350432,-0.7569 z M 109.0159,107.256 c 0.11024,-0.17837 0.0732,-0.23405 -0.0889,-0.13381 -0.15276,0.0944 -0.34368,-1.9e-4 -0.42428,-0.21023 -0.10457,-0.27249 -0.0178,-0.33365 0.303,-0.21352 0.39229,0.14691 0.4033,0.1115 0.0864,-0.27806 -0.33742,-0.41482 -1.09208,-0.62545 -1.09208,-0.30481 0,0.1786 0.82464,1.4459 0.94086,1.4459 0.0474,0 0.1712,-0.13746 0.27503,-0.30547 z m 1.0937,0.14561 c -0.0879,-0.0879 -0.31612,-0.0973 -0.50711,-0.0209 -0.21107,0.0845 -0.14838,0.14716 0.15985,0.15986 0.27891,0.0115 0.43518,-0.0511 0.34726,-0.13897 z m -28.205007,-1.09692 c 0.321288,-0.40967 0.314595,-0.42518 -0.05809,-0.13458 -0.231671,0.18064 -0.51865,0.24017 -0.637732,0.13229 -0.119082,-0.10788 -0.130866,-0.0473 -0.02619,0.13459 0.246006,0.42748 0.289213,0.41956 0.722012,-0.1323 z m 27.747497,0.0986 c 0,-0.0549 -0.20835,-0.2633 -0.46302,-0.46302 -0.41964,-0.32911 -0.429,-0.31975 -0.0999,0.0999 0.34564,0.44073 0.56291,0.58089 0.56291,0.36313 z m -4.74638,-1.17356 c -0.1562,-0.0521 -0.20463,-0.23332 -0.10764,-0.40279 0.097,-0.16947 0.0865,-0.22746 -0.0233,-0.12886 -0.10981,0.0986 -0.75397,-0.11779 -1.43148,-0.48088 -0.991,-0.53109 -1.10252,-0.55436 -0.57038,-0.11901 0.3638,0.29763 0.84005,0.55216 1.05833,0.56562 0.50714,0.0313 -0.48908,0.48026 -1.05833,0.47697 -0.2686,-0.002 -0.28944,-0.0456 -0.0645,-0.13629 0.18281,-0.0737 0.26151,-0.24868 0.17488,-0.38884 -0.0963,-0.15584 -0.30738,-0.13044 -0.54334,0.0654 -0.55574,0.46123 -0.0598,0.67638 1.51783,0.65848 0.73254,-0.008 1.2041,-0.0577 1.04791,-0.10979 z m 2.04816,-0.17346 c 0.31791,-0.31791 -0.27237,-0.49488 -0.71944,-0.21568 -0.36379,0.22719 -0.57013,0.22472 -0.8351,-0.01 -0.29054,-0.25738 -0.29349,-0.23423 -0.0169,0.13278 0.30289,0.40191 1.20887,0.45548 1.57143,0.0929 z m -22.28706,-1.22779 c 0.09878,-0.15983 -0.132712,-0.086 -0.514431,0.16415 -0.38172,0.25011 -0.694035,0.50477 -0.694035,0.56592 0,0.19139 1.019697,-0.42463 1.208466,-0.73007 z m 10.09696,-0.66015 c -0.08792,-0.0879 -0.316122,-0.0973 -0.507119,-0.0209 -0.211066,0.0845 -0.148372,0.14716 0.159853,0.15985 0.278915,0.0115 0.435184,-0.051 0.347266,-0.13896 z M 87.028346,102.802 c 0.09269,-0.14999 -0.01351,-0.19434 -0.248969,-0.10399 -0.458368,0.17589 -0.542233,0.36554 -0.161648,0.36554 0.136933,0 0.32171,-0.1177 0.410617,-0.26155 z m 5.760552,-0.0576 c 1.098808,0.0216 1.211696,-0.0243 0.878795,-0.3572 -0.537631,-0.53763 -1.733709,-0.47458 -2.952209,0.15562 l -1.039432,0.53759 0.926042,-0.18039 c 0.509323,-0.0992 1.493385,-0.16925 2.186804,-0.15562 z m 6.838636,0.10855 c -0.163618,-0.0545 -0.244175,-0.18542 -0.179017,-0.29085 0.06516,-0.10543 -0.499646,-0.19562 -1.255122,-0.20042 -1.074819,-0.007 -1.229717,0.039 -0.712134,0.21058 0.481396,0.1596 0.335732,0.18793 -0.535096,0.10404 -0.658105,-0.0634 -1.361018,-0.0136 -1.562029,0.11061 -0.216243,0.13364 0.636215,0.21349 2.087705,0.19554 1.349249,-0.0167 2.319311,-0.075 2.155693,-0.1295 z m -10.719395,-0.77778 c -0.156837,-0.15684 -0.951878,0.25224 -0.951878,0.48978 0,0.13119 0.23271,0.0932 0.517133,-0.0844 0.284424,-0.17762 0.480059,-0.36003 0.434745,-0.40534 z m 0.900205,0.45923 c 0.218281,-0.14106 0.277813,-0.25648 0.132292,-0.25648 -0.145521,0 -0.443177,0.11542 -0.661459,0.25648 -0.218281,0.14107 -0.277812,0.25648 -0.132291,0.25648 0.145521,0 0.443177,-0.11541 0.661458,-0.25648 z m 11.641666,-0.0661 c 0,-0.10914 -0.2311,-0.19844 -0.51355,-0.19844 -0.28245,0 -0.56874,0.0893 -0.63619,0.19844 -0.0675,0.10914 0.16364,0.19843 0.51355,0.19843 0.3499,0 0.63619,-0.0893 0.63619,-0.19843 z m -4.965835,-0.39596 c 0.688529,-0.0734 1.196009,-0.22384 1.127732,-0.33431 -0.207201,-0.33526 -2.487733,-0.5771 -3.626976,-0.38463 -1.381583,0.23342 -0.806949,0.63445 0.685767,0.47859 l 1.090771,-0.11389 -0.79375,0.41216 c -0.436562,0.22669 -0.555625,0.33642 -0.264583,0.24384 0.291042,-0.0926 1.092509,-0.22837 1.781039,-0.30176 z m -5.617498,-0.0671 c -0.518152,-0.33486 -0.86841,-0.33486 -0.661458,0 0.08994,0.14552 0.364854,0.26276 0.610927,0.26053 0.385571,-0.003 0.392555,-0.0395 0.05053,-0.26053 z m 8.995834,-0.10144 c 0,-0.0558 -0.238289,-0.16374 -0.529532,-0.23991 -0.291242,-0.0762 -0.462809,-0.0305 -0.38126,0.10144 0.142412,0.23042 0.910792,0.34725 0.910792,0.13847 z"
         id="path2" /><path
         style="fill:#311b09"
         d="m 70.267862,186.14611 c -2.680565,-0.64154 -4.92302,-2.39197 -5.878137,-4.58841 -0.797128,-1.83311 -0.926374,-4.56339 -0.402415,-8.50087 0.553222,-4.15739 0.56371,-4.03865 -0.374918,-4.2448 -1.500413,-0.32955 -1.527022,-0.93257 -0.256826,-5.82035 1.21094,-4.65977 2.58882,-9.01973 3.193903,-10.10633 2.596665,-4.66304 6.437443,-7.02484 14.96394,-9.20174 3.87188,-0.98853 4.13118,-1.25394 2.736724,-2.80129 -2.011881,-2.23246 -4.760539,-7.08265 -4.760539,-8.40028 0,-0.61862 -0.411232,-0.9753 -1.395733,-1.2106 -1.084649,-0.25923 -2.748102,-1.89016 -3.218352,-3.15544 -0.882169,-2.37361 -0.723253,-4.28779 0.506407,-6.09979 0.555035,-0.81789 0.610881,-1.07356 0.369135,-1.68994 -0.156661,-0.39945 -0.343777,-1.97642 -0.415814,-3.50439 -0.230393,-4.88689 0.943411,-8.51104 3.751324,-11.58231 3.828461,-4.18754 8.909514,-6.144771 15.952069,-6.144771 4.220757,0 8.11699,1.005971 9.87865,2.550561 0.2335,0.20474 1.30506,0.61618 2.38125,0.91431 3.89442,1.07888 6.73474,4.27349 7.83999,8.81792 0.44913,1.84667 0.5138,7.22913 0.10292,8.56627 -0.23899,0.77773 -0.17735,1.00201 0.56465,2.05469 0.66808,0.94781 0.85375,1.50894 0.93821,2.83535 0.0579,0.90952 -0.0333,2.16837 -0.20268,2.79744 -0.39046,1.45006 -2.11927,3.20589 -3.68504,3.74263 -1.09896,0.37672 -1.19075,0.48921 -1.80764,2.21533 -0.35744,1.00015 -0.95389,2.36937 -1.32543,3.04271 -0.77315,1.40112 -3.23048,4.53154 -3.5572,4.53154 -0.449,0 -0.22482,1.5499 0.24464,1.69132 0.25466,0.0767 1.59411,0.43727 2.97656,0.80122 6.75586,1.77863 9.68379,3.16079 12.31624,5.81401 1.9429,1.95822 2.8582,3.51424 3.8391,6.5265 0.79538,2.44257 1.80546,6.33362 1.64415,6.33362 -0.0755,0 -0.0142,0.14883 0.13613,0.33073 0.15033,0.1819 0.46765,1.27306 0.70515,2.42479 0.23751,1.15174 0.48666,2.18279 0.55368,2.29123 0.26989,0.4367 -0.24215,1.0203 -1.24845,1.42294 -0.73984,0.29603 -1.01764,0.54404 -0.91347,0.81549 0.0823,0.21456 0.34495,2.19195 0.5836,4.39421 0.33188,3.0625 0.36823,4.33116 0.15461,5.39489 -0.63585,3.16612 -2.21263,5.12488 -5.04974,6.27308 l -1.47621,0.59743 -24.738539,0.0417 c -13.606199,0.023 -25.137853,-0.0538 -25.625899,-0.17063 z m 48.073018,-2.52938 c 0.37703,-0.8275 0.39668,-1.63335 0.0427,-1.75144 -0.1454,-0.0485 -10.56337,-0.0571 -23.151046,-0.0191 l -22.886691,0.069 v 0.67596 c 0,0.37177 0.123252,0.90625 0.273893,1.18772 0.267503,0.49984 0.800385,0.51178 22.843989,0.51178 h 22.570095 z m -48.111703,-1.56005 c 0,-2.0535 0.458432,-2.52854 2.440121,-2.52854 0.834633,0 1.264182,-0.11236 1.264448,-0.33073 8.25e-4,-0.67748 -0.855501,-8.27201 -0.943368,-8.36648 -0.231969,-0.24941 -6.06521,-1.333 -6.23417,-1.15806 -0.226304,0.23431 -1.024948,6.93901 -1.024948,8.60454 0,1.62036 1.171058,3.83137 2.513542,4.74569 1.713525,1.16702 1.984375,1.03511 1.984375,-0.96642 z m 52.422573,0.94567 c 1.61956,-1.0271 2.43378,-2.71656 2.43944,-5.06172 0.007,-2.69338 -0.67626,-8.46835 -0.99953,-8.4543 -0.1564,0.007 -1.5909,0.27925 -3.18778,0.60545 -2.81595,0.57523 -2.90895,0.61671 -3.087,1.37671 -0.24912,1.06336 -0.76216,5.84054 -0.759,7.06746 l 0.003,0.99219 h 1.32292 c 1.87171,0 2.38125,0.56615 2.38125,2.64583 0,1.85875 0.15508,1.92683 1.88715,0.82838 z m -7.86502,-4.4664 c 0.0847,-0.54571 0.33345,-2.59953 0.55268,-4.56407 0.80841,-7.24392 0.97341,-8.63325 1.21232,-10.20813 0.35417,-2.33464 0.30661,-4.22729 -0.11501,-4.57721 -0.25529,-0.21186 -6.13311,-0.34626 -20.327481,-0.46478 -20.582407,-0.17187 -21.638132,-0.1309 -22.016182,0.85428 -0.08341,0.21737 0.07793,2.38451 0.358547,4.81585 0.280615,2.43134 0.582008,5.07546 0.669761,5.87583 0.507508,4.62876 0.697473,6.37593 0.841451,7.73906 l 0.160689,1.52136 h 19.254581 19.254584 z m -21.739098,-1.69519 c -0.180879,-0.18088 -0.32691,-0.45389 -0.324512,-0.60669 0.01149,-0.73246 3.960881,-11.41387 4.299091,-11.62721 0.490496,-0.3094 1.213884,-0.0401 1.434151,0.53392 0.0946,0.24653 -0.456194,2.26366 -1.247899,4.57007 -2.577828,7.50976 -2.485264,7.2957 -3.191818,7.38126 -0.352079,0.0426 -0.788134,-0.0705 -0.969013,-0.25135 z m -3.819598,-2.03512 c -0.190152,-0.26904 -0.97081,-1.18267 -1.734794,-2.0303 -0.763985,-0.84762 -1.389063,-1.64666 -1.389063,-1.77563 0,-0.20258 1.30496,-1.68913 3.361411,-3.82917 0.640575,-0.66661 1.385371,-0.78146 1.877339,-0.28949 0.562247,0.56225 0.340461,1.10987 -0.996555,2.46063 -0.720201,0.7276 -1.311099,1.44198 -1.313108,1.5875 -0.002,0.14552 0.46922,0.79605 1.047173,1.44562 1.458175,1.63886 1.393926,2.92 -0.146438,2.92 -0.198128,0 -0.515812,-0.22012 -0.705965,-0.48916 z m 11.229786,0.31393 c -0.692309,-0.27935 -0.30376,-1.34753 0.99665,-2.73996 l 1.32738,-1.42131 -1.12894,-1.20009 c -0.62092,-0.66006 -1.21824,-1.24208 -1.32738,-1.29339 -0.10914,-0.0513 -0.19844,-0.43828 -0.19844,-0.85994 0,-0.60879 0.14446,-0.80292 0.70153,-0.94273 0.62174,-0.15605 0.90627,0.0465 2.50202,1.78089 1.21224,1.31759 1.80198,2.17308 1.80502,2.61843 0.003,0.45469 -0.52589,1.21972 -1.69234,2.44739 -1.57656,1.65933 -2.12788,1.95677 -2.9855,1.61071 z m 21.4974,-7.48486 c 0.87313,-0.1654 2.1555,-0.39715 2.84971,-0.515 0.69422,-0.11785 1.30611,-0.26143 1.35976,-0.31907 0.27866,-0.2994 -2.89103,-11.17571 -3.75664,-12.89034 -1.72123,-3.40946 -5.21285,-5.7863 -10.90387,-7.42256 -5.4056,-1.55419 -5.80512,-1.56986 -5.81678,-0.22808 -0.012,1.37562 -2.16606,4.35066 -4.1051,5.66959 -1.45621,0.99051 -3.872494,1.66972 -5.940041,1.66972 -3.16812,0 -5.502349,-0.86509 -7.724065,-2.8626 -1.29602,-1.16523 -2.87235,-3.93477 -2.87235,-5.04658 0,-0.30662 -0.06772,-0.55749 -0.15049,-0.55749 -0.562173,0 -5.733777,1.47571 -7.919302,2.25976 -3.303434,1.1851 -4.660412,1.97066 -6.389383,3.69885 -1.69089,1.69013 -2.456243,3.17912 -3.531655,6.87081 -1.192725,4.0944 -2.383228,8.68889 -2.278551,8.79356 0.04886,0.0489 0.789698,0.21533 1.646299,0.36992 0.856601,0.15459 2.093237,0.39222 2.748081,0.52808 0.654844,0.13585 1.735041,0.31654 2.400437,0.40154 l 1.209812,0.15453 -0.476307,-4.19634 c -0.548324,-4.83081 -0.440874,-5.52154 1.033967,-6.64665 l 0.949943,-0.72468 19.996804,-0.0813 c 10.998241,-0.0447 20.623111,-0.006 21.388601,0.0855 0.91924,0.11014 1.65774,0.39055 2.17507,0.82585 1.27089,1.06939 1.38441,2.02934 0.79195,6.69682 -0.28726,2.26309 -0.52231,4.1256 -0.52233,4.13891 -4e-5,0.0298 1.71848,-0.27161 3.83643,-0.67283 z M 99.218906,150.65609 c 1.877104,-0.87701 3.710624,-2.84796 4.208264,-4.52371 0.41857,-1.40945 0.53435,-2.85216 0.2289,-2.85216 -0.0964,0 -0.6619,0.28441 -1.25677,0.63203 -1.74215,1.01803 -4.606271,1.74922 -6.851885,1.74922 -2.298693,0 -4.128603,-0.42591 -6.400529,-1.48973 -0.873125,-0.40883 -1.695108,-0.7927 -1.826629,-0.85304 -0.417476,-0.19153 0.03671,2.75604 0.590217,3.83036 0.936213,1.81714 3.190367,3.5192 5.424762,4.09613 1.458315,0.37654 4.460159,0.076 5.88367,-0.5891 z m 0.236376,-7.86747 c 4.253768,-1.52632 8.450358,-5.92273 9.633068,-10.09174 0.69215,-2.43982 1.1146,-3.01167 2.38401,-3.22707 2.16875,-0.36801 3.20682,-1.63737 3.20682,-3.92132 0,-1.97932 -0.98746,-3.17036 -2.62844,-3.17036 -0.71201,0 -0.81115,0.0906 -0.81115,0.74084 0,0.89661 -0.42989,1.37583 -1.23423,1.37583 -0.85501,0 -1.14702,-0.74977 -1.14702,-2.94518 v -1.92163 l -1.81193,-1.74493 c -0.99656,-0.95971 -2.14426,-2.24711 -2.55043,-2.86088 l -0.73851,-1.11596 -0.823,0.55242 c -1.4637,0.98248 -4.486251,2.27167 -6.114667,2.60805 -0.873125,0.18036 -2.086708,0.43719 -2.696851,0.57073 -2.505121,0.54828 -8.587006,0.15291 -9.547885,-0.62069 -0.461443,-0.37151 -1.459595,0.59114 -2.1617,2.0848 -0.380899,0.81033 -0.542523,1.69102 -0.542523,2.95622 0,1.80664 -0.264957,2.43705 -1.024271,2.43705 -0.660937,0 -1.356979,-0.8379 -1.356979,-1.63355 0,-0.69184 -0.06332,-0.74287 -0.727605,-0.58637 -0.400182,0.0943 -1.055026,0.47601 -1.455208,0.84829 -0.634038,0.58984 -0.727604,0.87635 -0.727604,2.22802 0,0.88292 0.176505,1.89246 0.40972,2.34345 0.478816,0.92593 1.829679,1.82484 2.744447,1.82625 0.812912,0.001 1.608333,0.71085 1.608333,1.4348 0,0.84428 0.935797,3.22967 1.909827,4.86823 2.843712,4.78383 7.764132,7.77548 12.509965,7.60614 1.321749,-0.0472 2.708967,-0.28806 3.693813,-0.64144 z M 79.132023,119.83714 c 0.362622,-0.0973 0.726801,-0.5671 1.005713,-1.29742 0.920392,-2.41001 3.691612,-4.64615 5.833157,-4.70685 1.053821,-0.0299 1.807513,0.60306 1.542013,1.29494 -0.16097,0.41948 0.597155,0.49777 3.882938,0.40098 2.39863,-0.0707 4.362525,-0.41662 6.482292,-1.14192 1.988667,-0.68045 2.247484,-0.81268 4.414194,-2.25527 2.19282,-1.45998 2.63398,-1.37981 3.56112,0.6471 0.45972,1.00506 1.33153,2.11095 2.7617,3.50319 1.44856,1.41016 2.14148,2.29235 2.25796,2.87474 0.15302,0.76509 0.257,0.84025 1.16245,0.84025 0.80757,0 1.02437,-0.11185 1.15394,-0.59531 0.25616,-0.95587 0.1907,-5.29165 -0.1033,-6.84191 -0.34177,-1.80215 -1.52765,-4.35192 -2.58315,-5.55407 -1.01875,-1.1603 -3.22788,-2.38293 -4.35898,-2.41245 -0.47168,-0.0123 -1.21479,-0.28691 -1.65135,-0.61022 -2.86685,-2.12315 -4.80247,-2.64655 -9.657292,-2.61134 -3.080979,0.0223 -4.251027,0.14272 -5.941707,0.61128 -7.167163,1.98635 -11.263513,6.80095 -11.351578,13.34197 -0.03507,2.60522 0.278083,4.67337 0.706892,4.66844 0.172984,-0.002 0.570329,-0.0722 0.882988,-0.15613 z"
         id="path1" /></g></g></svg>
