<?xml version="1.0" standalone="no"?>
<!DOCTYPE svg PUBLIC "-//W3C//DTD SVG 20010904//EN"
 "http://www.w3.org/TR/2001/REC-SVG-20010904/DTD/svg10.dtd">
<svg version="1.0" xmlns="http://www.w3.org/2000/svg"
 width="1024.000000pt" height="1024.000000pt" viewBox="0 0 1024.000000 1024.000000"
 preserveAspectRatio="xMidYMid meet">
<metadata>
Created by potrace 1.16, written by Peter Selinger 2001-2019
</metadata>
<g transform="translate(0.000000,1024.000000) scale(0.100000,-0.100000)"
fill="#000000" stroke="none">
<path d="M4805 8610 c-148 -20 -264 -44 -373 -77 -457 -137 -794 -463 -898
-869 -52 -207 -55 -527 -6 -706 l19 -66 -30 -34 c-16 -18 -43 -62 -60 -98 -27
-56 -32 -79 -35 -161 -7 -163 34 -283 130 -386 66 -70 111 -98 188 -119 58
-17 61 -19 70 -58 51 -206 204 -482 359 -648 74 -79 97 -132 68 -156 -8 -7
-88 -30 -178 -52 -586 -146 -832 -260 -1059 -491 -97 -98 -178 -221 -227 -345
-58 -142 -255 -859 -279 -1010 -11 -75 27 -116 149 -158 14 -5 17 -13 13 -33
-17 -82 -58 -446 -63 -563 -7 -172 10 -268 68 -388 73 -151 228 -278 399 -325
139 -38 143 -38 2050 -35 l1855 3 80 23 c240 70 402 224 471 447 36 114 21
454 -35 805 -5 30 -7 58 -5 61 2 4 25 12 50 18 30 8 60 25 82 47 33 33 34 37
28 87 -15 110 -164 670 -245 914 -92 281 -229 467 -454 617 -190 127 -401 208
-803 312 -120 31 -225 61 -231 66 -7 6 -13 29 -13 52 0 35 6 48 36 77 56 54
178 207 223 281 67 110 101 186 141 308 37 113 39 115 77 128 21 8 57 21 81
29 150 52 268 223 287 413 13 126 -40 290 -113 350 l-33 27 15 66 c37 160 45
432 16 592 -47 263 -155 470 -326 623 -107 96 -235 159 -366 180 -40 6 -68 19
-109 49 -108 82 -265 146 -449 184 -110 23 -449 34 -565 19z m928 -1199 c39
-86 123 -179 271 -305 32 -27 64 -63 72 -81 14 -35 34 -204 34 -292 0 -47 4
-59 29 -84 34 -34 64 -37 108 -10 25 16 33 30 43 74 6 29 8 61 4 70 -5 15 1
17 44 17 65 0 91 -11 141 -55 55 -50 75 -114 68 -214 -6 -92 -23 -135 -74
-191 -46 -52 -97 -76 -181 -85 -93 -10 -106 -26 -148 -170 -64 -220 -160 -387
-317 -551 -160 -168 -320 -269 -522 -330 -81 -25 -105 -28 -235 -27 -115 0
-161 4 -222 21 -299 82 -555 281 -722 562 -65 110 -103 201 -140 340 -28 104
-34 116 -65 137 -22 15 -49 23 -75 23 -88 0 -176 64 -220 160 -21 48 -29 186
-13 242 17 63 99 128 180 142 l37 7 0 -44 c0 -86 36 -137 95 -137 71 0 95 48
95 192 0 57 6 126 14 154 21 78 74 171 124 215 l44 39 29 -24 c75 -63 460 -84
758 -41 252 36 487 124 666 249 28 19 52 35 55 35 3 0 13 -17 23 -38z m-43
-2407 c-20 -94 -66 -172 -154 -259 -132 -131 -271 -187 -466 -188 -127 0 -204
18 -318 74 -157 77 -270 213 -307 370 -14 60 -21 169 -11 169 3 0 49 -22 103
-49 203 -101 332 -133 533 -134 104 0 155 5 220 21 124 30 245 76 330 126 l75
44 3 -60 c2 -33 -2 -84 -8 -114z m-1426 -44 c17 -84 82 -223 127 -274 30 -35
38 -52 17 -40 -7 4 -11 5 -8 1 3 -3 9 -6 13 -6 4 0 33 -23 65 -51 208 -187
534 -262 817 -190 157 40 276 111 395 236 90 95 142 189 174 313 l22 89 170
-43 c93 -24 223 -60 289 -80 66 -21 136 -42 155 -47 73 -21 237 -101 319 -155
163 -109 290 -260 361 -429 40 -96 260 -866 260 -909 0 -12 -596 -132 -605
-123 -4 3 3 80 14 170 54 439 55 456 43 516 -22 103 -106 191 -204 211 -37 8
-524 11 -1648 9 l-1595 -3 -48 -24 c-59 -29 -129 -106 -145 -159 -18 -58 -15
-108 19 -425 18 -158 29 -290 26 -293 -4 -4 -550 98 -594 111 -12 4 26 162
133 550 77 274 110 376 146 443 88 163 250 320 419 403 120 60 367 145 634
219 116 32 211 57 212 56 1 -1 9 -35 17 -76z m2405 -1000 c12 -6 28 -24 36
-40 17 -33 27 71 -105 -1085 -27 -242 -50 -446 -50 -452 0 -10 -304 -13 -1485
-13 l-1484 0 -6 33 c-4 28 -149 1318 -161 1442 -6 62 19 109 68 124 47 15
3160 6 3187 -9z m-3564 -866 c121 -25 221 -46 221 -47 1 -1 16 -135 33 -297
18 -162 35 -314 38 -337 l6 -43 -109 0 c-91 0 -114 -3 -142 -20 -46 -28 -54
-59 -50 -188 l3 -113 -30 7 c-51 10 -128 57 -175 105 -55 55 -95 135 -116 229
-15 65 -15 86 0 248 9 97 26 252 38 344 20 160 22 167 42 163 12 -3 120 -26
241 -51z m4214 -159 c49 -461 50 -498 11 -611 -41 -118 -112 -198 -220 -248
-72 -34 -94 -34 -86 -2 3 14 7 67 7 120 2 151 -27 176 -202 176 l-102 0 6 43
c3 23 20 175 38 337 17 162 33 297 35 298 6 8 480 99 485 93 4 -3 16 -96 28
-206z m-471 -766 c7 -44 -10 -111 -33 -135 l-24 -24 -1718 0 c-1363 0 -1723 3
-1743 13 -29 15 -49 64 -49 127 l-1 45 1783 -2 1782 -2 3 -22z"/>
<path d="M5172 3533 c-13 -11 -39 -71 -66 -148 -24 -71 -92 -264 -150 -427
-58 -164 -106 -312 -106 -328 0 -64 91 -106 144 -67 11 8 77 182 172 452 142
404 154 441 143 472 -6 18 -20 40 -32 48 -29 20 -80 19 -105 -2z"/>
<path d="M4562 3298 c-196 -205 -212 -225 -212 -262 0 -38 5 -45 144 -201 114
-129 122 -135 163 -135 44 0 93 45 93 87 0 37 -23 72 -113 168 l-74 80 108
117 c90 97 109 123 109 148 0 45 -47 90 -94 90 -32 0 -45 -10 -124 -92z"/>
<path d="M5443 3366 c-22 -19 -28 -33 -28 -64 0 -41 25 -73 177 -238 l29 -31
-95 -100 c-53 -55 -100 -112 -105 -126 -23 -60 41 -128 105 -113 29 7 213 187
275 270 53 71 47 84 -111 259 -76 85 -146 157 -155 161 -32 12 -64 6 -92 -18z"/>
<path d="M4283 2023 c423 -2 1111 -2 1530 0 419 1 74 2 -768 2 -841 0 -1184
-1 -762 -2z"/>
</g>
</svg>
