<svg xmlns="http://www.w3.org/2000/svg" xml:space="preserve" width="30mm" height="152.6" viewBox="0 0 30 40.4"><path d="M-108 321c-6-1-12-5-15-11l-3-11 1-7a364 364 0 0 0 2-17v-2h-1c-2 0-3 0-3-2-1-1-1-2 1-7 6-23 8-29 11-34s7-10 11-12l10-5a205 205 0 0 1 24-7l1-2 1-2-1-1-8-9-8-17-1-2-6-3c-4-3-6-8-7-15l1-6 2-5 1-2-1-10a42 42 0 0 1 12-31c10-10 23-15 41-17a89 89 0 0 1 20 2c7 1 12 4 17 8l4 3c8 3 14 12 17 24l1 9a86 86 0 0 1-1 10l-1 2 2 2c2 2 3 5 3 9 1 9-5 18-12 20H5v2c-4 10-9 18-15 24l-2 3v2l1 2 6 1c7 1 19 5 23 7 8 4 11 6 15 12 5 6 7 12 13 33a396 396 0 0 0 2 12c-1 2-2 2-3 2h-2v2l1 1a245 245 0 0 1 2 16c1 7 0 12-1 16-3 5-6 9-11 11-4 2 3 2-73 2h-69zm73-40 9-2 1-2-2-1h-2l1 1h3c0 1-1 2-5 3l-11 2-5-1-6-2-2-1h-1l1-1h1l-2 1 2 1 5 2 5 1 8-1zm1-2 8-1h-2l-16 1-5-1-3-1v1h2c4 2 4 2 16 1zm-2-3 2-2-1 1-9 1v-2a38848 38848 0 0 1-1 2h9zm37 0c3-1 5-2 7-5l1-2-1-1H5l-2 1-4 2c-4 1-7-3-7-7l2-4c2-2 5-2 6-2l3 3 2 1 4-2h1l-1-1-2-2-5-4c-5-1-11 1-13 5-3 6-3 11 2 15 3 3 6 4 10 3zm-48-1v-2l2-1c1-1 1-1 0 0-3 0-4 2-3 3h1zm17-4c2-2 3-4 1-6h-1v4c-1 2-4 2-10 1l-10-2v-2h-1v2l2 1 11 2h8zm-15-4h-1l-1-1h-1l2 1h1zm9 0c1-1 1-2-1-4l-1-3c-1-1 0-2 2-5l3-2-5 3c-3 2-3 5-1 7l2 3h-7l4 1a158 158 0 0 1 4 0zm-6-5c-2-3-1-4 3-8l3-4v-4h-1c1 2 0 4-5 8l-3 6 2 3c2 1 2 1 1-1z" style="fill:#f8b876" transform="translate(22 -14) scale(.17040255)"/><path d="M-110 321a21 21 0 0 1-15-18v-12a2198 2198 0 0 0 1-18l-3-1v-6l3-9c5-19 7-25 12-32 5-6 9-8 16-12l24-7h3v-2l1-2-3-3c-6-6-10-13-13-23l-1-3h-2c-3-1-5-2-7-5-3-4-5-9-5-16 1-3 1-5 4-9v-3a45 45 0 0 1 2-26c3-6 5-9 9-13l14-10a78 78 0 0 1 51-4c5 1 9 4 13 8l3 2 3 1c7 4 12 12 15 23a61 61 0 0 1-1 20l1 2 3 6v11c-1 4-3 8-6 11l-5 2-2 1-1 2a64 64 0 0 1-15 24l-1 2v4h2l21 6c9 2 14 5 18 9 8 8 10 14 17 38l2 12c0 2-2 3-4 2h-1v1a1022 1022 0 0 0 3 30l-2 5c-2 5-8 10-13 11l-71 1h-70zm10-7-1-8a11787 11787 0 0 1-2-27 107 107 0 0 0-12-3l-1 2v3l-2 9c-1 11-1 12 1 16 2 3 4 6 8 7l6 1h3zm129-1 3-1 7-8-1-17a387 387 0 0 1-2-12l-6 2-6 1-1 4a753 753 0 0 1-3 32h4l5-1zm-68-31 14-3v-2l-5-1 3 1c3 0 3 1 1 2h-2l-4 1-10 2-5-2-4-1-4-1 1-1h1-1l-2 1 4 1 5 2 5 1h3zm-34-1 2-1 2-2v-4l-5-1h-5 7l10-2c3-3 2-13-1-14l-4-1-1 3-1 5-9 1c-6 0-6 0-7 2l-1 6v5c1 2 3 3 5 3h8zm-2-3 1-2 2 1c0 1-2 2-3 1zm2-1-1-1v2l1-1zm39 2 8-1h-2l-12 1h-6l-3-1-4-1v1l3 1 4 1 12-1zm-3-3c2 0 3-1 3-2l-1 1h-10l1-1h3l4-1h2c0-1-9-1-11 1v1c0 2 4 2 9 1zm39 0 4-3 3-4-3-1-3 1c-2 2-4 3-6 2-3-1-5-4-5-6 0-5 5-8 8-7l3 3 2 1 4-1 1-1-3-3-3-3c-6-3-13-1-16 5-3 7 0 15 7 17h7zm-49-1c-1-1 0-2 2-3v-1l-3 3 1 2v-1zm17-4 2-3-2-4v5c-1 2-6 2-13 0l-7-1-1-2c1-1 1-1 0 0s0 3 3 3a235 235 0 0 0 14 2h4zm-15-4h-1l-1-1h-1v1h3zm8 1 2-3-2-3c-1-1-2-3-1-4l3-3 2-2c-2-1-7 4-7 6-1 1 0 2 1 4l2 3-1 1a85 85 0 0 0-6-1l2 1 5 1zm-4-4-1-2v-5l3-3c3-3 4-6 3-8 0-1-1-1-1 1l-1 3-3 3c-2 2-3 2-3 4-1 2-1 5 1 6l2 1zm-41-11v-3h-1v3h1zm48-26c6-1 11-5 14-11l1-8-1-1-12 5h-19l-10-4c0-1-1-1-1 1 0 5 4 12 9 16l12 3 7-1zm0-22c15-3 27-15 32-33 1-4 1-5 4-5l4-1c5-3 7-10 5-16l-3-3-2 1-2 2c0 4-2 6-5 5-2-1-2-1-2-4 0-5-2-10-4-11l-4-5-5-7v-1l-3 1a62 62 0 0 1-41 10l-11-4c-1-1-1 0-3 2a22 22 0 0 0-3 8v6c0 4 0 4-2 5-3 1-6-1-5-6l-1-2-1-1-1 1-4 4c-1 3 0 9 2 12 1 2 4 3 7 3l2 1 3 7c4 12 9 19 17 25 5 3 10 6 16 6h10z" style="fill:#e97016" transform="translate(22 -14) scale(.17040255)"/><path d="M-110 321a21 21 0 0 1-15-18v-12a2198 2198 0 0 0 1-18l-3-1v-6l3-9c5-19 7-25 12-32 5-6 9-8 16-12l24-7h3v-2l1-2-3-3c-6-6-10-13-13-23l-1-3h-2c-3-1-5-2-7-5-3-4-5-9-5-16 1-3 1-5 4-9v-3a45 45 0 0 1 2-26c3-6 5-9 9-13l14-10a78 78 0 0 1 51-4c5 1 9 4 13 8l3 2 3 1c7 4 12 12 15 23a61 61 0 0 1-1 20l1 2 3 6v11c-1 4-3 8-6 11l-5 2-2 1-1 2a64 64 0 0 1-15 24l-1 2v4h2l21 6c9 2 14 5 18 9 7 8 10 14 16 35 4 15 4 14 3 15-1 2-2 2-3 2l-2 1 3 20c1 5 0 11-2 15-2 5-8 10-13 11l-71 1h-70zm10-7a511 511 0 0 0-3-35l-3-1a281 281 0 0 1-9-2l-1 2-2 16c-1 5-1 8 1 12l5 6c3 2 5 2 9 2h3zm113 0a1425 1425 0 0 0 5-41 354 354 0 0 1 22-6v-2l-2-8c-4-14-6-20-10-26l-4-4c-2-3-3-3-6-5-6-3-18-6-27-8h-3l-2 6c-4 8-13 14-22 15h-11c-6-1-14-6-18-13-2-2-3-5-3-7s0-2-6-1c-11 3-22 7-26 10l-7 6c-4 6-7 13-12 32a91 91 0 0 1-1 5 1645 1645 0 0 0 22 6l1 3a482 482 0 0 0 4 38 4692 4692 0 0 0 106 0zm-17-31c-10-2-17-11-16-21a18 18 0 0 1 34-6 18 18 0 0 1-18 27zm6-7 4-3 3-4-3-1-3 1c-2 2-4 3-6 2-3-1-5-4-5-6 0-5 5-8 8-7l3 3 2 1 4-1 1-1-3-3-3-3c-6-3-13-1-16 5-3 7 0 15 7 17h7zm-77 2 1-2 2 1c0 1-2 2-3 1zm2-1-1-1v2l1-1zm-18-4c-2 0-3-1-4-3l-1-5c0-4 0-6 2-7l1-2h8l8-1h-5c-5 0-5 0-5-3s1-4 4-5l5-1 5 1 4 3v5l-1 7c-1 1-2 2-8 2l-9 1v5l-1 3h-3zm9-20v-3h-1v3h1zm110 61c6-2 11-8 11-15v-4l-2-10a280 280 0 0 1-1-10l-6 2a177 177 0 0 1-7 2l-1 8-2 23c0 4 0 4 3 4h5zm-61-87c4-1 6-2 8-5 5-4 7-9 6-13l-1-2-7 3-6 2-8 1-7-1-12-4-1-1-1 5c1 3 3 7 6 10s6 5 10 5l5 1 8-1zm-1-22c8-2 16-6 21-13 5-5 9-13 11-20l1-3 3-2c4 0 9-5 10-10v-4c0-3-1-4-3-5l-2-1-3 3-1 4-3 1c-2 0-3-1-3-4l-1-5c-1-4-1-5-4-7-3-3-5-5-7-10l-1-2-3 1-12 6a68 68 0 0 1-12 3 97 97 0 0 1-18 0l-9-2c-2-2-2-2-3-1-2 3-4 10-4 17l-1 3-4 1c-2-1-3-3-2-6l-1-2-1-1c0-1 0-1 0 0l-1 1-3 3c-2 4-1 10 1 14l6 2 3 1 2 6 6 13c4 7 9 11 15 15 3 2 8 3 13 4h10z" style="fill:#159376" transform="translate(22 -14) scale(.17040255)"/><path d="M-110 321a21 21 0 0 1-15-18v-12a2198 2198 0 0 0 1-18l-3-1v-6l3-9c5-19 7-25 12-32 5-6 9-8 16-12l24-7h3v-2l1-2-3-3c-6-6-10-13-13-23l-1-3h-2c-3-1-5-2-7-5-3-4-5-9-5-16 1-3 1-5 4-9v-3a45 45 0 0 1 2-26c3-6 5-9 9-13l14-10a78 78 0 0 1 51-4c5 1 9 4 13 8l3 2 3 1c7 4 12 12 15 23a61 61 0 0 1-1 20l1 2 3 6v11c-1 4-3 8-6 11l-5 2-2 1-1 2a64 64 0 0 1-15 24l-1 2v4h2l21 6c11 3 16 6 21 12 5 7 8 13 13 32 4 15 4 14 3 15-1 2-2 2-3 2l-2 1 3 20c1 5 0 11-2 15-2 5-8 10-13 11l-71 1h-70zm10-7a511 511 0 0 0-3-35l-3-1a281 281 0 0 1-9-2l-1 2-2 16c-1 5-1 8 1 12l5 6c3 2 5 2 9 2h3zm113 0a1425 1425 0 0 0 5-41 354 354 0 0 1 22-6v-2l-2-8c-4-14-6-20-10-26l-4-4c-2-3-3-3-6-5-6-3-18-6-27-8h-3l-2 6c-4 8-13 14-22 15h-11c-6-1-14-6-18-13-2-2-3-5-3-7s0-2-6-1c-11 3-22 7-26 10l-7 6c-4 6-7 13-12 32a91 91 0 0 1-1 5 1645 1645 0 0 0 22 6l1 3a482 482 0 0 0 4 38 4692 4692 0 0 0 106 0zm-15-31zm-1-6c-1 0-1 0 0 0zm3 0c1 0 0 0 0 0-1 0-1 0 0 0zm-16-1h1-1zm12 0v1-1zm-4-1-1-1 1 1h1l1 1-2-1zm-2-2-1-1 1 1 1 1-1-1zm16 1v-1l1-1v1l-1 1zm-17-2v-1 1zm18 0 1-1v1H7zm-101-1c-1 0-1 0 0 0v1-1zm91 0zm-2-1h1v1l-1-1zm5 0h1l-1 1v-1zm1 0h1c0-1 0-1 0 0H1zm-14-2v1-1zm22 0c-1 0-1 0 0 0v1-1zm-16 0v-1 1zm13 0h1-1s-1 0 0 0zm-19-3v-1 2-1zm5 1h1-1zm0-3h1v1l-1-1zm24-1v1-1zm-29 0s0-1 0 0zm19 0h1-1zm-13-1h1-1v1-1zm10 0c-1-1-1-1 0 0zm6 0 1-1-1 1zm-22-1 1-2v1l-1 1zm15 0-1-1h1v1zm-71-4v-2a42 42 0 0 1 0 2zm63 4 1-1-1 1zm7-1H0h1zm7-1-1-1 1 1 1 1-1-1zm-9 0h1v1l-1-1zm-1 0h1-1zm9-2c-1 0-1 0 0 0v1-1zm-16-1c1-1 1 0 0 0 0 0 0 1 0 0zm14 0c0-1 0-1 0 0h1-1zm-2-1h1-1zm-8-1h1-1zm6 0h1-1zm-5 0h1-1zm3 0h1-1zm29 61c6-2 11-8 11-15v-4l-2-10a280 280 0 0 1-1-10l-6 2a177 177 0 0 1-7 2l-1 8-2 23c0 4 0 4 3 4h5zm-61-87c4-1 6-2 8-5 5-4 7-9 6-13l-1-2-7 3-6 2-8 1-7-1-12-4-1-1-1 5c1 3 3 7 6 10s6 5 10 5l5 1 8-1zm-1-22c8-2 16-6 21-13 5-5 9-13 11-20l1-3 3-2c4 0 9-5 10-10v-4c0-3-1-4-3-5l-2-1-3 3-1 4-3 1c-2 0-3-1-3-4l-1-5c-1-4-1-5-4-7-3-3-5-5-7-10l-1-2-3 1-12 6a68 68 0 0 1-12 3 97 97 0 0 1-18 0l-9-2c-2-2-2-2-3-1-2 3-4 10-4 17l-1 3-4 1c-2-1-3-3-2-6l-1-2-1-1c0-1 0-1 0 0l-1 1-3 3c-2 4-1 10 1 14l6 2 3 1 2 6 6 13c4 7 9 11 15 15 3 2 8 3 13 4h10z" style="fill:#743a1b" transform="translate(22 -14) scale(.17040255)"/><path d="M-110 320c-7-2-13-7-15-14v-12l2-20 1-1h-4l-2-4a691 691 0 0 1 12-37l9-12c3-3 8-5 15-8a153 153 0 0 1 23-6v-2l1-2-3-3c-6-6-10-13-13-23l-1-3h-3c-4-2-6-4-8-8s-3-11-2-15c0-2 1-5 3-6l1-1-1-2-1-12c1-7 2-13 5-18 1-4 3-6 6-9 9-9 21-15 37-17h20l16 5 7 5 2 2c4 1 9 5 13 11 5 9 7 21 5 31l-1 3 1 1c3 3 4 6 4 11s-1 8-3 12c-3 3-6 6-9 7l-2 1-2 4c-3 9-8 16-13 22l-3 2 1 1v2l4 2 23 6 11 5 9 10c3 6 5 11 10 29 4 13 4 13 3 15l-4 1-1 1a883 883 0 0 1 3 30l-5 9c-2 4-7 7-11 8h-138zm123-6 1-5a4332 4332 0 0 0 4-36l11-3 11-3-6-24c-3-8-5-12-10-16-3-3-3-4-6-5a125 125 0 0 0-30-9v1c-1 7-7 14-13 18l-9 3a36 36 0 0 1-13-1c-2 0-7-1-10-3-6-4-11-11-11-16v-1l-7 1c-9 2-19 5-24 8l-9 8c-3 5-6 12-9 25l-3 11 11 3 12 4 1 6a420 420 0 0 0 3 34H13zm-16-37c-1 0-1 0 0 0zm3 0c1 0 0 0 0 0-1 0-1 0 0 0zm-4-1v1-1zm-4-1-1-1 1 1h1l1 1-2-1zm-2-2-1-1 1 1 1 1-1-1zm16 1v-1l1-1v1l-1 1zm-17-2v-1 1zm18 0 1-1v1H7zm-10-1zm-2-1h1v1l-1-1zm5 0h1l-1 1v-1zm1 0h1c0-1 0-1 0 0H1zm-14-2v1-1zm22 0c-1 0-1 0 0 0v1-1zm-16 0v-1 1zm13 0h1-1s-1 0 0 0zm-19-3v-1 2-1zm5 1h1-1zm0-3h1v1l-1-1zm-5-1s0-1 0 0zm19 0h1-1zm-13-1h1-1v1-1zm10 0c-1-1-1-1 0 0zm6 0 1-1-1 1zm-22-1 1-2v1l-1 1zm15 0-1-1h1v1zm-8 0 1-1-1 1zm7-1H0h1zm7-1-1-1 1 1 1 1-1-1zm-9 0h1v1l-1-1zm-1 0h1-1zm9-2c-1 0-1 0 0 0v1-1zm-16-1c1-1 1 0 0 0 0 0 0 1 0 0zm14 0c0-1 0-1 0 0h1-1zm-2-1h1-1zm-8-1h1-1zm6 0h1-1zm-5 0h1-1zm3 0h1-1zm-99 61v-4a237 237 0 0 1-2-21l-1-11h-2a318 318 0 0 1-10-2l-2 7a453 453 0 0 1-1 20c0 3 3 6 5 8 3 2 5 3 10 3h3zm128 0c5-1 9-6 11-11 1-2 0-5-1-14a909 909 0 0 1-2-11v-3l-1 1-12 3v5a3788 3788 0 0 1-3 29v1h8zm-62-87c4-1 7-2 9-5 4-3 6-8 6-11l-1-4h-1a39 39 0 0 1-39 1l-1-1-1 3 1 4c1 5 5 9 9 12l8 2 10-1zm-1-22c15-3 27-15 33-33l1-4 4-1 5-3 4-6v-7c-1-4-5-5-7-3l-1 2c0 3-1 5-3 5l-3-1-1-2-1-7c-1-3-1-4-4-6l-3-3-5-9-3 1a61 61 0 0 1-43 9c-4-1-6-1-8-3h-2l-3 5-2 10-1 5-3 1c-2 0-3-2-3-5l-1-4h-2l-4 5c-1 5 0 11 3 13l5 2 4 2 1 5c2 5 4 11 7 14 8 14 22 20 36 18zm40-64 2-1 1-10-1-11c-3-8-6-13-10-15l-3-1-6-4c-2-2-3-3-7-4-5-2-12-4-21-3a110 110 0 0 0-13 1c-9 1-19 6-26 13-4 4-6 8-8 14l-2 13 2 6c2 1 3-1 6-5 4-6 7-9 10-9l6 3c5 3 9 3 16 3l14-3 12-6 8-4h2l1 1 3 5 6 10 4 4 2 3h2z" style="fill:#462100" transform="translate(22 -14) scale(.17040255)"/><path d="M-109 321c-7-2-13-8-16-15v-16l2-16 1-1h-2c-2 0-3 0-3-2-1-1-1-1 2-11l8-27 5-8 8-7c6-4 18-9 31-11l4-1v-2l1-2-3-3c-6-6-10-13-13-22l-1-4h-2l-6-4c-4-3-5-8-6-14 0-5 1-8 4-11l1-1-1-2a40 40 0 0 1-1-13c1-8 3-16 7-22l5-4c8-9 19-14 33-16l13-2 10 1 16 5 7 5 2 2c8 2 15 12 18 24 1 6 1 14-1 20v1l1 1 3 6 1 6-1 6c-2 6-6 10-11 12l-2 1-1 2c-3 10-8 18-15 24l-2 2 1 1v2l4 2 17 4c8 3 16 6 19 9 5 5 9 11 11 18l9 32c0 2-2 3-4 3l-1 1 3 21c1 5 0 10-2 14-3 5-6 8-10 10l-4 2h-139zm139-1 5-2 5-4 5-10v-16a711 711 0 0 1-1-15l2-1h1l1-1v-1l-1-4c-7-25-9-31-13-37-2-4-6-8-7-8 1-1-3-3-6-5a106 106 0 0 1-4-1l-1-1-2-1c0 1 0 1 0 0l-23-6c-3-1-3 0-3-2l-1-3h-1c1 0 0 0 0 0v2h1v-1 3h-1v1c1 0 1 0 0 0 0-1 0-1 0 0h-1v-1l-1 1v1c0-1-1 0 0 0h-1v-1h1l-1-1v1h-1 1l-1 1v3l-1 1v3l-1 1c0 1 0 1 0 0h1l-1 1v1l-1 1-1 1c1 0 1 0 0 0l-3 4h-1v1-1l-2 2c1 0 0 0 0 0l-1 1h-3l-5 1h-12v-1l-6-3-2-1v-1l-1-1a18 18 0 0 1-4-12l-1 1v-2h-3 1c0 1 0 1 0 0l-1 1v-2c-1 0-1 0 0 0l-1-1c0-1 0-2-1-1 1 0 1 0 0 0h1v1l-1-1v-1c0-1 0-1 0 0l-1 2-4 1a106 106 0 0 0-32 12l-3 3-3 3v1h-1l-1 1h1l-1 1-2 3s0 1 0 0l-3 7v1c-1-1-2 4-2 4l-1 3-3 9c-4 16-4 15-3 16l1 2h3l1-1v1a54 54 0 0 0-1 8l-1 9-1 13 2 5c0 1 0 1 0 0v1l1 2c1 0 1 0 0 0l4 4 1 2 9 4a10805 10805 0 0 0 138-1zm-136 0h2-2zm3 0h1-1zm34 0c1 0 0 0 0 0zm5 0h1-1zm3 0h1-1zm3 0zm9 0h1-1zm6 0h1-1zm30 0c-1 0-1 0 0 0zm22 0h1-1zm-74-5h1s1 0 0 0v1l-1-1zm-2 0v1-1zm10 0v1-1zm-16 0h1-1zm11 0c1 0 1 0 0 0zm4 0zm70 0h1-1s-1 0 0 0zm8 0v-6a44 44 0 0 0 0-5l1-2v-2a148 148 0 0 0 2-21v-1h2l3-1h1v-1h4l3-1 1 4 1 4v1l1 7v14l-1 1v1c1 0 1 0 0 0v1h-1l-1 1-1 2h-1l-2 2-1 1h-2l-5 1h-4zm8-1c4-1 7-3 9-6s2-6 2-10a294 294 0 0 0-3-23 248 248 0 0 0-13 4 175 175 0 0 1-1 16 821 821 0 0 1-2 19h8zm9-5h-1 1zm-15 6c1 0 0 0 0 0s-1 0 0 0zm-129 0h1-1zm-2-1v1-1zm3 0c-3 0-6-1-8-3l-1-1c-1 0-1 0 0 0l-1-1c-1-2-2-2-2-5l-1-5v-4a546 546 0 0 0 4-20 79 79 0 0 0 8 2h1l2 1h2a1173 1173 0 0 0 3 35v1-2 2h-7zm6 0-1-12-1-13-1-10-6-2c-7-2-7-2-7 1a622 622 0 0 1-2 26c1 3 3 6 5 7 3 2 5 3 10 3h3zm7 0-1-6a410 410 0 0 0-4-34l-7-3-15-4v-3l1-3s0-1 0 0v-1c0 1 2-4 1-5l1-2v3-1a1919 1919 0 0 1 9-25c1 1 1 0 1-1h1v-1l2-2 1-1h1v-1c0 1 0 0 0 0h1s0-1 0 0l1-1v-1h1c0 1 1 0 0 0l1-1v1l3-1 2-1v-1l4-1h2l-1-1h2c-1 0-1 0 0 0l5-1a141 141 0 0 1 11-4v1h3v2c0 1 0 1 0 0 0-2 0-1 0 0 0 2 0 4 1 3v2h1c-1 1 0 3 1 2v1l1 1 1 2h1-1 1c0 1 0 1 0 0s0-1 0 0v1l1 1h2l-1 1v-1l2 2h1-1l1 1 2 1h1c-1 0-1 0 0 0v1h1l7 1h1l1 1h10v-1h-2 1c0-1 0-1 0 0h1c0-1 0-1 0 0h1l2-1h1v-1h3v-1h1c-1 0 0 0 0 0l2-1 1-1 1-1 1-1 1-1 1-1v-1h1v-1l1-1 2-4 1-3v-1l1-1h1a38 38 0 0 0 3 0l2 1a125 125 0 0 1 13 3c1 0 1 0 0 0h1v1h2l4 2 3 1c0-1 0-1 0 0h2c-1 0-1 0 0 0v1l3 1 1 1h-1 1l1 2h1l1 2 1 1 1 1h1v2h1v1l1 1v2h1s0 1 0 0l1 1h-1s0 1 0 0v1l2 3v3a304 304 0 0 1 7 24 282 282 0 0 0-23 5l-1 10a2296 2296 0 0 1-3 31l-54 1-53-1zm107-1a2284 2284 0 0 0 4-40l11-3 11-3a407 407 0 0 0-12-36l-7-8a120 120 0 0 0-33-10v2l-5 9-6 6h-1v1-1h1l-6 3c-5 2-9 3-15 2l-10-2c-7-4-13-11-14-18v-2l-13 3a138 138 0 0 0-18 7c-3 2-8 7-10 11l-6 16-5 17 10 3 13 4 1 6a774 774 0 0 0 3 33v1H13zm-17-36c-1 0-1 0 0 0zm3 0c1 0 0 0 0 0-1 0-1 0 0 0zm-4-1v1-1zm-4-1-1-1 1 1h1l1 1-2-1zm-2-2-1-1 1 1 1 1-1-1zm16 1v-1l1-1v1l-1 1zm-17-2v-1 1zm18 0 1-1v1H7zm-10-1zm-2-1h1v1l-1-1zm5 0h1l-1 1v-1zm1 0h1c0-1 0-1 0 0H1zm-14-2v1-1zm22 0c-1 0-1 0 0 0v1-1zm-16 0v-1 1zm13 0h1-1s-1 0 0 0zm-19-3v-1 2-1zm5 1h1-1zm0-3h1v1l-1-1zm-5-1s0-1 0 0zm19 0h1-1zm-13-1h1-1v1-1zm10 0c-1-1-1-1 0 0zm6 0 1-1-1 1zm-22-1 1-2v1l-1 1zm15 0-1-1h1v1zm-8 0 1-1-1 1zm7-1H0h1zm7-1-1-1 1 1 1 1-1-1zm-9 0h1v1l-1-1zm-1 0h1-1zm9-2c-1 0-1 0 0 0v1-1zm-16-1c1-1 1 0 0 0 0 0 0 1 0 0zm14 0c0-1 0-1 0 0h1-1zm-2-1h1-1zm-8-1h1-1zm6 0h1-1zm-5 0h1-1zm3 0h1-1zm-26-21h-1v1l1-1zm6-4c0 1 0 1 0 0zm-73 85v-1 1zm113-2h1-1zm-118-2v1-1zm114-2v-1 1zm-139 0 1-1v1h-1zm24-1h1-1zm0-2v1-1zm-24 0v1-1zm139-1v1-1zm-134 0v1-1zm24 0c0 1 0 0 0 0zm-30 0h1-1zm5-1h1-1zm140 0v-1 1zm-140-1 1 1-1-1zm-5 0c0-1 0-1 0 0zm0-2h1l-1 1v-1zm145 0 1-1v1h-1zm-145-1 1-1v1h-1zm165 0s0-1 0 0zm-160-1h1-1zm141 0v-1 1zm19-1v1-1zm-136 0v-1 1s1 0 0 0zm-24-1 1-1-1 1zm141-1v1-1zm-117-1v-2 4-2zm-23 0v-1 1s0 1 0 0zm158-1v1-1zm-157-3v1-1zm17 0v-3l-1-1h1s0 1 0 0v4zm5-1v1-1zm117 0 1-1-1 2v-1zm-139 0s0-1 0 0v1-1zm-6-1c0 1 0 1 0 0zm146-1s-1 0 0 0zm-119 0c0-1 0-1 0 0zm-26-1v1-1zm167 0v-1 1zm-6-1v-1 1zm-135-1zm-5-1zm-16 0 1-1v1h-1zm156-1v1-1zm-135 0v-1 1zm119-1v-1c0-1 0-1 0 0v1c0 1 0 1 0 0zm15 0 1-1v1h-1zm-154-1v-1 1zm-5-2v1-1zm156-2h1-1zm-15-2h1-1zm-126-1v-1 1zm1 0h1-1zm131 0c-1 0-1 0 0 0zm-136-2v1-1zm141 0h1l-1 1v-1zm2 0h1-1zm1 0h1-1zm-153-2h1-1zm161-3v-1 1zm-161-3h1-1zm-4-1v-1 1zm0-2zm163-1v-1 1zm-1-2h1v1l-1-1zm-160-5v-1 1c0 1-1 1 0 0zm158-3c0-1 0 0 0 0zm-153-12v-1 1zm77-1h3-3zm-3-1c-1 0 0 0 0 0zm1 0s-1 0 0 0zm6 0zm5-1h1-1zm-83-3v-1s1 0 0 0v1zm75-1c1 0 1 0 0 0h3-2l-1 1v-1zm-1 0zm-6-1h1-1zm2 0v1-1zm-4 0h1-1zm26 0zm-28 0v-1 1zm19-1h1l-1 1v-1zm11-1h1-1zm46 0v-1 1zm-50-3c0 1 0 1 0 0zm43-1 1-1v1h-1zm-113-2v-1 1zm29-1v1-1zm80 0v1-1zm-118 0h-1v-1l1 1zm2-2c-1 0-1 0 0 0zm39-2v-2 3-1zm-18 0c1 0 1 0 0 0 0 0-1 0 0 0zm80 0h1-1zm-81 0c-1 0-1 0 0 0zm-15 0v-1h1l-1 1zm77-2 1-1v1h-1zm10 0h1-1zm-54 0v-1l1 1h-1zm-24-2h1-1c-1 0 0 0 0 0zm24-1v1-1zm-21 0v1-1zm20 0h1v1l-1-1zm-19 0h1-1zm17-1 1 1-1-1zm50 0v1-1zm15 0s-1 0 0 0c0 0 1 0 0 0zm-73-1h1l-1 1v-1zm7 0h1-1zm-9 0h1-1zm2 0 1-1v1h-1zm4-1c-1 0-1 0 0 0h1-1zm61 0h-3 3c1 1 0 1 0 0zm-4 0v-1h1v1h-1c1 0 1 0 0 0zm-22 21 7-3c3-2 7-6 8-10l1-7-1-1-11 4c-10 3-19 2-27-2l-3-2-1 3 1 4c1 5 5 9 10 12l7 2h9zm6-2c1 0 0 0 0 0v1-1zm8-8v1-1zm38-4h-1v1l1-1zm-51-2h-2a38 38 0 0 1-16-1 115 115 0 0 0 4 1h14zm6-2 6-2-2 1a58 58 0 0 1-4 1zm10-1v-1h-1c0-2 0-1 0 0v1h1zm-38 0-1-1h-2c1 0 1-1 0 0l-1-1h-1l2 1 3 1zm28 0h-1 1zm2 0h-1 1zm-39-2c0-1 0-1 0 0v1-1zm3 0v1-1zm42 0h-1 1zm-28-1h-1 1zm8 0h-1c-1 0 0 0 0 0h1zm4 0h-3 3zm4 0h1v-1c0 1 0 1 0 0l4-2-2 1a51 51 0 0 1-5 2h2-1c-1 0-1 0 0 0h1zm0-1v1-1zm-12 1-5-1-2-1c-1 1 6 2 7 2 2 0 2 0 0 0zm9-1a39 39 0 0 0 21-11l1-1 1-1 2-2c0 1 0 0 0 0v-1c1 0 1 0 0 0l-1 2-2 2 1-2c4-5 8-13 10-20 1-3 2-4 5-4l2-1c3-1 6-5 7-8l-1-8c-1-3-4-4-6-2l-1 2-1 4h-5l-1-3-2-8c0-2-1-2-3-4l-2-2c0-1 0-1 0 0h1l-1-1-5-7-1-2-4 2 1-1h-1v1l-1 1h-2c1 1-7 4-12 6a66 66 0 0 1-27 1c-3 0-7-2-8-3h-2v-1l-1 1v1c-3 3-4 8-4 14 0 5 0 5-2 6s-4 0-5-2v-3l-1-3-1-1h-1l-1 1-1 1h-1l-1 1h1l1-1-1 1c-3 4-2 12 2 15 1 2 4 2 5 2 2 0 3 1 3 2l2 5c3 10 7 16 13 22 5 4 9 7 14 9s10 2 16 1zm8-1c-1 0-1 1 0 0zm-40 0h-1 1zm13 0h-1 1zm0-1-2-1 3 2-1-1zm29 1h-1 1zm0-2 2-1-4 2 2-1zm-42 1v-2l-1 2h1zm8-1h1l-1-2a17 17 0 0 1-2-1l-2 1h1v-1h1v1h1l1 1v1s1 0 0 0zm-9-1v-1c0 1 0 1 0 0h-1v-2h-2l-1-1-1-2 1 1h1c-1 0-1 0 0 0v-1h-1v1l1-2c0 1 0 0 0 0v-2l1-1 1 1-1-2c0 1 0 0 0 0-1 0-1 0 0 0v-1l-1 1v-1l-2-3-5-13c-2-5-2-6-5-6l-6-3c-1-2-3-5-3-8v1l-1 1h-1l-1-1 1 1v1h-1 1-1v-1h-1v-1l-1-1v1-1l1-1h-1c0 1 0 1 0 0h-1c0 1 0 1 0 0 1 0 1-1 0 0v-1h1l-1-1v-2l1 1c0 1 0 1 0 0 0 0 0-1 0 0v-1l-1-1 1-2v-1l1-1c1 0 1 0 0 0l1-1v-1c1 0 0 0 0 0l-3 5v11l3 7c1-1 1 0 0 0l4 4 4 1c2 1 2 1 2 3h1v1l4 9 1 2h1v2l1 2s1 0 0 0l2 2c0-1 0-1 0 0-1 0-1 0 0 0v1c0-1 0 0 0 0l1 1a77 77 0 0 0 6 6zm-2-2c-1 0-1 0 0 0zm-2-4h-1v-1l1 1c0 1 0 1 0 0zm-2 0h1-1zm1-2v1-1zm1 0v-1 1zm-1-6h1v1l-1-1zm-2-5v1-1zm-2-3-1-1 1-1v1a56 56 0 0 0 0 1h1-1zm-2-7v1-1zm-4-5v1-1zm-3 0c1 0 1 0 0 0zm-10-3v-1 1zm5-2h1l-1 1v-1zm-6-1v-1h1v-1s0-1 0 0c0 0-1 0 0 0l1-1-1 1h1v1h-1v1c0-1 0-1 0 0h-1zm0-1c0 1 0 1 0 0zm5 0v-1 1zm-6-1h1-1zm5 0v-1l1 1h-1zm1-1c0 1 0 0 0 0zm-6-1v-1 1zm76 44 1-1h-1l-1 1h1zm-45-1v1-1zm57-1a22 22 0 0 0 5-7l4-6 1-1s0-1 0 0l1-2 4-9 2-1 5-4 4-5v-1c1 1 1 0 1-1 2-6 2-13-1-17l-1-1v1l1 1h-1l1 1v3-1 1c-1 0-1 0 0 0v2h1v2h-1v-2 1h-1v1c1 0 1 0 0 0h-1v1c1 0 1 0 0 0v2-1l-1-1v3l-1-2v1l-1 3v2l-1 1-5 4c0 1 0 1 0 0l-4 1c-2 0-2 0-3 4a77 77 0 0 1-3 9c1 0 1 0 0 0l-1 2-1 2a56 56 0 0 1-3 4l1-1h1v-1l1-1v-1 2l-1 2v1h-1c1 0 1 0 0 0v1h1v1h-1v1l1 1c0-1 0-1 0 0v1c0 1 0 0 0 0v2h-1 1l-1-2v2c0-1 0 0 0 0-1 0-1 0 0 0l-1 1-1 1h-1v1c1 0 1 0 0 0h-1v1c0-1 0-1 0 0h1l2-2zm3-4 1-1-1 1s0 1 0 0zm0-10 1-1-1 1zm3-7h1-1zm2-5h1l-1 1c0-1 0-1 0 0v-1zm1-1c-1 0-1 0 0 0 0 1 0 1 0 0zm8 0h1-1zm1 0 1-1v1H8zm-9-2c0-1 0 0 0 0zm2-2h1-1zm2 0h2-2zm6-4 1-1v1H9zm3-4v-1 2h-1l1-1zm1-1-1-1h1v1zm1-2h1v-2 1l1 1c-1-1-1 0 0 0v1l-1-1v1l-1-1zm1-2v-1 1zm2-2h1v1l-1-1zm-1-2h1l-1 1v-1zm1 0v-1c1 1 1 0 0 0v-2l1 2v1h-1zm0-2v-1 1c0 1 0 1 0 0zm-30 51h-1v1l1-1zm-5-2v-1l-1 2c-1 0-1 0 0 0l1-1zm-49 1-1-1v1h1zm3-1v-1l-1 1h1zm0-1a106 106 0 0 1-5-5v1h1-1v1-1h1v1h1v1c1 0 1 0 0 0v1h1c0-1 0-1 0 0h1v1h1l1 1-1-1zm-7 0h-1 1zm2-1v1-1zm55-2h1-1l-1 1 1-1zm5 1h1l-1-1v1c0-1 0-1 0 0zm0-2h-1l1 1v-1zm-1 0h-1 1zm-60 0v-1 1zm60-1v-1h-1v1h1zm-84-35c-1-1-1-1 0 0zm1 0v-1 1zm-1-1v-1h-1c1 0 0-1 0 0h-1v-1h-1l1 1h1v1h1zm2-2 1-2v-1l-1 4v-1zm11 0c-2 0-3-1-3-4v-1 1c0 3 2 5 3 5v-1zm-12 0h-1c0 1 0 1 0 0h1zm94 0H0c-2 0-2-1-2-2s0-1 0 0c-1 2 1 3 3 3v-1zm-96 0h-1 1zm98 0v-1 1H2h1zm-81-2v-1 3c-1 0-1 0 0 0v-2zm92 2-1-1 1 1zm1 0h-1 1zm-2-1-1-4v3l1 1zm-109 0h-1c0 1 0 0 0 0h1zm1 0v1-1zm99-2-1 1c0 1 0 1 0 0l1-1zm-99 1s1 0 0 0zm-1-1h-1c0-1 0-1 0 0h1zm18-3v2-2zm82 1-1 1h1v-1zm-100 0-1-1v2l1-1zm4 1zm90-1h-1l1 1v-1zm-1-2v1-1zm10 0c1 0 1 0 0 0l-2 1v-1h2zm-91 0c-1 0-1 0 0 0 0 0 0 1 0 0zm-4 0v-1l-1 1h1zm97 0H8h1zm-12-1v-1 2-1zm-83 0h-1 1zm9-1v1-1zm-17 0h-1v1l1-1zm109 0h-1v-1 1h1zm-92-2v1-1zm-17 0v-1a29 29 0 0 1-1-9v-9l1-3 1-3-2 4v18l1 3zm90-1c-1-2-1-1-1 0l1 1v-1zm-89 0v1-1zm17-2-1 2v-1l1-1zm90-1v4-4zm-10 3H3h1zm1-1 3-3v-6a32 32 0 0 0-3-19c-3-5-6-8-10-9l-8-5c-4-5-13-7-25-7a80 80 0 0 0-25 4c-6 2-10 5-15 9-4 3-6 6-8 10l-2 11v11l1 2 4-1s0-1 0 0v-1c1 0 0 0 0 0v-1h1l4-6c1 0 1 0 0 0l4-4c2-1 3-1 6 1 6 3 8 4 13 4l12-1 15-5 6-3 8-4 2 1 2 5 7 9 4 7c1 1 2 2 4 1zm-11-1-1-1v1h1zm-69-2h-1v1l1-1zm68 1-1-1 1 1zm22-5c1-5 0-12-2-18l-3-6v1c1 1 2 2 1 3v1h1v-1 2c0-1 0 0 0 0v1-1l2 4v1c0-1 0 0 0 0v1a193 193 0 0 1 1 6v1c0-1 0 0 0 0l-1 1h1v4a49 49 0 0 1 0 4v-4zm-66 3zm-6 0h-1c-1 0 0 0 0 0h1zm11 0h-2 2zm-14 0h-1 1c1 0 1 0 0 0zm16 0h-1 1s1 0 0 0zm-30-2v-1l-1 3 1-2zm34 1h2l-5 1 3-1zm-24 0h-1l2 1-1-1zm78-1v1c0 1 0 1 0 0v-1zm-80 1-1-1v1h1zm29 0c-1 0 0 0 0 0zm-30-1-3-1 2 1h1zm32 0c-1 0-1 0 0 0zm3-1h1-2l-1 1 2-1zm46 0zm-84 0-1-1 1 1zm58-1v-1 1c0 1 1 1 0 0zm-16 0 5-3-3 1a13086 13086 0 0 0-2 2zm42-1v1-1zm-27 0v-1 1zm27-1v-1 1zm-60 0h-1 1zm2 0c-1 0 0 0 0 0s1 0 0 0zm2 0h-1 1zm28-2-1-1 1 3v-2zm-6 0h-1l-1 1 1-1h1zm34 0c1 0 1 0 0 0-1 1 0 1 0 0zm-29-1v-1 1zm-3-1h-1v1l1-1zm27-2v1-1zm5-1c0-1 0-1 0 0s0 1 0 0zm-106-10 1-2v-1l-2 6v-1l1-2zm2-2h-1 1c0 1 0 1 0 0zm0-3v1l-1 1 1-1v-1zm100 0-3-4-2-2 1 1v1l1 1 2 3 1 1v-1zm-99-1 1 1c-1 0 0 0 0 0v-1s-1 0 0 0h-1l1-1c-1-1 5-6 5-6 0-1-5 4-6 7v1-1zm3-2v-1 1h-1 1zm90-4v1c1-1-4-4-7-5l-3-2c-1-2-2-3-3-2l1 1h1c0-1 0 0 0 0l2 2c-1 0 0 0 0 0l2 1h1c1 0 3 1 2 2h2-1l1 1h1v1c1 0 1 0 0 0v1l1-1zm-4-2h-1 1c0 1 0 1 0 0zm-81 0 3-3-1 1h1v-1l3-2 2-1h1v-1l3-1 10-4 1-1-1 1a61 61 0 0 0-24 12h2zm75-4h-1 1zm-58-1v1-1zm55-2-2-2v1h1l2 2-1-1zm-37-2v1-1zm17 0h-1v1l1-1zm17 0a35 35 0 0 0-9-4v1h2l4 2h-1 2l1 1h1zm-43-4h-1v1l1-1zm34 0-1-1a46 46 0 0 0-9-1 86 86 0 0 0-26 2h-1 1a10757 10757 0 0 0 23-2h1l8 1 2 1 1 1 1-1zm-3 0c0 1 0 1 0 0zm-12-1s1 0 0 0z" style="fill:#431d00" transform="translate(22 -14) scale(.17040255)"/><path d="M-39 321h69l2-1 7-5c4-3 6-8 7-13l-3-24v-5h1l3-1c1-1 1-1-3-16s-6-22-9-26c-3-5-7-10-10-12l-12-5a152 152 0 0 0-25-7v-2l-1-2 3-3a61 61 0 0 0 15-25l-5 11c-2 5-6 10-10 14-3 3-3 3-2 4v3h3l24 7 10 5c4 3 9 9 12 15l5 12 6 25c0 2-1 3-4 3h-1v2l3 20c1 5 0 8-2 13-2 6-6 10-13 12l-1 1h-138zm-72-1c-9-3-14-10-15-20l1-11v15a21 21 0 0 0 16 16v1l-2-1zm18-6-2-12a1476 1476 0 0 0-3-29l-6-1-16-5v-2l1-2-1 2v2l3 1 19 5 1 5a766 766 0 0 0 4 35v1H14v-1l-1 1-53 1h-53zm113 0v-1a129 129 0 0 0 1-16 1449 1449 0 0 0-1 17h4l7-1c4-2 7-6 8-10v-1l-2 5-6 6-7 1h-4zm-127 0c-5-1-9-4-11-9l-1-11 1-3v13l4 7c3 2 5 3 10 3h4-7zm7 0v-5a84 84 0 0 1 0 5zm114-2v-1 1c0 1 0 0 0 0zm0-3zm-115-7v-2 2zm141-2v1zm-141-1v1-1zm0-2a785 785 0 0 1-4-19 72 72 0 0 1 3 1 1726 1726 0 0 1 1 18zm-17-6zm-6-4v-2 2zm0-4v-1 2-1zm1-4a59 59 0 0 0 0-3l-1 6 1-3zm140 0 1-6 11-3a227 227 0 0 1-11 3l-1 5v3-2zm6-1zm13-2v1-1zm-39 1c-1 0-1 0 0 0zm3 0c1 0 0 0 0 0-1 0-1 0 0 0zm-4-1v1-1zm-119-1c1-2 1-2-1-2s-3 0-3-2c-1-1-1-2 2-11 6-22 7-27 12-34l9-8c4-3 9-5 15-7l19-5 1-2 1-2-2-2a58 58 0 0 1-14-24l-1-3h-2l-6-4c-4-4-5-8-5-15 0-5 0-7 3-10l1-1-1-3a44 44 0 0 1 10-38l7-6c8-6 16-9 28-11a101 101 0 0 1 29 1c6 2 11 5 15 9l3 2c3 1 6 2 8 5 5 5 8 11 10 19a54 54 0 0 1-1 20v1l1 1c3 3 4 6 4 11l-2 9c-2 5-7 9-11 10h1l7-5c3-4 5-9 5-13 0-5-2-9-4-11l-1-2v-2a44 44 0 0 0-7-36c-4-4-6-5-10-6l-3-3-11-7c-8-3-24-4-36-2-14 3-23 8-31 16-6 5-10 14-11 23v15l1 3-1 1c-2 3-3 6-3 10 0 10 4 17 11 19 2 0 2 0 2 2l6 13 9 12 2 2v2l-1 2-3 1c-13 3-25 7-31 11-5 3-10 9-13 15a128 128 0 0 0-10 31l-1 6 1 2 2 1h2l-1 3v-1zm7 1 1-1v1h-1zm2 0h1-1zm106-1-1-1 1 1h1l1 1-2-1zm42 0h1c1 0 1 0 0 0l-1 1v-1zm-149 0h1-1zm105-2-1-1 1 1 1 1-1-1zm16 1v-1l1-1v1l-1 1zm-17-2v-1 1zm18 0 1-1v1H7zm-10-1zm-2-1h1v1l-1-1zm5 0h1l-1 1v-1zm1 0h1c0-1 0-1 0 0H1zm-14-2v1-1zm22 0c-1 0-1 0 0 0v1-1zm-16 0v-1 1zm13 0h1-1s-1 0 0 0zm34-2h1v1l-1-1zm-53-1v-1 2-1zm5 1h1-1zm48-1c0-1 0-1 0 0zm0-1c0-1 0-1 0 0zm-48-1h1v1l-1-1zm47-1v-1 1l1 1-1-1zm-158 0v-1l1-2v2l-1 1v1zm106 0s0-1 0 0zm19 0h1-1zm-13-1h1-1v1-1zm10 0c-1-1-1-1 0 0zm6 0 1-1-1 1zm-22-1 1-2v1l-1 1zm15 0-1-1h1v1zm36-2v-3 3l1 2-1-2zm-44 2 1-1-1 1zm-112-1v-2l1-1-1 2v1zm119 0H0h1zm7-1-1-1 1 1 1 1-1-1zm-9 0h1v1l-1-1zm-1 0h1-1zm9-2c-1 0-1 0 0 0v1-1zm-124-1 1-4v2l-1 2zm108 0c1-1 1 0 0 0 0 0 0 1 0 0zm14 0c0-1 0-1 0 0h1-1zm32-1 1 1-1-1zm-34 0h1-1zm33-4zm-41 3h1-1zm6 0h1-1zm-5 0h1-1zm3 0h1-1zm-115-3zm3-9 3-6-1 3-2 3zm146-2-1-1 1 1v1-1zm-2-3-1-2 2 4-1-2zm-75-1-3-1 3 1a32 32 0 0 0 14-1l-4 1h-10zm-66-1 10-11 4-2a123 123 0 0 1-4 3 43 43 0 0 0-10 10zm60 0h-1 3-2zm78-2c0-2-2-4-4-6l-5-3-2-2 2 1c4 2 8 7 11 11 1 2 0 1-2-1zm-57 1h1l-2 1 1-1zm-25-1a28 28 0 0 1-11-9l2 2 10 8h1l-2-1zm28 0c4-2 8-6 10-9l3-7 1-1-2 5a29 29 0 0 1-13 13l1-1zm-15-4-9-1c-6-2-12-10-12-16v-4a16 16 0 0 0 1 8c2 5 6 10 11 11l13 2 9-3 8-9 1-9c-1 0-1 0 0 0v2c1 5-4 13-9 16-3 2-9 4-13 3zm-24-6v-1 1zm81-1-1-1 1 1h1-1zm-82-1c0 1 0 1 0 0zm80 0c-1 0-1 0 0 0h1-1zm-4-1-1-1 4 2-3-1zm-77 0c0-1 0-1 0 0h1-1zm0-2v1-1zm71 0-2-1a24 24 0 0 1 5 2l-3-1zm-86-1h1-1zm2 0 1-1v1h-1c-1 0-1 0 0 0zm12-1 1-1v1h-1zm69 1zm-3-1h-1 2-1zm-76 0h2c1-1 1-1 0 0h-2c-1 0-1 0 0 0zm74-1v1-1zm-71 0h1-1zm70 0s-1 0 0 0zm-69 0 6-1-3 1h-3zm68 0s-1 0 0 0zm-2 0h1-1zm-3-1s-1 0 0 0h2-2zm-34-1-10-2-6-3h1c3 3 9 5 15 5a44 44 0 0 0 25-5v-1l-2 2-11 4h-12zm1-6c-12-2-22-9-29-20l-5-13c-2-5-2-6-4-6-3 0-6-2-8-4l-2-8 1-5 4-4 1-1 1 1v1l1 1-1-1-1-1-2 1c-2 1-4 4-3 8 0 3 1 7 3 9l5 3 3 1 2 5c3 9 7 15 12 21a37 37 0 0 0 24 12c8 0 18-3 25-10 7-6 12-15 15-25 1-3 2-4 5-4 2 0 5-2 7-5l2-8-1-4c-1-3-3-3-5-2-2 0-2 1-2 2l-1 4h-5l-1-3-1-5-2-6a33 33 0 0 1-10-12c0-2 0-2 1 0 2 5 5 8 9 12 2 2 3 6 4 11l1 3h3l2-3c0-2 0-3 2-4s4 0 5 2l1 4v5c-1 3-3 7-6 8l-3 1c-3 1-4 1-4 3a54 54 0 0 1-19 29c-8 5-17 8-24 7zm-38-51c-2-1-2-3-2-5v-1 1c0 3 0 3 2 4h3l2-5c0-6 1-11 3-14 2-2 2-2 3-1 3 1 8 3 13 3h16a61 61 0 0 0 19-7 64 64 0 0 1-40 7l-7-3h-2c-1 0-4 5-4 9a130 130 0 0 1-1 6c0 4 0 5-2 6h-3zm91-22c0 1 0 1 0 0zm-64-2zm-3 0c1 0 0 0 0 0zm10 0h1c1 0 0 0 0 0h-1zm-12 0h1-1zm14 0h2-2zm3-1s-1 0 0 0zm-19 0h1-1zm20 0h1-1zm1 0h1-1zm-24-1-1-1 4 2-3-1zm25 0h1c1 0 1 0 0 0l-1 1v-1zm2 0h1-1zm-31-3h-2c-1 0-1 0 0 0l3 1-1-1zm39 0h1-1v1-1zm17-7v-1 1h1-1zm-2-1h1-1z" style="fill:#1b0a00" transform="translate(22 -14) scale(.17040255)"/></svg>