<svg xmlns="http://www.w3.org/2000/svg" xml:space="preserve" width="30mm" height="165.5" viewBox="0 0 30 43.8"><path d="M28 286a91 91 0 0 1-18-14l-5-5-1 2c-4 5-10 8-16 7a323 323 0 0 1-24-3c-7-4-12-10-13-19l2-20a982 982 0 0 0 0-9l-2-1c-2-2-2 0 4-24 4-13 6-17 11-23 5-5 11-8 21-11a235 235 0 0 1 18-7l1-1-2-3a56 56 0 0 1-13-22h-2l-7-4c-3-3-5-8-5-13 0-4 1-8 3-10l2-2-1-2-1-11v-8A39 39 0 0 1 2 57c13-6 25-9 36-9 10 0 17 3 22 8l4 3 8 3a35 35 0 0 1 11 18c1 6 1 14-1 22l-1 2 2 2c3 2 3 3 4 7a19 19 0 0 1-6 16l-6 4-3 1c-2 6-7 14-13 21l-2 2 1 2c0 1 0 2 2 2l16 4c14 5 21 10 26 18l5 12 7 27c0 1-2 3-4 3v1a238 238 0 0 0 3 25c0 2 0 6-2 9-2 6-6 10-11 13-3 2-5 2-12 2a585 585 0 0 0-13 2c-6 0-12-3-15-8l-2-2-4 4-13 11-9 5-4-1zm62-36h-1 1zm5-4c0-1 0 0 0 0s0 1 0 0z" style="fill:#f5b882" transform="matrix(.18335 0 0 .18335 9 -9)"/><path d="m29 286-19-14-5-5-1 2-7 6c-4 2-6 2-16 1-14-1-15-1-18-4-5-2-9-7-11-12-2-6-2-8 1-27a347 347 0 0 0 0-8l-2-1-1-2a429 429 0 0 1 11-37c4-9 12-15 25-19a295 295 0 0 1 19-7l1-1-2-3c-5-5-9-12-12-19l-1-3h-2c-5-1-8-5-11-11-1-3-2-7-1-11l3-6 2-1-1-2A37 37 0 0 1 2 57c19-9 39-12 51-6l7 5 4 3c4 1 7 2 10 5 4 5 8 11 9 18l1 7-2 12-1 3 2 1c3 3 4 5 4 10 0 4-1 6-3 10s-5 7-9 8h-3v2c-3 7-7 14-13 20l-2 3 1 1c0 2 0 2 2 2l15 4c12 4 20 9 25 16l6 10a633 633 0 0 1 8 31l-3 3-1 1 1 6c2 17 2 21 1 25-1 6-5 12-10 15-3 2-6 3-11 3-17 2-18 2-22 1-4-2-7-4-9-8l-1-1-6 5c-9 8-18 15-21 15l-3-1zm-37-17 4-2 1-1 2-4c1-4-1-8-5-11l-15-1-10-2v-4c1-2 2-2 7-1h6v-3l-3-10-4-1-14-2-3 19c-1 7 0 10 2 14l6 7 12 2a867 867 0 0 1 14 0zm-4 0h1-1s-1 0 0 0zm-6-1v1-1zm-7 0h1-1zm-5-1v1-1zm29-5s0-1 0 0c0 0-1 0 0 0zm0-3c0-1 0-1 0 0 0 0-1 0 0 0zm-41-7s0-1 0 0v1-1zm0-2v1-1zm29 1h1-1zm2 0c-1 0-1 0 0 0zm-6-1h1v1l-1-1zm-6 0h2-2zm-5 0c1 0 0 0 0 0zm-14-2v1-1zm1-4v-1 1zm18-2h1c1 0 0 0 0 0h-1zm-18 0v-1 1zm13 0zm1 0zm-14-2h1-1zm22-1v-1 1zm-21-1v-1 1zm16-8h1-1zm-10-2zm116 41 14-2c3-1 6-4 8-7 2-4 2-7 1-15l-2-18a286 286 0 0 0-18 4l-2 4-2 6v2h7c4-1 5 0 6 1v4l-11 2-11 1c-5 1-8 6-7 11 0 2 1 5 2 4 0 1 2 3 4 3h11zm-10 0h1-1zm2 0h2-2zm9-1v1-1zm5 0h1-1zm-23-9v1-1zm40-5 1-1v1h-1zm0-2h1v1l-1-1zm0-1 1-1v1h-1zm-30 0h1-1zm12-1c1 0 0 0 0 0zm8-4v-1 1c0 1 0 0 0 0zm-14-4h1v1l-1-1zm10 0h1-1zm13-2zm-22 0v-1 1zm22-2v-1 1c0 1 0 0 0 0zm0-2zm-19-5zm-88 36h-1 1zm40-88c8-2 14-7 14-12v-5l-2 1-12 4a38 38 0 0 1-23-4l-2-1v4c0 3 1 5 3 7 5 6 15 8 22 6zm-9 0h1-1zm6 0h1-1zm0-11h1-1zm4-1h1-1zm13-2s0-1 0 0v1-1zm-39 0v1-1zm25-5c11-3 20-11 26-24l3-5c1-4 2-5 5-5s4-1 5-2c2-2 3-5 3-9s-1-5-3-5l-3 1-1 2-2 1-4-2v-3l-2-10-3-3-4-4-2-2-1-2a550 550 0 0 1-3 0l-12 5c-11 4-21 5-32 3l-4-1c-2 1-4 4-5 8v5c0 5-1 5-4 6l-3-1-1-1v-2h-4l-1 2v9l4 4 4 1h2l1 1c1 1 2 1 3 5 2 6 5 12 9 16 8 10 18 14 29 12zm-7 0h1-1zm2 0h1-1zm-4-1v1-1zm7 0v1-1zm-42-34zm77 0h1-1zm-85-7v1-1zm93 0h1v1l-1-1zm-93-2v-1 2-1zm94-1s0-1 0 0v1-1zm-9-1v1-1zm-85 0zm0-1v-1 1zm93 0 1-1v1h-1zm-89-2h1-1zm76-2v-1 1zm0-2v-1 1zm-2-7v-1 1c1 0 0 0 0 0zm-47-3h1-1s-1 0 0 0zm2 0h2-2zm-6 0h1-1zm12 0c1 0 0 0 0 0s-1 0 0 0zm-14 0h1-1zm16 0h1-1zM4 96z" style="fill:#edab71" transform="matrix(.18335 0 0 .18335 9 -9)"/><path d="m29 286-7-4a102 102 0 0 1-17-15l-2 2c-3 5-8 7-14 7l-18-1c-5-1-9-3-13-6-5-5-7-11-7-17a230 230 0 0 1 3-26l-1-1-3-2v-1c0-2 7-30 9-33 2-7 5-11 10-15l18-9a228 228 0 0 1 18-6l1-1-2-3c-5-6-10-12-12-20l-1-2h-2c-5-1-9-5-11-12l-1-5c0-5 1-8 3-11l2-1-1-2-1-11c0-5 0-8 2-13 2-7 8-15 16-19 8-5 20-9 29-10 15-2 26 0 33 7l4 3 5 1 5 4c4 5 7 11 9 18 1 5 1 14-1 19l-1 3 2 1c3 2 4 5 4 10 0 4-1 6-3 10-1 3-3 5-5 6l-6 2-1 2a66 66 0 0 1-15 22l1 2 1 2a208 208 0 0 1 28 9c8 4 13 9 17 16l4 12a3133 3133 0 0 0 6 24l-3 3-1 1a415 415 0 0 0 3 27c-1 9-6 16-13 20-3 1-5 2-12 2a551 551 0 0 0-13 2c-4 0-9-2-12-5l-3-3-1-2-6 5c-9 8-17 14-21 15l-3-1zm-35-17 2-2c2-1 3-4 3-6 1-4-2-9-7-10l-18-1c-3 0-4-1-5-2s0-4 1-5h12v-2l-2-6-1-5h-1l-17-3a378 378 0 0 0-3 27c0 6 4 11 9 13l14 2h13zm85 0 13-1c4 0 6-1 9-4a17 17 0 0 0 5-15l-4-22-16 3c-1 0-2 1-3 5l-2 6v2h12l1 2v4l-10 1-14 1-5 5v4c0 5 2 8 6 9h8zm-41-90 8-4c4-3 5-6 6-9l-1-3v-1l-3 1a36 36 0 0 1-34 0l-2-1-1 2c-1 7 6 13 16 15h11zm1-20c10-3 18-10 24-22l2-6 3-5h3c3 0 3 0 5-2s3-4 3-8c0-5-1-6-3-6s-3 0-3 2c-1 2-1 2-4 2l-2-1-1-4-2-9-3-4-8-9-3 1-17 7c-8 2-17 2-26 1-5-1-5-1-6 1-2 3-3 6-3 11l-1 4-4 2-2-1-1-2c0-1-2-2-4-1-1 1-2 2-2 6s2 7 5 9l4 1h2l1 1 3 6c1 3 3 8 6 11 2 4 7 9 10 11 6 4 10 5 17 5l7-1z" style="fill:#e06419" transform="matrix(.18335 0 0 .18335 9 -9)"/><path d="m29 286-7-4a102 102 0 0 1-17-15l-2 2c-3 5-8 7-14 7l-18-1c-5-1-9-3-13-6-5-5-7-11-7-17a230 230 0 0 1 3-26l-1-1-3-2v-1c0-2 7-30 9-33 2-7 5-11 10-15l18-9a228 228 0 0 1 18-6l1-1-2-3c-5-6-10-12-12-20l-1-2h-2c-5-1-9-5-11-12l-1-5c0-5 1-8 3-11l2-1-1-2-1-11c0-5 0-8 2-13 2-7 8-15 16-19 8-5 20-9 29-10 15-2 26 0 33 7l4 3 5 1 5 4c4 5 7 11 9 18 1 5 1 14-1 19l-1 3 2 1c3 2 4 5 4 10 0 4-1 6-3 10-1 3-3 5-5 6l-6 2-1 2a66 66 0 0 1-15 22l1 2 1 2a208 208 0 0 1 28 9c8 4 13 9 17 16l4 12a3133 3133 0 0 0 6 24l-3 3-1 1a415 415 0 0 0 3 27c-1 9-6 16-13 20-3 1-5 2-12 2a551 551 0 0 0-13 2c-4 0-9-2-12-5l-3-3-1-2-6 5c-9 8-17 14-21 15l-3-1zm-36-17c3-1 5-3 6-6 1-5-2-10-6-12l-20-2c-3 0-4 0-4-3 0-1 0-2 2-3h11v-2l-2-6-1-5h-1a141 141 0 0 0-17-3 682 682 0 0 1-3 29c2 6 6 11 11 12a372 372 0 0 0 24 1zm91 0 13-2a17 17 0 0 0 9-18l-4-22-16 3-3 5-2 6v2h5c6-1 7 0 8 1 1 2 1 5-1 5l-5 1-18 1-5 5v7c1 3 3 5 6 6h13zm-107-51 1-9c3-9 8-15 16-19 5-2 7-3 13-3 5 0 7 1 11 3 5 1 11 6 13 8l1 2 1-2c3-3 8-7 12-8 5-3 10-3 15-3 7 1 12 4 17 8a31 31 0 0 1 10 23v4a495 495 0 0 1 19-3l-1-3a864 864 0 0 1-8-27c-2-6-6-10-13-13l-15-6-10-2-1 3c-2 5-6 10-12 13-5 2-9 3-15 3-5 0-9-1-14-4-6-3-11-7-12-13-1-2-1-2-4-1l-19 6c-8 3-13 8-16 15l-8 29 5 1a1643 1643 0 0 1 13 3l1-5zm58-39c3 0 7-1 9-3 5-3 9-8 7-12 0-2 0-2-2-1l-13 4a37 37 0 0 1-22-4h-2c-2 3 0 7 3 10a24 24 0 0 0 20 6zm2-19c9-2 16-8 23-17l5-12 3-5h4c3 0 3-1 5-3l2-7c0-5-1-7-4-6-1 0-2 0-2 2l-1 2-4-1c-2 0-2-1-2-4l-2-10-3-2a58 58 0 0 1-8-10l-3 1c-14 8-28 10-44 8-4-1-4-1-5 1-2 3-3 6-3 11l-1 5-4 1-2-1-1-2-2-1-3 1-1 6c1 4 3 8 6 9h6c1 1 2 2 2 5 2 5 4 11 8 15l7 8c4 3 9 5 14 6h10z" style="fill:#df3322" transform="matrix(.18335 0 0 .18335 9 -9)"/><path d="m29 286-7-4a102 102 0 0 1-17-15l-2 2c-3 5-8 7-14 7l-18-1c-5-1-9-3-13-6-5-5-7-11-7-17a230 230 0 0 1 3-26l-1-1-3-2v-1c0-2 7-30 9-33 2-7 5-11 10-15l18-9a228 228 0 0 1 18-6l1-1-2-3c-5-6-10-12-12-20l-1-2h-2c-5-1-9-5-11-12l-1-5c0-5 1-8 3-11l2-1-1-2-1-11c0-5 0-8 2-13 2-7 8-15 16-19 8-5 20-9 29-10 15-2 26 0 33 7l4 3 5 1 5 4c4 5 7 11 9 18 1 5 1 14-1 19l-1 3 2 1c3 2 4 5 4 10 0 4-1 6-3 10-1 3-3 5-5 6l-6 2-1 2a66 66 0 0 1-15 22l1 2 1 2a208 208 0 0 1 28 9c8 4 13 9 17 16l4 12a3133 3133 0 0 0 6 24l-3 3-1 1a415 415 0 0 0 3 27c-1 9-6 16-13 20-3 1-5 2-12 2a551 551 0 0 0-13 2c-4 0-9-2-12-5l-3-3-1-2-6 5c-9 8-17 14-21 15l-3-1zm4-7a77 77 0 0 0 10-7 143 143 0 0 0 15-15c1-5 5-10 10-12l1-1 10-17c2-7 1-15-2-21l-6-7-9-5-10 1c-6 1-11 5-16 11l-3 3c-1 1-3 0-5-2-4-6-10-11-16-12H2l-6 2-6 4a25 25 0 0 0-6 22l7 17c3 4 3 4 6 5a17 17 0 0 1 9 13l10 10 13 10c2 2 3 2 4 1zm-40-10c3-1 5-3 6-6 1-5-2-10-6-12l-20-2c-3 0-4 0-4-3 0-1 0-2 2-3h11v-2l-2-6-1-5h-1a141 141 0 0 0-17-3 682 682 0 0 1-3 29c2 6 6 11 11 12a372 372 0 0 0 24 1zm91 0 13-2a17 17 0 0 0 9-18l-4-22-16 3-3 5-2 6v2h5c6-1 7 0 8 1 1 2 1 5-1 5l-5 1-18 1-5 5v7c1 3 3 5 6 6h13zm-107-51 1-9c3-9 8-15 16-19 5-2 7-3 13-3 5 0 6 0 9 2 5 1 12 6 15 9l1 2 1-2 10-8c4-2 10-3 14-3h4c6 1 12 4 16 8a31 31 0 0 1 10 23v4a495 495 0 0 1 19-3l-1-3-1-4-5-20c-3-8-7-12-15-16l-15-6-10-2-1 3c-2 5-6 10-12 13-5 2-9 3-15 3-5 0-9-1-14-4-6-3-11-7-12-13l-1-2H3l-21 7c-7 3-11 6-14 10l-3 7a964 964 0 0 0-7 27l5 1a1643 1643 0 0 1 13 3l1-5zm58-39c3 0 7-1 9-3 5-3 9-8 7-12 0-2 0-2-2-1l-13 4a37 37 0 0 1-22-4h-2c-2 3 0 7 3 10a24 24 0 0 0 20 6zm2-19c9-2 16-8 23-17l5-12 3-5h4c3 0 3-1 5-3l2-7c0-5-1-7-4-6-1 0-2 0-2 2l-1 2-4-1c-2 0-2-1-2-4l-2-10-3-2a58 58 0 0 1-8-10l-3 1c-14 8-28 10-44 8-4-1-4-1-5 1-2 3-3 6-3 11l-1 5-4 1-2-1-1-2-2-1-3 1-1 6c1 4 3 8 6 9h6c1 1 2 2 2 5 2 5 4 11 8 15l7 8c4 3 9 5 14 6h10z" style="fill:#6d3b25" transform="matrix(.18335 0 0 .18335 9 -9)"/><path d="m30 287-20-15-5-5-2 2c-2 3-4 5-7 6-4 2-6 2-17 1-12-1-12-1-16-3-5-3-8-7-10-12s-3-8-1-18l1-12 1-6h-1l-3-3 6-25c3-11 6-17 12-22 7-5 13-8 31-13l5-1 1-2 1-2-1-1a62 62 0 0 1-14-22l-2-1c-5-1-7-4-10-9-2-4-3-7-2-11l3-8 2-1-1-3A37 37 0 0 1 2 57c19-9 39-11 51-6l7 5 4 3c4 1 7 3 10 6 5 5 8 11 9 18 1 5 0 13-1 18l-1 3h1l3 4 2 7-2 8c-2 6-6 9-11 10h-2v2a65 65 0 0 1-15 22l1 2 1 2 17 4c15 5 22 11 27 21a2837 2837 0 0 0 10 37l-2 2c-2 0-2 0-1 1a979 979 0 0 1 2 31c-2 8-7 14-14 17l-10 1a681 681 0 0 0-16 1c-5-1-9-3-12-8l-2-1a204 204 0 0 1-23 19l-5 1zm4-8a143 143 0 0 0 24-22l1-3c1-3 5-7 9-9l4-5c4-6 7-12 7-15v-13c-1-6-5-12-10-15-7-4-15-4-22 0-4 2-8 5-11 9l-4 3-4-2-2-4c-9-9-20-11-30-6-7 3-12 10-12 19v8c1 4 5 13 9 18l2 3c5 2 9 6 10 11l1 2a134 134 0 0 0 25 21h3zm-40-10c2-1 4-3 4-5l1-4-1-4-5-5-1-1h-10a1064 1064 0 0 0-12-1l-1-3 1-2 8-1h5l-1-2c0-2 0-4-2-7l-2-4-17-3a292 292 0 0 0-3 28c1 7 6 12 12 13a250 250 0 0 0 24 1zm88 0 15-2c4-2 7-5 8-9l1-6-1-8-2-18a320 320 0 0 0-19 5 369 369 0 0 1-3 10v2h12l1 1 1 2-1 3h-2l-10 1H72l-2 1-5 5c-1 4-1 9 2 11l3 2h12zm-105-50a31 31 0 0 1 9-23c12-12 30-12 43 1l3 2 2-2 10-7c8-4 17-4 25 0a30 30 0 0 1 18 28v5l3-1 10-2 6-1v-1l-6-22c-3-11-9-17-20-22l-20-6h-1l-1 2c-2 6-6 10-12 13-8 4-19 5-27 1-4-1-6-3-9-6l-5-8-1-2-10 2c-13 5-18 7-23 11l-5 7a155 155 0 0 0-8 31l5 1a1198 1198 0 0 1 13 3h1zm59-40c10-2 17-9 16-15-1-2-1-2-3-1l-11 4H28c-5 0-11-3-14-4l-2-1c-1 2-1 6 1 8 2 5 7 8 13 9h10zm2-19c7-2 14-7 19-14 4-4 7-10 8-15 2-4 2-5 6-5l6-2c3-4 3-11 1-14h-4l-1 1c-1 2-1 3-3 3-3 0-4-2-4-4l-2-9c0-2 0-2-3-4l-7-9-1-2-2 1a63 63 0 0 1-45 9c-4-1-4-1-5 1-2 3-4 8-4 13v2l-4 2-3-3-2-1c-2 0-3 0-3 2-2 5 0 11 4 13l4 1h2l1 1 2 4c3 9 9 18 16 23 7 6 16 8 24 6zm37-59 1-9c1-9-2-18-7-23-2-2-4-3-7-3-4-2-5-2-7-5l-5-3-5-2A64 64 0 0 0-5 69c-7 8-10 20-7 31l1 2h2l2-6 4-5c3-3 4-4 10-2l11 1c11 0 20-3 30-9 6-4 7-4 8-3 1 0 2 1 2 3 2 4 4 7 8 10l4 6 2 4 1 2 2-2z" style="fill:#38200e" transform="matrix(.18335 0 0 .18335 9 -9)"/><path d="m30 286-7-4-13-10-5-5-2 2c-2 4-5 6-9 7h-16c-10-1-11-2-14-3-6-3-10-8-12-15l-1-10a1058 1058 0 0 1 2-23c-2 0-3-2-3-3l3-12a2901 2901 0 0 0 8-27c5-7 12-12 23-16l18-6 3-1 1-1v-2l-2-1-6-9-6-12-1-2h-1l-6-2c-5-4-8-12-7-18l3-8 2-1-1-2-1-11v-7A37 37 0 0 1 0 58c15-8 32-11 44-9 7 1 12 3 16 8l3 1 6 3c5 2 10 8 12 15 2 4 2 6 2 12l-1 13-1 3h1c3 3 5 6 5 11 0 4-1 6-3 10s-5 7-9 8h-3v2a64 64 0 0 1-13 20l-2 2 1 2 1 2 17 4c15 5 23 12 28 21l4 13 3 13c3 11 3 10 2 11l-3 2-1 1a1010 1010 0 0 1 3 31l-3 7c-1 3-5 7-8 8a629 629 0 0 0-29 4c-6-1-9-3-13-8v-1l-6 5-12 10-9 5-2-1zm5-1 2-1 3-2 5-4 1-1v1l1-1v-1c1 1 2-1 2-1l3-3 3-3c3-3 4-3 5-1l1 1 1 1c0 1 2 3 5 4l8 2a289 289 0 0 0 22-2l5-3c3-1 5-3 4-4l2-2 4-7v-6a136 136 0 0 0-3-27h1c2 0 3-2 3-3l-1-5a533 533 0 0 1-9-31c-3-6-7-10-13-14a50 50 0 0 0-13-5c1-1-15-5-18-6l-1-1v-4l1-1v-1l3-3c-1 0-1 0 0 0v-1h1l2-4 1-1 1-1 3-5v-1l2-4v-2c1 1 4 0 6-1l4-3h-1v1l1-1 2-4 1-2s0-1 0 0l1-4v-7c0-2-3-6-5-7l1-3 1-11c0-5 0-9-1-8v-3l-1-1v-3a64 64 0 0 1-2-2l-1-3v1h-1c1 0 1 0 0 0l1-1-3-3-2-3-9-5-4-2-1-1h-1l-4-4h-2v1h-1v-2l-2-1a32 32 0 0 0-10-1h1c-1 0-1 0 0 0h1c1 0 1 0 0 0l-1 1-1-1-1 1s-1 0 0 0l-1-1v2h1-1v1l-1-1s0-1 0 0v-2h-1l-1 1h-1v-1h1-1v1l-1-1-1 1h1-4l6-1h1-9l-3 1-1 1v-1h1l-2 1h1v1-1h-3l-4 1-17 7-2 2h-1 1v1h-2l-4 4-2 3h1v1l-1-1h-1v1h1l-1 1v1h-1l1-1v-1h-1v2h-1 1l-2 2v2h-1l-3 10 1 4v2h-1v-1a22 22 0 0 0 0 3l1-1c1 0 1 0 0 0v4s-1 0 0 0l-1-1 2 6v3l-1 1-1 1-2 3c1 0 1 0 0 0v2l-1 3 1 4v2l3 5-1-1v-1l1 2 2 3 2 2 6 2 1 1v1l1 1 2 5 1 2 1 1c0-1 0-1 0 0l1 3 3 3v1c0-1 0-1 0 0h1v1l4 4v2l1 1H6l-1 1v1a82 82 0 0 0-13 4h-2l-5 2-8 3-1 1s-1 0 0 0l-2 1-4 3-6 5c1 0 1 0 0 0v1l-3 4a162 162 0 0 0-10 37v1l1 1 2 1v1a1831 1831 0 0 0-2 32l1 3s1 0 0 0l5 8 9 5 7 1a496 496 0 0 1 20 0l2-1h2c-1 0 0-1 0 0l2-2 1-1 1-1v-1l1-1 2-1h1l2 2 2 2 6 5 2 2 2 1v1l9 5 3 1 3-1zm-5-6h-2v-1h-1l-2-2-1-1-2-1-1-1s-1 0 0 0l-2-2h-1l-1-1-1-1-3-3v-1a59 59 0 0 1-7-5l-1-2v-3H4c1-1-1-4-1-3 0 0-1 0 0 0l-3-4-5-3-2-1-1-1-1-2-1-2-1-2-1-1v-1l-2-4v-1c0 1 0 0 0 0l-1-1-1-2c1-1 0-1 0 0h-1 1v-2h-1 1l-1-10v-1 1-3h1l1-3c-1 0-1 0 0 0v-3c0-1 0-1 0 0l1-1 1-1c1 0 1 0 0 0v-1l1-1h1v-1c1-1 1-1 0 0v1l1-1v-1h-1l1-1c-1 0-1 0 0 0v1c1 0 1 0 0 0l1-1c1 0 1 0 0 0h1l1-1h-1v-1h1c0 1 1 1 0 0h1l-1-1h1v-1h2c-1 0-1 0 0 0v-1h-1v-2h-1v-1h2-1c1 0 1 0 0 0v-1l-1 1h-1l-2 1 1 1h-3l-2 2-2 2v1c-1 0-1 0 0 0h-1l-1 2-1 1-2 4c1 0 0 0 0 0l-1 4-1 2h1-1v3l-1 4v5h-1l-19-4 1-2v-4h1a456 456 0 0 1 11-30l1-2c-1 0 0 0 0 0l2-2 2-2c1 1 2-1 2-1h2a83 83 0 0 1 13-6h3c0-1 0-1 0 0l7-2 1-1 1 1 1 1v1l1-2H5l1-1h1l1 1h1v-1 1-2 1-1l-1-1v1-1h2-1v1c1 0 1 0 0 0l2-1v1h-1v-1 2c0 1 0 1 0 0h1v-3h-1l1-1v-2 1h3l1 1h3l-1 1h1s1 0 0 0l2 1h2l2 1 7 1h4v-1l-1-1h1v1h2-1 3c0-1 0-1 0 0h-2 1l1-1 1 1 1-1h2l2-1c-1 0-1 0 0 0v-1 1h1v-1h2l3-1 1 1s0 1 0 0v2l1-1 1-1-1-1c0 1 0 0 0 0h-1 2v-1 1h1v-1l2-2h-1l1 1a1158 1158 0 0 1-2 1v1h1s0 1 0 0h1-2v1c0-1 0-1 0 0h-1v1h1v-1l1 1h-1v2h2v1h1-1c0 1 0 0 0 0h-1s0 1 0 0l1 1s0 1 0 0l1 1v-1h1l1-1 1 1h4c-1 1 4 2 5 2l6 2c1 0 1 0 0 0l3 1a49 49 0 0 1 9 4v1l2 1c4 3 6 6 8 10l1 2v1l2 6v1h1a14 14 0 0 0 1 5 110 110 0 0 0 3 15 119 119 0 0 1-18 4h-1l-1-5v-7l-2-5v-1l-2-3v-1h-1v-1l-1-1-1-2-1-1-2-1-1-1-1-1v1-1h-1v-1h-2v-1h-2c1 0 0 0 0 0v-1h-1l-1 1 1-1h-1v2h-1v-1 1h-1s0 1 0 0l1 1v2h1c-1 1 0 1 1 1v-1 1h1l1 1 1 1h1l1 1 1 2 2 1h-1l1 1v1l1 2 1 1 1 2 1 4v-1 2h1l-1 1v10l-1 1-1 4-1 2v1l-2 2a120 120 0 0 1-5 10h-2l-3 2-4 4-2 4-1 2-4 5a139 139 0 0 1-10 10l-3 2-2 2c1 0 0 0 0 0l-1 1h-1l-1 1h-1v1h-5zm3 0c4-2 13-9 21-17l4-4v-1c1-3 2-6 5-8l4-3 3-2 1-2 8-16c3-9 0-19-6-26l-2-2h-1l-7-3H51c-6 2-9 4-16 12l-3 2-3-2-1-1v-1h2-2l-1-1-1-1-2-2c-7-6-15-8-23-6a22 22 0 0 0-16 16c-2 5-2 11 0 15l7 16 2 2 2 1c5 3 8 6 10 12 0 2 0 2 4 6 8 8 20 17 22 17l1-1zm-56-61c0-6 1-9 3-14s6-9 10-12l9-4 7-1 11 2c5 2 10 5 13 9l2 2 2-2c5-6 14-10 22-11 4 0 7 0 10 2a30 30 0 0 1 21 28v6a1057 1057 0 0 0 19-6 880 880 0 0 1-10-31l-7-7-12-6-17-5h-1l-1 2c-1 4-3 6-6 9s-8 6-14 7H25l-12-5-5-4 1-1s1 0 0 0l-2-1-2-5-1-2H1l-17 6c-10 4-15 8-18 15l-5 17-3 13 4 1 15 3v-5zm55-10v-1 1h-1 1zm-2 0v-1 1zm3 0h-1 1zm1-2c0 1 0 1 0 0zm0 1h-1 1zm1-1 1-1v-1l-1-1v3c0 1 0 1 0 0zm-2 0zm-3-1-1 1h1v-1zm1 1v-1c-1 0-1 0 0 0v1zm2-1c1 0 1 0 0 0h-1c0 1 0 1 0 0h1zm-3-1v-1 2-1zm2 0v-1 1l-1-1c1 0 1 0 0 0v1h1-1 1zm-3-1v1-1zm-1 0h-1l1 1v-1zm5 1v-1 1zm4-1h1v-1l-1-1v1s1 0 0 0h1v1h-1zm-6 0-1-1v1h1zm5 0h-2 2zm-9 0c0-1 0 0 0 0-1 0-1 0 0 0zm6 0-1-1 1 1c-1 0 0 0 0 0zm-7 0v-1c-1 0-1 0 0 0v1zm9-1h-1v1l1-1zm-5 0c0-1 0-1 0 0h-1 1zm2 0h-1v-1 1h1zm-5 0c-1 0-1 0 0 0zm9 0c0-1 0 0 0 0zm-1 0 1-1s0-1 0 0c-1 0-1 0 0 0h-2v1h1s1 0 0 0zm-10-1h-1 1zm2 0h-1 1zm2 0h-1 1zm4-1h-1c1 0 0 0 0 0v1h1v-1zm1 1v-1l-1 1c1 0 1 0 0 0h1zm-4 0v-1h1v-1h-1 1l-1 1v-1s-1 0 0 0h-1v-1 1h-1v1h1l1 1zm-1-1v-1l1 1h-1zm8 1v-1l-1 1h1zm3 0v-1 1c-1 0-1 0 0 0zm-13-1h-1 1zm-4-1c0-1 0-1 0 0h-1v1l1-1zm2 1v-1l-1 1h1zm9-1h-1s0 1 0 0v1l1-1zm-8 0h-1 1zm12 0v1-1zm-2 0-1-1 1 1zm6 0c1 0 1 0 0 0s-1 0 0 0zm-17-1v1l-1-1v1l1-1zm3 1h-1 1zm12-1-1 1h1v-1zm-19 0h-1 1c0 1 0 1 0 0zm5 0c-1 1 0 1 0 0zm2 0v1-1zm7 0h-1 1zm8 0h-1 1zm-22-1c-1 0 0 0 0 0h-1l1 1v-1zm6 0c1 0 0 0 0 0 0-1 0-1 0 0l-1-1h2l-2-1v2a84 84 0 0 0 1 0v1-1zm-1-2 1 1-1-1zm9 2c-1 0-1 0 0 0 0 1 0 1 0 0zm7 0s-1 0 0 0c0 1 0 1 0 0zm-23 0v-1 1c1 0 1 0 0 0zm10 0-1-1v1h1zm17 0h-2 2zm-50-1c-1-1-1 0-2 1h1l1-1zm-1 0c0 1 0 1 0 0zm31 1h-1 1zm10 0c-1 0-1 0 0 0zm1-1h-1l1 1v-1zm1 1v-1 1zm2-1v1-1zm-22-1-1-1 1 1v2-2zm4 0-1 1c0 1 0 1 0 0l1-1zm3 1h-1 1zm20 0v-2 1l-1 1h1zm-6 0 1-1v-1h-1l1 1-1 1c-1 0-1 0 0 0zm8 0h-1 1zm-30 0zm-20-1 1-1 1-1v-1 1l-1 1v-1h-1v1h1-1v-2 1h1l-1-1h-1 1v-1 1l1-1c-1 0 0-1 0 0l1 1s1 0 0 0c0 0 0-1 0 0v-1h1v-1h-1v1h-1v-1h-1v-1l1 1c-1 0 0 0 0 0l1-1h1v-1 1h1l1-1c-1 0 0 0 0 0h-3v1c0-1 0-1 0 0l-3 1v1-1c1 0 1 0 0 0h1l-2 2v1l1-1v-1 3l1 2v-1zm1-6v1-1zm27 7v-1 1zm18 0h-1 1zm-22-1h-1l1 1v-1zm-4 0h-1c-1 0-1 0 0 0h1zm6 0h-1 1zm18 0zm-42 0h-2 2zm26-1-1-1v2-1l1 1v-1zm24 1h-1 1zm17 0-1-1c1 0 1 0 0 0v-2h-1l1 1v1h-1v-2c-1 1-1 0 0 0v-1c-1 0-1 0 0 0l-1-1h-3c1 0 1 0 0 0 0 1 0 1 0 0h1l1 1v-1l2 1-1 1v1h-1c0-1 0 0 0 0v1c-1 0 0 0 0 0h1s1 0 0 0h1l1 1h1zm-24 0v-1h-1c-1 0-1 0 0 0l1 1zm9 0h-1 1zm-51-1v1-1zm15 0c0 1 0 1 0 0zm-13 0c1 0 1 0 0 0H1v-1c1 1 1 0 0 0 0-1 0-1 0 0v-2l1-1c-1-1-1-1 0 0v3c0-1 0 0 0 0h1v-2h1v-1l1-1v2-1c1 0 1 0 0 0v-1l1 1h1l-1-1c0 1 0 0 0 0v-1s-1 0 0 0l-1 1H4c0 1 0 1 0 0H3v-1h1v1-1h4s-1 0 0 0h2-2a37 37 0 0 0-5 0H2v2-1a129 129 0 0 0-2 0l1 1H0v1h1v-1 1H0l1 1c0-1 0-1 0 0H0h1l-1 1v1h2zm-2-1h1-1zm3-2v-1c0 1 0 1 0 0v1zm9 3h-1 1zm9 0v-1 1zm19 0v-1l-1 1h1zm4 0h-2 2zm3 0-1-1v1h1zm7 0 3-1c-1 0 0 0 0 0h3-5c-1 0-1 0 0 0v-1l-1 1h-2l1 1h-2 3zm-4-1v1h1l-1-1zm-45 0H4v1l1-1zm5 1v-1h1c1 0 1 0 0 0h-1l-2-1H7l1 1H7h1l2 1zm-1-1zm52 0c1 0 0 0 0 0l-1 1h1v-1zm-55 0H5h1zm6 0s1 0 0 0zm9-1v-1h-1l1 1s-1 0 0 0l-1 1h1v-1zm2 1c0-1 0-1 0 0zm19-1h-1 1v1-1zm4 0-1 1h1v-1zm1 0h-1l1 1v-1zm2 0-1 1h1v-1zm-43 0v1-1zm5 0c-1 0-1 0 0 0 0 1 0 1 0 0zm9 0h-1l1 1v-1zm30 0h-1 1zm1 0h1-1c0-1 0-1 0 0h-1v1l1-1zm4 0h-2 2zm7 0h-1 1zm-58 0H3h1zm6 0-1-1v1h1zm8 0h-1 1zm25 0zm-45 0c0-1 0 0 0 0zm10 0v-2h1-1l-1 1v1h1zm5 0h-1 1zm35 0v-1 1zm-56-1v1-1zm52 1v-1c0 1 0 0 0 0h2l-2-1-1 1h1v1zm22 0v-1h1l-2-1h2l-1-1-6-1h1c-1 0 0 0 0 0h1v1h2c0 1 0 1 0 0 0 1 0 1 0 0h1v1h-2v-1 1l2 1 1 1zm-3-1h-1 1zm-12 0c0 1 0 0 0 0zm3 0h-1 1zm-34 0-1-1v1h1zm27 0c-1 0-1 0 0 0zm12 0v-1l-1 1h1zm-49-1v1-1zm3 0h-1c1 0 0 0 0 0h1zm35 0h-2 1v1l1-1zm2 0s0-1 0 0h-1v-1l1 1h1v-1h-1l1-1-2 1v1h-1 2zm-33 0h-1 1zm-9 0H7h1zm45 0c0-1 0-1 0 0h-1 1zm-37 0h1v-1h-1l-1 1h1zm46-1h-1 1zm-52 0v1-1zm38 0h-1 1zm4 0c-1 0-1 1 0 0zm-37 0h-1 1zm-4 0h1v-1c-1 0-2 0-1 1zm3 0h-1v-1l-1 1h2zm39-1h-1c-1 0-1 0 0 0l1 1v-1zm1 0h1-2c1 0 1 0 0 0h1zm3 0h3l-2-1c-2 0-3 0-2 1h-1 2zm-28-2h-1 1c1 0 1 0 0 0zm5 0h-1c0-1-1-1 0 0h1c1 0 1 0 0 0zm3 0h-1 1zm-12-1v1-1zm13 0v1-1zm-14 0h-1 1zm13 0h-1 1zm3 0h-1 1zm-1 0h-2 2zm2-1v1-1zm-20 0h-1 1zm22 0h1-1s-1 0 0 0h-1 1zm-23 0zm8 0c-1 0-1 0 0 0v-1l-1 1h1zm-9-1v1-1zm3 0h-1v1-1h1zm23 0h-1v1l1-1zm-4 0c-1 0-1 0 0 0 0 0 0 1 0 0zm-23-1h-1v1l1-1zm1 0h-1l1 1v-1zm-3 0h-1c0-1 0-1 0 0h1zm31 0h-1 1zm-21-1v1-1zm22 0h1v-1h-1v1s0 1 0 0c1 0 1 0 0 0zm-23 0c0-1 0-1 0 0h-1 1zm7 0c-1 0-1 0 0 0zm2 0c0-1 0-1 0 0h-1 1zm-20-1v1-1zm3 0-1-1v1l1 1v-1zm3 0-1-1 1 1v1-1zm1 0h-1l1 1v-1zm12 1-1-1h-1l1 1h1zm-3-1h-1 1c0 1 0 0 0 0zm7 0h-3 3zm-10 0h-1a51 51 0 0 1-2-1l1 1c-1 0 0 0 0 0h2zm1 0c-1 0 0 0 0 0s1 0 0 0zm-5 0 1-1h-1v1zm11 0c6-1 11-3 14-7 3-3 4-6 4-9-1-2-1-2-3-1l-12 4H26c-4-1-10-3-12-5h-2l-1 4c0 3 2 5 3 7l2 2v1h2v1h-1v1c0-1 0-1 0 0h1v-1h1l-2-1-1-1 2 1c3 2 8 4 13 4h3zm4 0 1-1s1 0 0 0h-1v1s1 0 0 0zm3 0v-1h1v1-1h-1c1 0 1 0 0 0h-1v1h1zm-29-1h-1l1 1v-1zm1 0v1-1zm1 0h-1 1zm9 0h-1l-1-1c-1 0-1 0 0 0h-1l1 1h1v1l1-1zm22 0h-1 1zm-29 0h-1 1zm6 0h-1 1zm25 0h-1 1zm4 0c1 0 1 0 0 0 0 1 0 0 0 0zm-38-1-1 1 1-1zm37 1c-1 0-1 0 0 0zm-7-1v1-1zm-24 0h-1 1zm23 0h1-2v1l1-1zm9 0h-1l1 1v-1zm-6 0h1v-1l1 1v-1s-1 0 0 0h-2l-1 1h1zm0-1h1v1l-1-1zm-35 1v-1 1c1 0 0 0 0 0zm5 0h-1 1zm38 0h-1 1zm-9-1h1l1-1 1-1c0 1 0 1 0 0h1v-1l-1 1-3 2h-1 1zm-32 0c-1 0-1 0 0 0zm1 0s1 0 0 0zm2 0v-1 1zm34 0c-1 0-1 0 0 0zm-32 0-1-1c0 1 0 1 0 0v1h1zm-6-1h-1v1l1-1zm3 0h-1 1zm40 0c0 1 0 1 0 0zm-5-1h-1v1h1v-1zm1 1v-1 1zm-35-2-1-1-2-2v-1 1l1 1v1c0 1 0 1 0 0l1 1 1 1c-1 0-1 0 0 0 0 1 0 1 0 0v-1zm37 2v-1 1zm-1-1c0 1 0 0 0 0zm-42 0H8h1zm46 0-1-1 1 1zm-1-1v-1l-1 1h1-1v1h1v-1zm-46 0s0-1 0 0H7h1zm5 1c0-1 0-1 0 0zm37-1h1-1zm5-1h-1v1l1-1zm1 0h-1 1v1-1zm-49 0H6l1 1v-1zm44 0h1-1l-1-1 1 2v-1zm-39 0-1-1 1 1zm38-2h1l-2 1 1-1zm7 1v-1l-1 1h-1c1 0 0 0 0 0v1h1l1-1zm-1 0c0 1 0 1 0 0zm-50-1h2c1 0 1-1 0 0v-2H6v1-1l1 1c-1 0-1 0 0 0l-1 1H5l1 1v-1zm1 0 1-1-1 1s-1 0 0 0zm47 1h-1 1zm-44-1-1-1v1h1zm1 0c1 0 1 0 0 0zm44 0zm-45-1h2c0-1 0-1 0 0h-2c-1 0-1 0 0 0 0 1 1 1 0 0zm41 0 1-1v1-2l-1 1v1s1 0 0 0zm-42-1H8h2v-1 1-1H7l-1-1v1c1 0 1 0 0 0h1l1 1h1zm48 0c0 1 0 1 0 0h-1c0 1 0 1 0 0h1zm-46 0c1 0 0 0 0 0zm44 0v-1 1zm1 0h-1 1zm-2 0h-1 1zm-47 0-1-1v1h1zm46-2-1-1h1l-1-1v3l1-1zm3 1h-1 1zm-1-1h-1 1zm-1-1h-1l1 1v-1zm1 0h-1 1c-1 0 0 0 0 0zm-1-1v-1h-1l1 1zm17 110h1l-1 1v-1zm-57 0v-1l1 1h-1zm58-4v-1 1zm-83-1a386 386 0 0 0-23-3l-2-1c0 1 0 0 0 0l-1-1-4-6-1-2v-1a679 679 0 0 0 0-14 170 170 0 0 1 2-15h6l6 1 6 2 2 1 1 2v3l2 6v1h-1a125 125 0 0 1-11 0l-1 2c-1-1-1 1-1 2l1 1 11 1 10 1 6 3c2 2 3 6 3 8l-3 6c-2 2-6 3-8 3zm5-1c5-3 7-8 4-13-1-3-5-5-7-6a398 398 0 0 0-21-1l-1-3 2-3h12l-1-2-1-7-3-4-16-3c-1-1-1-1-2 6-2 14-3 19-2 22 1 7 7 12 12 13a332 332 0 0 0 24 1zm78 1c-4-1-6-3-7-7l-1-4c1-4 4-7 8-9l10-1a632 632 0 0 1 12-1v-2c0-2-1-3-2-3H81v-2l1-5c3-7 2-6 5-7a190 190 0 0 1 16-2l3 18c1 8 1 11-1 15l-7 7-1 1h-1a125 125 0 0 1-24 2zm9-1 14-1 6-4 4-7c2-3 1-9-1-26l-1-5-17 4-3 5-2 6v2h2a235 235 0 0 1 10 0l2 3c0 2-1 3-3 3l-10 1H72l-2 1-5 5v8c1 2 3 4 6 5h10zm-99-50c0-1 0-1 0 0 1 0 1 0 0 0zm1-9h1v1l-1-1zm95-3h1-1zm5-2v1-1zm-97 0v-1 1zm2-3v-1 1zm93-1v-1 1zm-96-2c0-1 0-1 0 0zm3 0h1-1zm-1 0 1-1v1h-1zm1-1v-1c1 1 1 0 0 0h2v1h1-1c0 1 0 0 0 0l-1-1v1h-1zm2 0c1 0 0 0 0 0zm-3-1h1-1zm4 0v-1l1 1h-1zm-34 0v-1 1zm29 0s0-1 0 0h1-1zm6 0h1-1zm-2-1c1 0 0 0 0 0zm85 0h1-1zm-88 0v-1l1 1h-1zm2-1c0 1 0 1 0 0zm2 0h1v1l-1-1zm84 0v-1 1zm-8-1c-1 0-1 0 0 0v1-1zm-78 0v1-1zm5 0h1-1zm74 0 1-1v1h-1zm-75 0c-1 0-1 0 0 0h1-1zm76 0v-1 1zm-78 0v-1l1 1h-1zm2-1zm1 0c0-1 0 0 0 0s1 0 0 0zm72 0h1-1zm1-1h1-1zm-74-1v1-1zm75 0s-1 0 0 0zm-82-19h1-1zm10-4 1 1-1-1zm12-1v-1 1c1 0 1 0 0 0zm20-1h1-1zm4 0h2-2zm2 0c1 0 1 0 0 0zm-28 0h1-1zm26 0v-1 1c1 0 0 0 0 0zm-9-1h1-1zm17 0h1-1zm-48 0h1-1zm64-1v-1c-1 0-1 0 0 0v2c0-1 0-1 0 0v-1zm-48 0v1-1zm14 0 1 1-1-1zm-3 0h1-1zm24 0zm1 0s-1 0 0 0zm-14-1v1-1zm2 1v-1 1zm31-2v1-1zm-16 0v-1 1zm-16 0 1-1-1 1zm18 0v-1h1l-1 1zm-19-1h1-1zm21 0h1-1zm-28 0v-1h1l-1 1zm2 0 1-1v1h-1zm11 0h2-2c-1 0-1 0 0 0zm-9-1h-5v-1h-2v-1h-2l-2-1v-1h-1 1l-2-1-1-1v1-1l-1-1h-1v-1l-4-3-3-3v-2H3v-2s-1 0 0 0l-1 1c0 1 0 1 0 0l-1-3c0 1 0 1 0 0v-1H0c1 0 1 0 0 0v-3l-1-1c0 1 0 1 0 0l-3-7c1-1-1-2-4-2l-2 1-1-1c-1 0-1 0 0 0l-2-1-1-2h-1v-3l-1-1v-7l3-3h2l1 1h1v1s1 0 0 0v1c0-1 0 0 0 0l1 1h3c0-1 0-1 0 0l1-1 1-4 1-5v-2l1-1h-1l1-1c0 1 0 1 0 0l1-1v-1c-1 0-1 0 0 0v-1h1v-1h1c-1-1-1-1 0 0h5c8 2 16 2 14 1l2-1h3c0 1 0 1 0 0l-1 1h1l1-1h5l2-1h1-1 1l4-1 2-2 1 1v-1h2v-1c1 1 2 0 1-1h3c-1-1-1-1 0 0l1-1h1v-1c1 0 1 0 0 0h1l3-2v1c1 0 1 0 0 0h-1 1v1h1v-1 2h-1 1v1l1 1h1l1 2v1c0-1 0 0 0 0h2v1c0 1 0 1 0 0h-1l2 1 1 1s1 0 0 0v1l1 1 1 1 1 1v2h1-1a58 58 0 0 1 2 9v1s0 1 0 0c1 0 1 0 0 0l3 1h1-1 1l1-1 1-1 1-1v-1h2l2 1 1 2 1 1v3c-1 3-1 5-3 7v2h-2l-4 1-3 1v1l-1 2-1 3-2 3v1l-1 1v1l-1 2c-1-1-1 0 0 0 0 1 0 1 0 0h-1v1l-1 2-1 1v1l-1 1-3 3-1 2h-1l-2 1-2 2-1 1-1 1-2 1h-1c1 1 1 1 0 0l-1 1h-2l-2 1H27zm9 0c7-1 13-5 19-11l7-10 1-2c1 1 1 1 0 0l1-2 2-4c1-4 1-5 5-5h3l5-6v-8c-1-2-3-3-5-2l-1 1c0 2-1 3-3 3l-3-1-1-2c0-6-1-10-2-11l-4-4-6-8v-1c0-1-1-1 0 0h-1v-1l-1 1-9 4c-5 3-11 4-17 5H10l-8-1-1 1-1 1h1c0-1 0-1 0 0-2 3-3 7-3 12l-1 4-4 1-3-3-2-1c-2 0-3 0-4 2 0 5 1 9 3 12 2 2 3 2 6 2h3v1l2 5 6 12 11 11c7 4 14 6 21 5zM25 96h-3 3zm36 0zm-2-2v-1 1zm-4-6v1-1zm-42 67 1 1-1-1zm-5-4h1-1zm-8-2c0-1 0 0 0 0 0 1 0 1 0 0zm63-1h1-1zm6-9c0 1 0 1 0 0zm-76-3c0 1 0 1 0 0zm85-6 1-1v1h-1zm2-1c1 0 0 0 0 0zm1-2v1-1zm-87 0h1-1zm89-2h1-1zm-104-2 1 1-1-1zm0-1-1-1h1v1zm101-5c1 0 0 0 0 0zm-97-1c1 1 0 1 0 0zm97-1v-2 3-1zm-97-1h1l-1 1v-1zm11-1h1-1zm74 0c0-1 0-1 0 0 1 0 1 0 0 0zm-1-3c0-1 0-1 0 0zm-1-5s0 1 0 0zm6-2v-1l-1-2v-1h-1v-1l-1-2v-1l-1-1v1l1 1-1-1h-1v1h-2l1-1h1-2l1-1h-1 1v-1 1h1l-1-1v-1h-1s0 1 0 0v1l-1 1v-1l1-2c-1 0-1 0 0 0h-1v-1h-3 1l1-1h-1v-1 1h-1v-2h-1v1-1h1v-1c-1-1-1-2-2-1h-1 1v-1s0-1 0 0v-1h-1l-1-1h-2v-1c0 1 0 1 0 0v-1l1 1h1l1 1s0 1 0 0v-1h-2v-1h-1l-1 1v-1h1v-1h2l-1-1-1 1v-1l-1 1h-1v-1 2h1v2h-1v-2h-1v1h-1l-1-1-1 1h-1l-1 1-3 2a83 83 0 0 1-14 6h-8l1 1h-3c1-1 0-1-2-1l-3 1h2-1l1 1v1c0 1 0 1 0 0l-1-1v1s0-1 0 0v-1l-1-1h-1c1 0 1 0 0 0 0 1 0 1 0 0h-1 1v-1h-4v1h1v1h-1v-1c1 0 0 0 0 0s0-1 0 0v-1H8l-3-1H2v-1l-1 1c0 1 0 1 0 0h1v2h1l-1 1c0-1 0-1 0 0-1 0-1 0 0 0l1 1H2v-1H1v-1h1-1v-2H0l-1 1-1 1v1h-1c0-1 0-1 0 0 0 0-1 0 0 0h-1v1l-1 1-1 3-1 1c0-1 0-1 0 0v1h-1 1-1v2l-2 2-2-1s0-1 0 0v-1h-1v-3l-1-3v-2l-1 1c1 0 1 0 0 0v-3l1 1v-2 1h-1v-1h1v-1s0-1 0 0v-3l1-1-1-1v1-2c1 1 1 0 1-1v-1s0-1 0 0h1v-1c0-1 0-1 0 0v-1l1-1c-1 0 0 0 0 0l1-2v-2h1v-1h1l-1-1h2v-1s0-1 0 0v-1h1c1 0 1 0 0 0v-1h1l4-3c-1 0 0 0 0 0l1-1h1c0-1 0-1 0 0v-1h1l1-1h1l1-1h2v-1h2v-1h3l1-1s1 0 0 0h1l1-1c0 1 0 0 0 0h3l1-1 5-1-1-1h2l1 1v-1h1s1 0 0 0h6l2-1h3c-1 0 0 0 0 0h1c-1 0-1 0 0 0h-1l2 1 1-1v-1c0 1 0 0 0 0l1-1v2c-1 0 0 0 0 0h1v-1l1 1h-1l-1 1h2c-1 0 0 0 0 0h6v1h1-2c0-1 0-1 0 0v1h1v-1 1h1v1h3-1c1 0 0 0 0 0v1s1 0 0 0h1v1h1l2 3h1c-1 1 1 1 2 1v1l1-1v-1h1v1h2v1h-1l-1-1v1h-1 1l2 1h2l2 2v-1c0 1 0 1 0 0h-1c0-1 0-1 0 0l1-1v1h1v-1s0-1 0 0v1l1-2-1 2v2l1-1v1c-1 0-1 0 0 0v1h1c-1 0-1 0 0 0v1h1l-3-2-7-4c-4-1-5-1-7-3l-1-2-1-1c-2-1-5-3-8-3A67 67 0 0 0-3 68c-9 8-13 22-9 33l2 2 2-4c1-4 5-9 8-10h7a51 51 0 0 0 28-2l14-7 7-3 3 4c1 3 3 7 7 10 3 4 5 6 6 10v2l2-1 2-8a30 30 0 0 0-5-23l1 1 1 1c0-1 0-1 0 0l1 2v2l1 1v1l1 2 1 3-2 18c-1 1-2 2-3 1zm-5-9zm-5-7h-1l1 1v-1zm-3-5h-1l1 1v-1zm-2-2c0-1 0-1 0 0-1 0-1 1 0 0v1-1zm-5 0v-1l-1 1h1zm14-14h-1 1zm-50-8h-1 1zm32-2v-1l-1 1h1zm-23 0h-1 1zm22 0c0-1 0-1 0 0-1 0-1 0 0 0zm-65 46c0 1 0 1 0 0zm-1-1v-3 1s0 1 0 0l1 1v1h-1zm85 0-1-1h1v1s-1 0 0 0zm15-1v1-1zm-99 0h1v1l-1-1zm12 0v-1 1zm72 0v-2 2zm-68-2 1 1-1-1zm-16 0zm84 0v-1h1l-1 1c0 1 0 1 0 0zm16 0v-1 1c0 1 0 1 0 0zm-17 0v-1h1v1h-1zm-1-1v-1h1v1h-1zm3 0c0-1 0-1 0 0h1-1zm-1 0-1-1h1v1zm15 0v-1 1zm1 0v-1 1zm-99-1v-1 1zm33 0zm1 0v-1h2v1h-2zm3 0h1-1s-1 0 0 0zm-7 0 1-1v1h-1zm-32-1h1l-1 1v-1zm4 0 1-1-1 1zm77 0h1-1zm2 0c1-1 0-1-1-1h2v1c-1 0-1 0 0 0h-1zm-82 0v-1 1zm23-1v-1l1 1v1l-1-1Zm56 0v1-1zm-80 0h1-1zm22 0c0 1 0 0 0 0zm29 0h1-1v1zm30 0v-1 1zm20 0s1 0 0 0zm-100 0v-1l1 1h-1zm18 0v-1h1l-1 1zm5 0 1-1c0 1 0 0 0 0v1H5zm10 0v-1 1zm5 0 1-1v1h-1zm-23-1v-1 1zm12 0h1-1zm-10 0zm13 0h1-1zm8 0zm-37 0v-2l1-1v2h-1v1zm40 0h-1v-1l1 1zm3 0h-1 1zm38 0v-1 1zm-82-1v-1l1 1h-1zm21 0h1c0 1 0 1 0 0H3c0 1 0 1 0 0Zm15 0h1l-1 1v-1zM0 92v-1l1 1H0zm9 0c0-1 0-1 0 0H8l1-1v1zm4 0-1-1h-1v-1l1 1h1v1c1 0 1 0 0 0zm4 0h1-1zm3 0s0-1 0 0zm8 0h1-1zm35 0c0-1 0-1 0 0zm20-1s0-1 0 0v1-1zM7 92v-1l-1 1H5v-1H4v-1h1c1 0 1-1 0 0H4l1-1s1 0 0 0h1l1 1h2l-1 1v-1H7v1l1 1H7zm0-1-1-1-1 1v-1l1 1h1zm4 1h1-1zm4 0zm49 0v-1 1zm-83 0 1-1v1h-1zm19 0v-1h-1c-1 0-1 0 0 0h1v-1c-1 0-1 0 0 0l1 1H0v1zm4 0v-1 1zm20 0v-1 1s-1 0 0 0zm0-1v-1c-1 0 0 0 0 0v1h2l-1 1v-1h-1zm37 0h1v1l-1-1zm-39 0c-1 0 0-1 0 0zm-5 0c1 0 0 0 0 0zm1 0h2-2zm11 0c-1 0 0 0 0 0 0-1 0-1 0 0zm52 0zm-54 0v-1 1zm31 0zm4 0h2-2zm-34 0v-1 1zm-46-1v-1l1 1 1-1c-1 0-1 0 0 0v1h-2c1 0 0 0 0 0 0 1 0 1 0 0zm77 0h-1l1-1h1l-1 1c0-1 0 0 0 0 0 1 0 1 0 0zm-78 0zm22 0h1-1zm26 0h1-1zm27 0h1-1zm-76-1h1v1l-1-1zm24 0zm56 0v-1 1zm1 0zm22-1v-1 1c0 1 0 2 0 0zm-100 1v-1 1zm51-1h1l-1 1v-1zm25 0zm-77 0 1-1-1 1zm78 0 1-1v1h-1zm-80-1v-1l1-1c1 0 1 0 0 0v3l-1-1zm5 0h1l-1 1v-1zm71 1v-1 1c-1 0-1 0 0 0zm-73-1h1v1l-1-1zm1 0h1-1zm-3 0h1-1zm77 0s-1 0 0 0zm-73-1 1-1v-1c1 0 1 0 0 0v2h-1zm-4 0h1-1zm3 0c1 0 1 0 0 0zm75 0h1v-1 1h-1zm-4 0h1-1zm-73 0v-1l1 1h-1zm1-1h1-1zm-1 0c0-1 0-1 0 0zm71 0h1-1zm3-1h-1 1v1-1zm-74 0c-1 0-1 0 0 0 0 1 0 0 0 0zm75 0h1-1zm-76 0zm73 0h1-1zm-70 0v-1c1 0 1 0 0 0v1zm73 0v-1 1zm1 0c-1-1 0-1 0 0zm-73-1c0 1 0 1 0 0zm71 0v1-1zm26 0c0 1 0 1 0 0zm-101 0s0-1 0 0zm2 0v-1 1zm73 0v-1l1 1h-1zm-71-1h1l-1 1v-1zm1 0v-1 1h1-1zm-5 0v-1h1c0 1 0 1 0 0v1h-1zm3-1h1v1l-1-1zm-1 0c1 0 0 0 0 0s-1 0 0 0zm1-1v1-1zm97 0h1v1l-1-1zm-99 0 1-1-1 1zm3-1c-1 0-1 0 0 0v-1h1v1h1c0 1 0 1 0 0h-2c0 1 0 1 0 0zm-2 0h1-1zm71 0v-1 1zm-72 0 1-1c-1 0-1 0 0 0l-1 1zm1-1h1v1l-1-1zm98 0v-1 1c-1 0-1 0 0 0zm-98-1 1-1v1c0 1 0 1 0 0h-1v1-1zm1 1v-1l1 1h-1zm3 0 1-1h-1 1v-2 1l-1-1v1c-1 0-1 0 0 0v1l-1-1v-1c-1 0 0 0 0 0v-1c-1 0-1 0 0 0h3v1-1h1v1h-1 1-1v1h-1v2h-1zm1-3zm0 2h1v1l-1-1zm92 0v-1l1 1h-1zm0-2h-1 1zm-96 0 1-1v-1l1 1h-1c0-1 0 0 0 0l-1 1zm95 0v-1h-1l1-1 1 1h-1v1c-1 0-1 0 0 0zm-90-2v-1 1h1c0 1 0 1 0 0h-1zm84 0h1l-1 1v-1zm-85 0v-1 1zm89 0v-1 1zm-4 0v-1h1v1h-1zm-83-1s-1 0 0 0h1l-1 1v-1zm-2 0h1-1zm2-2h-1 2-1zm1 1 1-1-1 1zm81-1h1v1l-1-1zm4 0c1 0 0 0 0 0v-2l1 2h-1zm-85-1c-1 0 0 0 0 0 1 0 1 0 0 0zm3 0v-1l1 1h-1zm77 0h1-1zm4-1c-1 0-1 0 0 0l1-1v1h-1c1 1 0 1 0 0zm-87 0 2-1-1 1h-1zm83 0h1-1zm-79 0-1-1c0 1 0 1 0 0h1v-1 1l1-1h1v1h-1s1 0 0 0l-1 1h-1 1zm2-1c0 1 0 0 0 0zm77 0v-1c-1 0-1 0 0 0v1zm-80-1s1 0 0 0zm83 0s0-1 0 0l-1-1h1l1 1h-1zm-7 0c-1-1 0-1 0 0zm-77 0 1-1c1-1 1-1 0 0v1-1h1l-1 1h-1zm2-1 1-2 1 1h-1c-1 0 0 0 0 0v1s-1 0 0 0h-1zm80 0zm-6 0-1-1v-1 1h1l1-1v1l-1 1zm5 0s0-1 0 0zm-4-1 1-1c1 0 1 0 0 0v1c1 0 1 0 0 0v1l-1-1zm5 0s-1 0 0 0h-1v-1l1 1 1 1-1-1zM0 64v-1l1 1H0zm70 0c0-1 0-1 0 0zm-1-1h1-1zm-74 0v-1 1zm2 0 1-1-1 1zm4 0h1-1zm59 0v-1 1zm10 0-1-1h-3l1-1v-1 1h2l2 2h-1zm-71-1c-1 0-1 0 0 0 0-1 0 0 0 0h1-1zm4 1v-1l1 1H3zm55 0 1-1v1h-1zm-65 0 1-1v1h-1zm72 0v-1c1 0 1 0 0 0v1zm-8-1h1c0-1 0-1 0 0h-1s0 1 0 0zm-1 0 1-1v1h-1zM4 62h1v-1h1c1 1 1 1 0 0H5v1H4zm58 0v-1 1zm1-1h1v-1 2l-1-1zM1 61h1-1zm1 0h1-1zm-2 0v-1c0 1 0 1 0 0l-1-1h1l1 1c-1 0-1 0 0 0l-1 1zm0-1zm57 1 1-1v1h-1zm4 0h1-1zm4 0c0-1 0-1 0 0zm-68-1h1l-1 1v-1zm63 0v-1 1c1 0 1 0 0 0 0 1 0 1 0 0zM2 60c1 0 1 0 0 0 0 0-1 0 0 0zm59 0h1-1zm4 0h-2l1-1v1h2-1zm-3 0-1-1h2v1h-1zm-64 0 1-1-1 1zm58 0v-1h1l-1 1zM1 59h1v1l-1-1zm1 1a43 43 0 0 0 1-1l-1 1zm3-1v1-1Zm6 0v-1 1zm0 0v-1c-1-1-1-1 0 0l1 1h-1zm43 0h1s1 0 0 0h-1zM0 59l1-1-1 1zm7 0v-1 1zm51 0h1-1zM2 59l1-1v1H2zm53-1h-1l1 1v-1zm2 0c0 1 0 1 0 0zM3 58h1-3 1l1-1h1c-1 0-1 0 0 0v1H3zm57 0h1-1zM9 58c1 0 1 0 0 0zm3 0v-1 1zm46 0c0-1 0-2 1-1h-1v1zm-45 0h1-1zm39 0v-1l1 1c0-1 0 0 0 0h-1zm3 0v-1h1v1h-1zm4-1v-1l1 1h-1zm-46 0v-1c1 0 1 0 0 0h2-1c0 1 0 1 0 0l-1 1zm3 0s0-1 0 0zM5 57v-1 1c1 0 1 0 0 0zm4-1c1 0 1 0 0 0h1v-1l1-1 1-1h1v1c-1 0 0 0 0 0h1c0 1 0 1 0 0l-1 1-1-1h-1l-1 1v1l-1 1v-1zm2 0v-1h1c-1 0-1 0 0 0v1h-1v1-1zm6 0c0-1 0-1 0 0zm3 0h-1 2l1-1v-1h1l-1 1v1c1 0 1 0 0 0h-1l-1 1v-1zm34 0c-1 0-1 0 0 0 0 1 0 1 0 0zM6 56v-1l1 1H6zm2 0v-1H7c0 1 0 1 0 0h2c0-1 0-1 0 0l-1 1zm47 0v-1 1zm2 0zm1 0-1-1h1v1zm-41 0 1-1 1-1c-1 0-1 0 0 0l-1 1v1h-1zm2 0v-1 1zm33 0v-1h1l-1 1zm1 0 1-1v1h-1zm-33-1v-1l1 1h-1c0-1 0-1 0 0v1-1zm36 0h1l-1 1v-1zm-41 0v-1 1zm6 0h1-1zm33 0s1 0 0 0zm-31-1h2-1v1l-1-1zm3 0c0 1 0 0 0 0zm19 0v-1c-1 0-1 0 0 0 0 0 1 0 0 0v1h1-1c0 1 0 1 0 0zm1 0h1c1 0 0 0 0 0h-1zm10 0h-1l-1-1h-1v-1 1-1l2 1 2 1h-1zm-35 0-1-1h1l1 1c1-1 1 0 0 0h-1zm7 0h1-1zm1 0zm2 0h1-1zm2 0h-1l1-1v-1h-1 1c0-1 0 0 0 0v1l1-1v1h1v1h-2zm1 0c-1-1-1-1 0 0v-1h-1v1h1zm6 0h1-1zm12 0h1-1zm-38 0 1-1h-2 2s0 1 0 0c0 0 1 0 0 0h1v-1h1l-2 2h-1zm22 0v-2 1h2v-1l1 1h-1l-1 1h-1zm1-1h-1v1l1-1zm12 1c1 0 0 0 0 0zm1 0zm1 0 1-1v1h-1zm-34-1c0-2 2-2 2-1h-1v1h-1zm9 0c0 1-1 1 0 0h1l-1-1v1-1h1v1h1-2zm2 0h1l-1 1v-1zm25 1 1-1v1h-1zm-30-1h1-1zm-1 0-1-1 2 1h-1zm2 0 1-1v1h-1zm6 0h1l-1-1h2-1v1h-1zm16 0 1-1v1c-1 0-1 0 0 0h-1zm3 0h1c1 0 1 0 0 0h-2zm-30-1v1-1zm4 0v-1 1l1-1h1c1 0 1 0 0 0h1v1h-3zm17 0s-1 0 0 0v1-1zm3 0h-1 1v1-1zm-15 0h-1v-1h1v1-1c-1 0 0 0 0 0s1 0 0 0h2-1v-1h2v2h-3zm6 0h1-1zm10 0v-1 1zm2 0 1-1v1h-1zm3 0h1-1zm-4 0v-1 1zm3 0v-1h1l-1 1zm-17-1h1-1zm1 0 1-1v1l-1 1v-1zm3 0h1l-1 1v-1zm3 0c1 0 1 0 0 0l1-1c0-1 0-1 0 0l1 1h-1l-1 1v-1zm4 0h1-1c0 1 0 0 0 0zm-8 0zm7 0h1-1zm8 0c1 0 0 0 0 0h1c1 0 1 0 0 0h-1zm-15 0h1-1zm14 0v-1 1zm-8-1v1-1zm3 1h-1v-1h2v1h-1zm-19-1h1l-1 1v-1zm11 0v1-1zm12 0v1-1zm-6 0zm4 0h-1l-1-1h-1l4 1h-1z" style="fill:#351c0d" transform="matrix(.18335 0 0 .18335 9 -9)"/></svg>